<svg xmlns="http://www.w3.org/2000/svg" viewBox="0 0 1080 1080"><defs><style>.cls-1{fill:#ec6300;}.cls-2{fill:#fff;fill-rule:evenodd;}</style></defs><g id="logo-Buruh"><rect id="background" class="cls-1" width="1077.52" height="1077.52"/><path id="symbol" class="cls-2" d="M349.27,680.69q-2.44-25.89-5.24-51.83c6.55,15.17,15.28,32.29,26.87,45.22C376.11,728,380.05,781,382.38,830c3.9-233.69,9.22-319,82.25-431.39,63.07-97.1,160.57-173.27,310.49-205.15-145.59,39.79-248,125.91-313.26,237.18C399.51,536.9,398,659.83,403.37,819c13.83-58.55,29.68-112.41,48.48-159.63-7.84,11.22-18.05,25.15-36.72,33.12,3.29-29,22.4-40.84,41.41-44.62,25.28-60.4,55.76-109.13,93.56-141.77-96,123.35-122.63,278.73-149,429.92l-24.47-.74c-36.83-199.67-63.05-404.81-192.14-580.93,52.11,34.4,105,118.37,164.79,326.37Zm-6.15-60.24,5.36.15c6.15.17,12.23,2.79,17.61,6.53q-.73-6.68-1.48-13.35c-7.22-11.69-12.68-25-16.91-36.87L345,569.29,353,570a25.43,25.43,0,0,1,6.6,1.54c-19.92-161.81-49.2-316.49-78.59-386.46,23.27,145.4,46.29,290.86,62.07,435.34Zm40.81,58.84c5.92-26.94-18.65-53-35.59-53.52,10.12,23.67,21.65,42.65,35.59,53.52Zm-.05-49.92c7.41-25.82-14.87-52.69-31.31-54.19C361,598.8,371,618,383.88,629.37ZM387,584.84c9.48-25.14-10.93-56-28.53-57.64,6.42,24.23,12.52,45.2,28.53,57.64Zm7.32-44.78c16.26-24.83,1.9-63.19-16.56-69.25,1,27.75,2.44,51.91,16.56,69.25Zm17.24-48.22c17.5-24,1.11-63.89-12.16-72.44-.4,27.77-3.74,53.78,12.16,72.44ZM431.93,442c18.86-22.4,4.82-62.27-7.93-71.36-2,27.06-6.86,52.25,7.93,71.36Zm23.37-42.21c19.61-21.75,6.93-62.07-5.5-71.59-2.94,27-8.63,52,5.5,71.59Zm24.1-33.49c20.93-20.48,10.81-61.51-1-71.79-4.62,26.74-11.87,51.34,1,71.79Zm24.91-27.69c31.16-25.26,16.05-55.53,16.3-69.56-13.71,19.55-24.58,46.86-16.3,69.56Zm34.81-34.22c32.3-23.77,18.64-54.71,19.54-68.72-14.61,18.89-26.75,45.66-19.54,68.72Zm34.73-28.29c34.81-19.91,24.78-52.22,27.28-66-16.68,17.09-31.8,42.3-27.28,66Zm35.95-24.59c36.54-16.52,29.63-49.64,33.43-63.15-18.23,15.43-35.68,39.09-33.43,63.15Zm39-21.45c38.59-10.91,36.66-44.68,42.42-57.48-20.31,12.56-41.08,33.36-42.42,57.48Zm42.75-19.84c42.87-3.69,48.24-37.22,52-49-13.2,10.84-42.71,14.53-52,49Zm46.88-13.68c40.53-2.17,52.41-31.08,57.6-42.27-14.42,9.15-44.16,9.23-57.6,42.27Zm52.11-10.63c13.65-33,43.38-32.86,57.86-41.93-5.26,11.17-17.31,40-57.86,41.93Zm31.72,1.64c41.54,17.3,58.49-2.19,73.3-3.2-11.36-5.46-39.48-20.53-73.3,3.2Zm-43.48,12.71c39-13.66,58.83,7.88,68.28,16.22-17.09-6.46-31.7,11.42-68.28-16.22Zm-51.23,10.78c36.79,30.86,52.35,12,69.74,19.45-9.47-9.27-29.23-33.08-69.74-19.45Zm-46.28,21.11c36.25,20.58,55.56,6.68,71.76,8.88-8.18-10.58-33.51-26.48-71.76-8.88Zm-42.55,25.25c31.75,10.83,56,1.45,72.24,2.24-11.39-10.19-42.38-25.27-72.24-2.24Zm-42.84,26c32.36,8.8,60.1-.32,75.32-2.32-9.08-11.66-47-22.55-75.32,2.32Zm-27.62,26.14c32.37,7.88,60.11-2,75.33-4.47-9.08-11.4-47-21.2-75.33,4.47Zm-29.7,29.07c25.71,16.44,51.55-6,71.7-8.95-9.86-10.73-46.07-14.94-71.7,8.95Zm-25.38,28.16c24.69,17.9,51.8-3,72.09-4.75-9.22-11.29-45.12-17.61-72.09,4.75ZM489.81,402c26.36,15.36,51.25-8.15,71.26-11.91-10.3-10.31-46.65-13-71.26,11.91Zm-25.39,41c28.65,12.15,51.12-14.12,71-20.21-11.7-9-49-7.44-71,20.21Zm-18.24,44c30.19,7.58,48.33-21.85,67.05-30.94-13-7.11-49.56.22-67.05,30.94Zm-14.57,45c35.36,2.06,48.48-25.6,63.38-39.4-21.48.53-49,7.09-63.38,39.4Zm-10.79,49.43c31-4.52,37.38-30.78,47.81-45.38-18.49,4.29-41.15,14.87-47.81,45.38Zm-4.36,44.46c26.08-12.73,34.23-34.48,43.38-49.64-19.84,5.53-41.4,18.19-43.38,49.64Zm1,37.2C442.56,648.52,449,624,457.58,612.43,437.65,617.63,417.17,631.59,417.47,663.09Z"/></g></svg>