<svg xmlns="http://www.w3.org/2000/svg" viewBox="0 0 1080 1080"><defs><style>.cls-1{fill:#042653;}.cls-2{fill:#e0af50;}.cls-3{fill:#c6922c;}</style></defs><g id="logo-Garuda"><rect id="background" class="cls-1" width="1080" height="1080"/><g id="symbol"><path id="Vector" class="cls-2" d="M538.14,478.6l6.55-6.57,7.89,10.33,2.21-10,9.08,6.72v0l2.18,1.61s-.81-21.7-1.86-28.31-6.34-13.35-6.34-13.35a22.24,22.24,0,0,0,9.76-6.32c-3.93.83-5.93,1.59-10.51,0,0,0,1.29,0,4.36-2.38a13.58,13.58,0,0,0,4.18-5.22A25.62,25.62,0,0,1,557,428c5.61-3.69,5.31-9.5,5.18-15.6a18.7,18.7,0,0,1-11.73,9.5c-22.33-2.93-43.67-7.19-61.27,9.64,0,0-6.39,1.22-15.21,6.61s-11,19.37-11,19.37,11.61-7.77,21.59-9,21.12,5.11,21.12,5.11-8.25,5.34-15,6-14.22-1.86-14.22-1.86,1.5,4,6.61,7.48,23.45.81,26.81,2,7,6,7,6c-3.74,12.94-8,24.37-16.6,34.92-14.6-16.45-86.11-57.4-112.31-71.86a287.26,287.26,0,0,0-34.79-16C290.73,396,144,352.45,144,352.45l55.71,98.24c55.71,21.05,107.9,27.37,166.74,34.23-47-1.24-95.34-3.76-142.37-5l73.44,66.25c49.81,7.14,78.24,1.3,125.09-6.19l-86.8,24.53,49.9,33c7.88,5.21,46.18,9,87.49-7.66l-51.76,24.48c23.3,21.45,58,23.56,86.22,7.67l-57.43,51.86L473,691.7,494.1,670l-8.47,24.59,21.35,14,14.27-29.58-6,34.8,22.92,13.7V478.6Z"/><path id="Vector-2" data-name="Vector" class="cls-3" d="M936,352.45S785.56,396,723.14,420.35a285.18,285.18,0,0,0-34.79,16c-26.19,14.46-94.24,54.84-108.82,71.28-7.86-9.63-12.15-16.87-15.65-28.46v0l-9.08-6.72-2.21,10L544.69,472l-6.55,6.57V727.55l15.25-8.74,8.65-5-4.34-32.13,13.56,25.87,23-12.3-10-25.29,20.67,20.56,24-16.74-56.62-51.17a71.62,71.62,0,0,0,84.83-8.86l-54.09-24c41.29,16.68,81.23,12.87,89.1,7.66l49.91-33L653.67,540c46.86,7.49,78.07,13.33,127.87,6.19L855,479.93c-47,1.23-98.12,3.75-145.15,5,58.83-6.86,113.81-13.18,169.51-34.23Z"/></g></g></svg>