<svg xmlns="http://www.w3.org/2000/svg" viewBox="0 0 1080 1080"><defs><style>.cls-1{fill:#fcfcfc;}.cls-2{fill:#ec1c24;stroke:#ec1c24;stroke-miterlimit:2.61;stroke-width:0.22px;}.cls-2,.cls-3{fill-rule:evenodd;}.cls-3,.cls-4{fill:#f48120;}</style></defs><g id="logo-Hanura"><rect id="backrgound" class="cls-1" x="1.06" width="1078.94" height="1080"/><g id="symbol"><polygon id="Vector" class="cls-2" points="947.44 667.08 0.11 667.08 0.11 412.92 947.44 412.92 1063.86 540 947.44 667.08 947.44 667.08"/><polygon id="Vector-2" data-name="Vector" class="cls-3" points="1080.01 198.52 1080.01 881.49 760.24 881.49 1073.32 540 966.53 423.54 964.64 421.48 760.24 198.52 1080.01 198.52"/><path id="Vector-3" data-name="Vector" class="cls-1" d="M836.91,466.44H797.69L754,618.79H790.7l5.65-25.15h41L843,618.79H880.7Zm-32.8,94.25,12.8-54.77,12.87,54.77Zm-82,13.94a59.37,59.37,0,0,0-5-9.47q-3.76-6.12-5.73-8a33,33,0,0,0-9.39-5.64,37.6,37.6,0,0,0,12.64-6A39.52,39.52,0,0,0,726,530.61c2.74-6.14,4.14-13.41,4.14-21.89q0-14.54-5.42-24.65T710.48,470.2q-8.81-3.76-25.5-3.76H625.05V618.79h36.11V557h3.17a12.71,12.71,0,0,1,8.81,3.52c1.94,1.8,4.11,5.74,6.53,11.74l19.23,46.57h40.65Zm-30.44-53.31a9.73,9.73,0,0,1-5.85,4.79c-4.73,1.38-7.9,2-9.52,2H661.16v-31H677c6.56,0,11,1.31,13.43,4s3.57,6.38,3.57,11.31A17.27,17.27,0,0,1,691.71,521.32ZM576.24,466.44v93c0,8.45-1.77,15-5.28,19.59S562.57,586,556.39,586s-11.15-2.35-14.67-7-5.26-11.14-5.26-19.48v-93H500.55v90.84A116.92,116.92,0,0,0,503.88,583a53.71,53.71,0,0,0,7.67,17.55,46.84,46.84,0,0,0,12.36,13.16,40,40,0,0,0,16.78,6.18,118.93,118.93,0,0,0,18.55,1.56c9.81,0,18.17-1.71,25.16-5.08,5.05-2.44,9.84-6.63,14.43-12.63a59.74,59.74,0,0,0,10.07-21,98.45,98.45,0,0,0,3.23-25.51V466.44Zm-123.8,0v84.28l-43.83-84.28H375V618.79h33.83V535.15l43.61,83.64h33.91V466.44Zm-134.58,0H278.64L234.9,618.79h36.74l5.65-25.15h41L324,618.79h37.66Zm-32.79,94.25,12.79-54.77,12.87,54.77ZM181.74,466.44v53.32H142.41V466.44h-36V618.79h36V557.18h39.33v61.61h36.13V466.44Z"/><polygon id="Vector-4" data-name="Vector" class="cls-4" points="760.86 881.49 579.39 1080 1080.01 1080 1080.01 759.47 966.9 656.08 760.86 881.49"/><polygon id="_VectorPath_" data-name="&lt;VectorPath&gt;" class="cls-4" points="579.38 0 760.85 198.52 964.64 421.48 966.53 423.54 1080.01 319.82 1080.01 0 579.38 0"/></g></g></svg>