<svg xmlns="http://www.w3.org/2000/svg" viewBox="0 0 1080 1080"><defs><style>.cls-1{fill:#021b7a;}.cls-2{fill:#fcfcfc;}</style></defs><g id="logo-PAN"><rect id="background" class="cls-1" width="1080" height="1080"/><polygon id="symbol" class="cls-2" points="540 374.21 579 144.02 572.34 377.39 655.5 159.23 603.45 386.83 727.57 189.08 632.11 402.15 792.42 232.42 657.23 422.77 847.58 287.57 677.85 447.89 890.92 352.43 693.17 476.55 920.77 424.5 702.61 507.66 935.98 501 705.79 540 935.98 579 702.61 572.34 920.77 655.5 693.17 603.45 890.92 727.57 677.85 632.11 847.58 792.42 657.23 657.23 792.42 847.58 632.11 677.85 727.57 890.92 603.45 693.17 655.5 920.77 572.34 702.61 579 935.98 540 705.79 501 935.98 507.66 702.61 424.5 920.77 476.55 693.17 352.43 890.92 447.89 677.85 287.57 847.58 422.77 657.23 232.42 792.42 402.15 632.11 189.08 727.57 386.83 603.45 159.23 655.5 377.39 572.34 144.02 579 374.21 540 144.02 501 377.39 507.66 159.23 424.5 386.83 476.55 189.08 352.43 402.15 447.89 232.42 287.57 422.77 422.77 287.57 232.42 447.89 402.15 352.43 189.08 476.55 386.83 424.5 159.23 507.66 377.39 501 144.02 540 374.21"/></g></svg>