<svg xmlns="http://www.w3.org/2000/svg" viewBox="0 0 1080 1080"><defs><style>.cls-1{fill:#014224;}.cls-2{fill:#f8c301;}</style></defs><g id="logo-PBB"><rect id="background" class="cls-1" width="1080" height="1080"/><g id="symbol"><path id="Vector" class="cls-2" d="M839.53,636.17C839.53,801.75,705.31,936,539.72,936s-299.8-134.24-299.8-299.82c0-124.5,75.88-231.27,183.93-276.58A224,224,0,0,0,315.56,551.53c0,123.8,100.36,224.18,224.16,224.18S763.89,675.33,763.89,551.53A224,224,0,0,0,655.62,359.6C763.66,404.92,839.53,511.68,839.53,636.17Z"/><polygon id="Vector-2" data-name="Vector" class="cls-2" points="540.03 268.28 488.48 302.7 505.27 243.03 456.61 204.63 518.55 202.16 540.03 144.01 561.52 202.16 623.46 204.63 574.8 243.03 591.6 302.7 540.03 268.28"/></g></g></svg>