<svg xmlns="http://www.w3.org/2000/svg" viewBox="0 0 1080 1080"><defs><style>.cls-1{fill:#38a7f8;}.cls-2{fill:#fff;}.cls-3{fill:#fe0000;}</style></defs><g id="logo-PDA"><rect class="cls-1" width="1080" height="1080"/><g id="symbol"><path class="cls-2" d="M177.77,612.75c-.46-.21-.66-.2-.73-.09C177.11,612.55,177.31,612.55,177.77,612.75Z"/><path class="cls-2" d="M758.19,619.77c-2.3-2.93-.08-2.27-3.38-2.46-4.17,5.16,5.66,12,10,10.62.46-.84.9,1.44.58-1.82C765,622.49,762.77,625.63,758.19,619.77Z"/><path class="cls-2" d="M342.45,487.92V433.87c0-6.3-.3-10.34-.83-12.13a6.17,6.17,0,0,0-3.84-3.89c-2-.85-5.69-1.25-11.17-1.25v91.52c7.21,0,11.67-1.05,13.32-3.13S342.45,497.2,342.45,487.92Z"/><path class="cls-2" d="M215.77,449.62q2.67-2.42,2.68-10.16V428c0-4.74-1-7.85-3.13-9.28s-6.39-2.13-12.95-2.13V452c1.44.07,2.67.1,3.7.1C210.75,452.09,214,451.26,215.77,449.62Z"/><path class="cls-2" d="M179,613c-.1,0-.15.11-.07.33h0C178.87,613.16,178.91,613.06,179,613Z"/><path class="cls-2" d="M509.12,423.76q-7.55,40.07-9.58,58.53h17.29Q513.18,458.68,509.12,423.76Z"/><polygon class="cls-2" points="176.98 613.35 176.98 613.35 179.57 614.49 179.56 614.49 176.98 613.35"/><path class="cls-2" d="M178.94,613.37l-.13-.06.13.07Z"/><path class="cls-2" d="M844.15,607.9c-3.53-1.8-8.76,2-10,4.63-1.66,3.34-1.13,11.18,1.68,13,4.71,2.94,3.22-4.8,6.71-7.54,2.35-1.83,3.3-1.18,3.74-4.62C846.6,610.6,845.75,608.72,844.15,607.9Z"/><path class="cls-2" d="M906.38,609.1c-2.88.84-.84,2.2-2,6.25-1.54,5.54-5.93,4.61-8.29,7.82,2.93,8.07,19.18.23,14.9-10.8C910.34,610.6,908.69,608.42,906.38,609.1Z"/><path class="cls-2" d="M883.22,601c-4.74,4.1-3-1-9.16-.85-2.57,2.72-1.08,3.75-4.58,6.14-5.08-.54-3.17-3.4-6.92-3.93-3.07-.44-5.08,2.33-5.91,4.91-2.09,6.46-.32,14,6.7,13.33,2.18-2,2.86-4.33,4.43-6.46,6.88-.58,3.4,2.5,9.19,2.41,2.39-2.48,1.53-4.17,3.8-6.67,5.34-.14,5.39,4.83,9.52,2.69C896.89,609.16,891.87,593.54,883.22,601Z"/><path class="cls-2" d="M0,335.64V744.35l1080,.88V334.77Zm821.57,57.24h51V442.6h14.84V392.88h51v139h-51V473.51H872.55v58.33h-51Zm-102.84,0h84.9v27.76h-33.9v26.52h31.66v26.35H769.73v30.57h37.36v27.76H718.73ZM580.23,442c0-10,.5-17.53,1.44-22.53s3.84-9.84,8.67-14.46,11.42-8.29,19.92-10.95,18.27-4,29.32-4q22.45,0,37.13,6.19t19.22,15.36q4.58,9.22,4.58,28.67v13.21h-51V429.36c0-7-.54-11.4-1.6-13.14s-3.47-2.62-7.13-2.62q-6.21,0-7.89,3.17c-1.12,2.14-1.69,6.7-1.69,13.73V495c0,6.76.57,11.15,1.69,13.23s3.63,3.08,7.5,3.08,6.23-1,7.38-3.11,1.74-6.91,1.74-14.55V476.15h51v5.42q0,21.6-4.3,30.63c-2.84,6-9.2,11.3-19,15.83s-21.86,6.8-36.21,6.8q-22.34,0-36.88-5.74c-9.66-3.83-16.1-9.14-19.22-15.93s-4.7-17-4.7-30.6Zm-110-49.11h73.63l29.13,139H521L518.2,506.9H499.84l-2.76,24.94H444.41Zm-194.6,0H313.7q36.81,0,49.83,2.4c8.66,1.61,15.26,4.24,19.75,7.9s7.35,7.73,8.45,12.21,1.7,13.33,1.7,26.51v48.65q0,18.72-2.47,25a19.44,19.44,0,0,1-8.63,9.9,44.61,44.61,0,0,1-15.26,5q-9,1.39-27.3,1.4H275.62Zm-124.23,0h51.28c13.85,0,24.49.75,32,2.31s13,3.78,16.8,6.67A22,22,0,0,1,259,412.47q2,6.22,2,19.26v12.09c0,8.85-1.28,15.32-3.87,19.36s-7.31,7.21-14.15,9.37-15.88,3.25-27,3.25H202.38v56h-51Z"/><path class="cls-2" d="M733.75,611.74c-5.15,2.81-3.54,18.08-2,24.07.92,3.67,2.28,7.34,3,11.24s.87,9,2.26,12.15l4.58.09c3-9.17-3.15-22.49-3.39-39.13C738.11,616.64,738.87,608.94,733.75,611.74Z"/><polygon class="cls-3" points="872.55 473.51 887.39 473.51 887.39 531.84 938.37 531.84 938.37 392.88 887.39 392.88 887.39 442.6 872.55 442.6 872.55 392.88 821.56 392.88 821.56 531.84 872.55 531.84 872.55 473.51"/><polygon class="cls-3" points="807.09 504.08 769.72 504.08 769.72 473.51 801.39 473.51 801.39 447.16 769.72 447.16 769.72 420.64 803.62 420.64 803.62 392.88 718.73 392.88 718.73 531.84 807.09 531.84 807.09 504.08"/><path class="cls-3" d="M604.15,529.09q14.55,5.76,36.88,5.74c14.35,0,26.39-2.25,36.21-6.8s16.13-9.8,19-15.83,4.3-16.23,4.3-30.63v-5.42h-51v17.48c0,7.64-.58,12.5-1.74,14.55s-3.62,3.11-7.39,3.11-6.38-1-7.49-3.08-1.69-6.47-1.69-13.23V430.5c0-7,.57-11.59,1.69-13.73s3.75-3.17,7.88-3.17c3.66,0,6.05.89,7.13,2.62s1.61,6.11,1.61,13.14v24.13h51V440.28q0-19.45-4.59-28.67T676.7,396.25Q662,390,639.58,390.06q-16.58,0-29.33,4T590.33,405c-4.82,4.62-7.67,9.46-8.66,14.46S580.22,432,580.22,442v40.57q0,20.42,4.7,30.6C588.05,520,594.49,525.26,604.15,529.09Z"/><path class="cls-3" d="M391.73,415.39c-1.1-4.48-4-8.55-8.45-12.21s-11.09-6.29-19.75-7.9-25.29-2.4-49.83-2.4H275.62v139h64.15q18.25,0,27.3-1.4a44.61,44.61,0,0,0,15.26-5,19.44,19.44,0,0,0,8.63-9.9q2.48-6.27,2.47-25V441.9C393.43,428.72,392.85,419.9,391.73,415.39Zm-49.28,72.53q0,13.92-2.52,17.07c-1.65,2.08-6.11,3.13-13.31,3.13V416.6c5.47,0,9.18.4,11.17,1.25a6.15,6.15,0,0,1,3.83,3.89c.54,1.79.83,5.83.83,12.13Z"/><path class="cls-3" d="M543.85,392.88H470.22l-25.81,139h52.67l2.76-24.94H518.2L521,531.84h52Zm-44.3,89.41q2-18.48,9.58-58.53,4.06,34.94,7.71,58.53Z"/><path class="cls-3" d="M259,412.47a22,22,0,0,0-7.62-10.61q-5.64-4.33-16.8-6.67c-7.46-1.56-18.1-2.31-32-2.31H151.39v139h51v-56H216q16.64,0,27-3.25c6.84-2.16,11.59-5.3,14.15-9.37S261,452.67,261,443.82V431.73Q261,418.68,259,412.47Zm-40.59,27q0,7.74-2.68,10.16c-1.81,1.64-5,2.47-9.69,2.47-1,0-2.27,0-3.7-.1V416.6c6.55,0,10.88.69,12.94,2.13s3.13,4.54,3.13,9.28Z"/><polygon points="178.94 613.38 178.94 613.38 178.94 613.37 178.94 613.38 178.94 613.38"/><path d="M396.81,661.74c5.66-2.84,29.49-.42,37.44,1.56,6.15,1.13,8.81,1.27,17.86.47,11.13-3.19,26.14-.29,37.87,1.07,98.48,11.42,209.78,15.52,307.93-3,22.87-4.31,45-10.24,65.11-18.09,11.32-4.42,47.51-21.47,53.25-29.3l2.59-1.14h0c-.13-.07,0-.43,0-.63h0l0-.05c-.07-.11-.27-.12-.73.09-.14.07-.31.15-.51.27l-.53.29-.13.06c.08-.22,0-.31-.07-.33-.44-.1-2.16,1.51.06.34a4.78,4.78,0,0,1-.62,1.11h0c-1.81.27-21.27,10.53-25.77,12.57-9,4.08-18.67,7.83-28.39,11.31a424.18,424.18,0,0,1-62.63,16.82c-107.64,20.76-222,11.06-330.06-2.37-11.64-1.46-6.37-1.27-13.22-6.19-10.83-7.76-21.95-3.56-33.27-6.43-5.08-1.28-10.31-3-15.83-4.49-12.28-3.23-7.13-16.09,10.56-12.86,95.75,17.52,190,27.79,290.33,22.53,94.2-4.94,143.22-15.44,223.26-54,6.87-3.31,21.25-11.86,26-13.7h0l.35.34.09.09c-1.78,7-11.19,21.28-14.79,26.36-42.27,59.62-131.66,79.17-202.35,87.78-101.59,12.38-206.64,2.64-306.06-13.36-10.84-1.74-24.86-3.35-35.26-5.93C393,671.42,391.91,664.21,396.81,661.74Z"/><path d="M175.22,620.51c5.73,1.1,8.59,15.5,14.89,19.42,7,4.37,13.36,0,16.76-4.19,4.59,1.63,6.22,3.08,11.06,0,3.1-2,.89-1.74,5.91-1.07,19.84,2.67,19.21-4.4,24.93-9,2.47,3.72,5.79,11,12.56,10,4.93-.77,9.64-7.39,9.86-13.14.17-4.19-.5-7.57,0-12s2.46-17.79-1.13-20.46c-2.22-1.64-6.16-1.52-8.88-.14-3.86,1.94-2.61,4.89-5.49,6.56-3.61,2.06-5.69-.66-8.37-1.66-4.5-1.67-6.21,1-8.94-.14-2.26-1-3.56-2.61-7.37-3.77-1.29-.39-3.59-.79-4.63-1.24-2.89-1.28-.91-1-3.6-2.6-3.56-2.08-4.85.27-8.44.39-3.81.14-5.63-2.9-9.37-2.06-2.63.6-4.52,3.22-7.32,3.89-9.81,2.34-12-4.57-14.87,8.39-2.48,11.23-9,9.75-13.39,9.6-7.32-.28-15.16-.48-22.53-.48-4,0-6.76.56-8,4C133.23,626.11,165.39,618.65,175.22,620.51Zm76.47-12.61c3.53-1.8,8.75,2,10,4.63,1.67,3.34,1.14,11.18-1.68,13-4.71,2.94-3.21-4.8-6.71-7.54-2.34-1.83-3.29-1.18-3.74-4.62C249.23,610.6,250.09,608.72,251.69,607.9ZM212.61,601c4.74,4.1,3-1,9.16-.85,2.58,2.72,1.08,3.75,4.59,6.14,5.08-.54,3.17-3.4,6.91-3.93,3.07-.44,5.08,2.33,5.92,4.91,2.09,6.46.32,14-6.7,13.33-2.19-2-2.87-4.33-4.43-6.46-6.89-.58-3.4,2.5-9.19,2.41-2.39-2.48-1.53-4.17-3.81-6.67-5.33-.14-5.39,4.83-9.52,2.69C199,609.16,204,593.54,212.61,601Zm-27.79,11.35c.68-1.77,2.33-4,4.64-3.27,2.87.84.83,2.2,2,6.25,1.54,5.54,5.93,4.61,8.29,7.82C196.78,631.24,180.53,623.4,184.82,612.37Z"/><path d="M204.7,647c.79,5.81,31.62,28.85,40.82,33.43a161.43,161.43,0,0,0,70.78,16.6c19.21,0,34.94-8.89,42.23-19.65,8-11.77,15.31-28.69,15.31-46.74,0-15.47-2.9-14.86-6.28-27.26-1.18-4.32-2-8.32-3.41-12.4-1.65-4.74-2.72-7.75-8.84-6.6-5.55,5.65-3.48,23.63-4,33.56-.67,13.76-2.25,18.69-5.79,30.71-4,13.6,6.39,20.88-3.9,28.33a49.33,49.33,0,0,1-27.58,8.83c-29.83.63-74.25-12.38-94.39-35-2-2.24-5.85-7.38-9.06-8.92C207.19,641.87,204.18,643.16,204.7,647Zm153-26.86c.05-3.52-.71-11.22,4.41-8.42s3.54,18.08,2,24.07c-.92,3.67-2.28,7.34-3,11.24s-.88,9-2.26,12.15l-4.58.09C351.29,650.12,357.44,636.8,357.68,620.16Z"/><path d="M382.9,602.9c.44-6,6.56-9.63,12.4-6.27,4.08,2.36,8.42,5.33,12.44,7.8,2.08,1.27,4.51,2.17,5.63,4.15,1.68,2.95.86,5.56-1.47,6.73-5.32,2.67-9.24-1.89-15.82,4.45-4.34,4.17-5.5,9.47-.91,14.47,13.77,15,50.84,4.83,59,25l-1.32,0c-11,.13-16,1-27.31-.82-10.71-1.75-45.26-8.05-41.83,11.83,1.7,9.91,15.78,8,15.67,14.33-.12,7-25.11,9.72-30.06,3.18-3.4-4.48,4.07-18.33,7.1-30.71C383.72,627.39,381.15,626.77,382.9,602.9Z"/><path d="M306.08,607.35c4.41,7.11.44,17.79-3.19,17.08-2.88-.59-1.53-3.56-2.16-6.64-4.16-.63-3.75,2.56-6.92,4.75-7.41.09-3.8-7.12-16.31-5.25-2.78,13.21,4.79,19.53,16.57,22.94,13.84,4,20.66,4.41,34.22-.3,2.47,2.1,2,5,6.2,6.36A8.73,8.73,0,0,0,344.4,643c3.69-5-.07-6.4-.21-10.95-.22-7,9.94-7.15.49-14.66l.22-7.25c-10.45-7.68-16.42,1.21-16.41,4.61,3.1.44,3.75-1,6.11.14-1.48,4.91-10.49,5.45-15.53,10.26-2.65,2.53-1.62,4-5.4,2.88-.44-11.19,17.05-6.67,8.89-21.62-2.09.85-.93.34-2.23,2-1.68,2.16-2.06,4.22-7.9,4.38,4.41-13.31-5.85-20.13-13.57-7.86-2,3.17-5,3.83-7.95,1.71.37-5.81,7.2-1.22,3-13.71-10,.93-5.8,4.94-9.11,10.66-8.52-1.37,1.21-9.91-5.86-15.57-4.84,3.46-3.25,10.63-2,16,.78,3.53-.92,6.7.33,8,2.48,2.65,3.2-2,6.79-1.17,3.82,2.16.37,3.46,5.26,5.09,2.48-1.62,2.39-2.64,3.68-4.79l7.15,1.22C303.3,608.72,300.35,607.4,306.08,607.35Zm24.39,18.76c.35-3.62,2.6-.48,7.18-6.34,2.29-2.93.08-2.27,3.37-2.46,4.18,5.16-5.65,12-10,10.62C330.6,627.09,330.15,629.37,330.47,626.11Z"/><path d="M325.07,667.92c5.86-2,8.18-5.9,13.95-3.08,4.06,12.27-20.23,14-27.22,14-33.29,0-59.5-14-84.92-32.24-3.33-2.39-3.15-3.19-1.32-6.9,3.48-.58,4.47.47,6.9,2.11,22.92,15.38,47,28.85,76.35,28.69A50.06,50.06,0,0,0,325.07,667.92Z"/><path d="M178.94,613.38h0c2.23,1.17.51-.44.07-.34C178.91,613.06,178.87,613.16,178.94,613.38Z"/><path d="M179.57,614.49a5.4,5.4,0,0,1-.63-1.11h0l-.13-.07-.53-.29c-.2-.12-.37-.2-.51-.27-.46-.2-.66-.2-.73-.09l0,.05h0c-.06.2.1.56,0,.63h0l2.58,1.14Z"/><polygon points="138.63 577.66 137.05 576.67 138.2 578.09 138.29 578 138.64 577.66 138.63 577.66"/></g></g></svg>