<svg xmlns="http://www.w3.org/2000/svg" viewBox="0 0 1080 1080"><defs><style>.cls-1,.cls-5{fill:#fcfcfc;}.cls-2{fill:#c42127;}.cls-2,.cls-4,.cls-5,.cls-6,.cls-7{fill-rule:evenodd;}.cls-3{fill:#bb2026;}.cls-4{fill:#253e80;}.cls-6{fill:#cfd1d2;}.cls-7{fill:#909295;}</style></defs><g id="logo-Perindo"><rect id="background" class="cls-1" width="1080" height="1080"/><g id="symbol"><path id="Vector" class="cls-2" d="M523.81,492.88h0c-42.58-37-95.89-56-158.68-61C251.53,422.94,210,387.16,144,332.23Q163.33,430.72,251.17,482q-46.69-21.2-73.7-60.11,15.28,84.52,102,135.78A181.94,181.94,0,0,1,224.34,521q18.24,56.89,86.58,97.68c-17.89-8.23-33.45-18.07-46.51-29.52,19.68,43.65,61,75.32,123.62,94.64-26.84-5.91-53.85-17.89-80.68-35.78q104.39,121.29,293.92,95.17-12.62-61.45-62.61-100c-5.19-3.94-10.74-7.88-16.46-11.45l-.36-.18c-.89-.54-2-1.25-2.86-1.79l-.54-.36a25.78,25.78,0,0,1-2.86-1.79l-.36-.18c-.89-.53-1.79-1.07-2.86-1.61l-.89-.53c-.9-.54-1.79-.9-2.51-1.43l-.89-.54c-.9-.54-1.79-.9-2.51-1.43l-1.25-.54c-.72-.36-1.61-.89-2.33-1.25-.53-.18-.89-.54-1.43-.72-.71-.35-1.43-.71-2.32-1.07l-2.15-1.07-1.61-.72c-.71-.36-1.43-.71-2.32-1.07l-1.44-.72c-.71-.36-1.61-.71-2.32-1.07l-1.43-.72c-.9-.36-1.61-.71-2.51-1.07l-1.43-.54-2.68-1.07-1.43-.54c-.9-.36-2-.71-2.87-1.07l-1.25-.54c-.89-.36-2-.71-2.86-1.07l-1.43-.54c-1.07-.36-2-.71-3-1.07l-1.08-.36A25.79,25.79,0,0,1,463,603.8l-.9-.36a28.79,28.79,0,0,1-3.58-1.25l-.71-.18c-1.26-.36-2.33-.72-3.58-1.07l-.9-.18-3.75-1.08-.72-.17-3.75-1.08-.9-.18-3.76-1.07-.89-.18c-1.25-.36-2.5-.71-3.94-1.07l-.89-.18c-1.43-.36-2.68-.72-4.11-1.07l-.54-.18c-1.43-.36-3-.72-4.47-1.08h-.36c-1.61-.35-3-.71-4.65-1.07h-.18c-1.61-.36-3.22-.72-5-1.07,28.09-49.74,68.16-81.76,107.87-98.58Z"/><path id="Vector-2" data-name="Vector" class="cls-3" d="M602.17,742.62c.18.18.18.18.18.36a4.47,4.47,0,0,1-1.44.18c-11.45-11.63-31.48-21.65-59.93-29.88q-43.2-12.6-112.34-19.85c-.36,0-.72-.36-.54-.72a.54.54,0,0,1,.72-.54Q498,699.42,541.34,712C570.32,720.44,590.54,730.64,602.17,742.62Z"/><path id="Vector-3" data-name="Vector" class="cls-3" d="M602.17,742.8V743a3.94,3.94,0,0,1-1.43.18c-32.38-57.61-96.43-73-217.54-102.15-11.81-2.86-24.33-5.9-37.21-9-.36,0-.54-.53-.54-.89s.54-.54.89-.54c13.06,3.22,25.41,6.26,37.22,9,121.64,29.34,185.87,44.9,218.43,103Z"/><path id="Vector-4" data-name="Vector" class="cls-3" d="M416.11,590.74a.74.74,0,1,1-.35,1.43c-16.82-4.29-32.38-8-46.7-11.09s-27.55-5.55-39.53-7.34c-.36,0-.54-.35-.54-.71s.36-.54.72-.54c12,1.79,25.22,4.3,39.71,7.34s30.06,6.8,46.87,11.09Z"/><path id="Vector-5" data-name="Vector" class="cls-3" d="M417.55,540.47a.68.68,0,0,1-.54,1.25,587.79,587.79,0,0,0-57.07-21.82,626.2,626.2,0,0,0-60.64-16.28c-.36,0-.54-.36-.54-.72s.36-.54.71-.54c20.76,4.48,41,10,60.65,16.28a587.84,587.84,0,0,1,57.07,21.83Z"/><path id="Vector-6" data-name="Vector" class="cls-4" d="M571.75,480.72l-.17.36c37.56-3.22,71.73,6.26,79.78,18.42q-37,5.37-39.71,9.66c22.18-1.79,18.6,5.19,25,5.73,9.13.71,15.39,0,20.22-10.38,30.23,5,45.8,19.5,46.51,43.47-21.82-16.46-48.12-2.5-62.79,4.65h0Q580,606.84,601.45,743.16q129.07-26.29,183.37-112.53c-23.08,21.47-46.33,35.6-70,42.58,54.92-27.91,88.2-59.39,103.22-91.77a233,233,0,0,1-58.49,38.28c51-31.84,77.64-60.29,100.53-109.66q-24.95,28.44-68,49.73c57.43-32.56,95.54-82.47,114.5-150.27q-37.85,53.94-94.1,78.89,95-51.53,123.44-156C826.32,428.84,784.1,421.33,677.48,436c-37,5-81.4,24-105.9,44.91Z"/><path id="Vector-7" data-name="Vector" class="cls-5" d="M539,643h0q-45.88-35.43-123.08-51.7c29.33-52.06,71.91-84.62,113.42-100.72,50.62-19.68,111.09-8.05,122.18,8.94q-37,5.37-39.71,9.66c22.18-1.79,18.6,5.19,25,5.73,9.13.71,15.39,0,20.22-10.38,30.23,5,45.8,19.5,46.51,43.47-21.82-16.46-48.12-2.5-62.79,4.65C604.13,567.48,561.74,600.22,539,643Z"/><path id="Vector-8" data-name="Vector" class="cls-6" d="M640.63,552.63c-42,20.22-68.88,67.27-73,118.25h0a177,177,0,0,0-28.8-27.72h0c22.72-42.76,65.12-75.5,101.79-90.35Z"/><path id="Vector-9" data-name="Vector" class="cls-7" d="M601.63,743c-14.31-90.88-1.43-154.39,39.18-190.52-42,20.21-68.88,67.26-73,118.25h0C584.81,691.28,596.08,715.43,601.63,743Z"/></g></g></svg>