<svg xmlns="http://www.w3.org/2000/svg" viewBox="0 0 1080 1080"><defs><style>.cls-1{fill:#fcfcfc;}.cls-2{fill:#fe5000;}</style></defs><g id="logo-PKS"><rect id="background" class="cls-1" width="1080" height="1080"/><path id="symbol" class="cls-2" d="M540,144C321.3,144,144,321.3,144,540S321.3,936,540,936,936,758.7,936,540,758.7,144,540,144ZM305,700.58a161.3,161.3,0,0,1-35.54-4,160.63,160.63,0,0,0,0-313.26A160.59,160.59,0,1,1,305,700.58Zm230.58,22.36s-8-6-25.39-23.43-14-41.19-14-41.19S509.3,669,524.57,684.24,535.58,722.94,535.58,722.94Zm0-40.47s-8-6-25.39-23.44-14-41.19-14-41.19,13.14,10.66,28.41,25.92S535.58,682.47,535.58,682.47Zm0-40.48s-8-6-25.39-23.44-14-41.18-14-41.18S509.3,588,524.57,603.29,535.58,642,535.58,642Zm0-40.48s-8-6-25.39-23.43-14-41.19-14-41.19,13.14,10.65,28.41,25.92S535.58,601.51,535.58,601.51Zm0-40.47s-8-6-25.39-23.44-14-41.19-14-41.19,13.14,10.66,28.41,25.92S535.58,561,535.58,561Zm0-40.48s-8-6-25.39-23.44-14-41.18-14-41.18,13.14,10.65,28.41,25.92S535.58,520.56,535.58,520.56Zm0-40.48s-8-6-25.39-23.43-14-41.19-14-41.19,13.14,10.65,28.41,25.92S535.58,480.08,535.58,480.08Zm0-40.48s-8-6-25.39-23.43-14-41.19-14-41.19,13.14,10.66,28.41,25.92S535.58,439.6,535.58,439.6ZM540,407.87c-5.59-8.12-9.11-20.16-9.11-33.62s3.52-25.5,9.11-33.61c5.59,8.11,9.11,20.16,9.11,33.61S545.59,399.75,540,407.87Zm15.43,33.51c15.27-15.27,28.41-25.92,28.41-25.92s3.37,23.79-14,41.19C561,465.42,554.66,471.3,550.49,475v13.07a35.4,35.4,0,0,1,4.94-6.19c15.27-15.27,28.41-25.92,28.41-25.92s3.37,23.79-14,41.18c-8.77,8.78-15.15,14.66-19.32,18.34v13.06a36.16,36.16,0,0,1,4.94-6.19c15.27-15.26,28.41-25.92,28.41-25.92s3.37,23.79-14,41.19c-8.77,8.78-15.15,14.66-19.32,18.34V569a35.78,35.78,0,0,1,4.94-6.19c15.27-15.27,28.41-25.92,28.41-25.92s3.37,23.79-14,41.19c-8.77,8.77-15.15,14.65-19.32,18.33v13.07a35.78,35.78,0,0,1,4.94-6.19c15.27-15.27,28.41-25.92,28.41-25.92s3.37,23.79-14,41.18c-8.77,8.78-15.15,14.66-19.32,18.34V650a36.16,36.16,0,0,1,4.94-6.19c15.27-15.26,28.41-25.92,28.41-25.92s3.37,23.79-14,41.19c-8.77,8.78-15.15,14.66-19.32,18.34v13.06a35.78,35.78,0,0,1,4.94-6.19c15.27-15.27,28.41-25.92,28.41-25.92s3.37,23.79-14,41.19c-8.77,8.77-15.15,14.66-19.32,18.33v21.52h-6.61v-308h0c.1-8.2,2-20.94,11.55-30.48C570.7,385.64,583.84,375,583.84,375s3.37,23.79-14,41.19C561,425,554.66,430.83,550.49,434.5v13.07A35.78,35.78,0,0,1,555.43,441.38ZM810.54,696.63a160.58,160.58,0,1,1,0-313.26,160.63,160.63,0,0,0,0,313.26Z"/></g></svg>