<svg xmlns="http://www.w3.org/2000/svg" viewBox="0 0 1080 1080"><defs><style>.cls-1{fill:#fd7038;}.cls-2{fill:#fcfcfc;}</style></defs><g id="logo-PNA"><rect id="background" class="cls-1" width="1080" height="1080"/><g id="symbol"><path id="Vector" class="cls-2" d="M804.71,552.52c-6.57,176.71-151.91,318-330.23,318C292,870.47,144,722.51,144,540S292,209.53,474.48,209.53a329.36,329.36,0,0,1,136.76,29.54,255.77,255.77,0,0,0-52.66-5.46C418.09,233.61,304.21,347.5,304.21,488S418.09,742.38,558.58,742.38C676.78,742.38,776.15,661.77,804.71,552.52Z"/><polygon id="Vector-2" data-name="Vector" class="cls-2" points="756.47 312.02 839.15 213.6 816.83 340.19 935.99 388.41 808.7 406.3 799.65 534.53 743.3 419 618.56 450.02 711.02 360.73 642.97 251.67 756.47 312.02"/></g></g></svg>