<svg xmlns="http://www.w3.org/2000/svg" viewBox="0 0 1080 1080"><defs><style>.cls-1{fill:#e62129;}.cls-2,.cls-3{fill:#fcfcfc;}.cls-3{fill-rule:evenodd;}</style></defs><g id="logo-PSI"><rect id="background" class="cls-1" width="1080" height="1080"/><g id="symbol"><g id="Label"><path id="Vector" class="cls-2" d="M179,274.53Q154.17,252,102,252H0V511.42H79.31V431.08h32.82q5,0,14.3-.72,26-2.5,42.91-12.71a64,64,0,0,0,25.59-28.93c5.8-12.63,8.74-28.05,8.9-46.09Q203.83,297.1,179,274.53Zm-58.57,76.29c-3.73,10.25-12.55,15.33-26.46,15.33H79.31V317H94.65c8.66,0,15.49,2.07,20.42,6.2s7.39,9.62,7.39,16.69A37,37,0,0,1,120.39,350.82Z"/><path id="Vector-2" data-name="Vector" class="cls-2" d="M317.39,445.38a15.78,15.78,0,0,0,4.13-10.65,12,12,0,0,0-7.07-11.44,24.87,24.87,0,0,1-2.86-1.35c-.8-.4-1.67-.8-2.78-1.27-1-.4-2.47-.88-4.29-1.59l-19-5.41a170.47,170.47,0,0,1-28.84-10.88,73.74,73.74,0,0,1-19.71-14,76.86,76.86,0,0,1-13.11-18.67c-5.25-9.94-7.87-21.22-7.87-33.62,0-18.19,5.64-35.28,17.09-51.25a79.58,79.58,0,0,1,20.66-20.66,98.75,98.75,0,0,1,28.68-13.27,131.17,131.17,0,0,1,36-4.69c3,0,7.63.23,14,.71a196.05,196.05,0,0,1,24.87,4.29,144.53,144.53,0,0,1,38.46,15.74l-24.15,63.17a65.56,65.56,0,0,0-7.16-4.69Q339,310.13,319.85,310.13a33.06,33.06,0,0,0-9.22,1.11,16.94,16.94,0,0,0-8.5,5.49,12.31,12.31,0,0,0-3.1,8,11.21,11.21,0,0,0,2.31,6.44,20.28,20.28,0,0,0,8.58,7.55c3.58,1.75,11.13,4.13,22.81,7.15,1.74.4,3.33.87,4.84,1.35s3.42,1.11,5.73,1.75c19.23,6.52,33.61,15.81,43.3,28s14.55,27.1,14.55,44.9A123.79,123.79,0,0,1,398.37,446q-6.57,31.83-33.14,51.73-26.58,19.66-65.8,19.71a142,142,0,0,1-17.08-1.11,139,139,0,0,1-53.17-16.85,114.18,114.18,0,0,1-15.57-10.57c-.64-.48-1.51-1.19-2.63-2.07s-2.22-1.67-3.17-2.38l20.74-68a135.41,135.41,0,0,0,24.23,21.05c13,8.35,23.84,13.2,32.74,14.63a62.21,62.21,0,0,0,11.13,1C305.63,453.17,312.54,450.55,317.39,445.38Z"/><rect id="Vector-3" data-name="Vector" class="cls-2" x="418.63" y="251.96" width="79.63" height="259.46"/></g><path id="Vector-4" data-name="Vector" class="cls-2" d="M764.55,1004c-37,15.1-56.5,23.6-113.24,41.64-24.24,2.94-57.3.72-87-.71-12.63,9.45-22.81,23.76-37.19,35H0V964.69c136.92-38.14,286.56-98,422.52-136.12q59.13-133,118.33-266.05,111.21.83,222.27,1.51c13.59,58.48,25,113.87,38.7,172.28-10.26,19.55-40.93,38.46-68,39.65-27.1,2.47-58.88-16-57-49.66l20.5-76c-10.73,12.15-21.46,24.39-32.19,36.55-18-.48-30.19-1.67-54-1.43,58.49,49.67-11.76,125.72-17.56,188.57,23.44-38.46,47.2-71.75,59.91-79,27-13.58,11.68,113.08,17.57,169.59C672.92,1016.43,732.68,999.5,764.55,1004Z"/><path id="Vector-5" data-name="Vector" class="cls-2" d="M731.41,901H881.2l-13.11,72.4H733.55C702.17,974.79,692.63,906.05,731.41,901Z"/><polygon id="Vector-6" data-name="Vector" class="cls-2" points="787.75 579.68 895.11 578.65 895.11 664.15 807.38 664.15 787.75 579.68"/><path id="Vector-7" data-name="Vector" class="cls-2" d="M825.89,741.79c-4.37-21.22-6.75-33.06-11.12-54.27H900.2l.71,89.16H796.49C808.41,768.81,828.28,754.66,825.89,741.79Z"/><path id="Vector-8" data-name="Vector" class="cls-2" d="M728.47,797.18l173.95.71L888.51,882H724.1C697.79,880.7,694.14,798.37,728.47,797.18Z"/><path id="Vector-9" data-name="Vector" class="cls-3" d="M619.12,326.58c26.07-63.26,63.1-105.69,139.31-149.4C557.7,131,596.16,301,619.12,326.58ZM761.05,248.3c-92.1,60.08-12.48,108.24,5.8,108.87C752.23,323.72,749.61,293.76,761.05,248.3Zm-76.37,35.21C585.19,463.89,759.3,473.43,790.06,458.33,736.42,415.9,705.82,368.69,684.68,283.51Zm8.19-149.8c68.42,1.83,121.26,21.22,189.21,76.77C853.63,6.49,708.6,103.12,692.87,133.71Zm48.55,77.64c35.21,9.93,59.92,26.94,87.81,64.69C841.39,166.69,753.58,197.6,741.42,211.35Zm132.39,49.11c-22.09,29.16-46.88,46.09-92.18,58.41C879.14,369.81,882.16,276.75,873.81,260.46Zm23.37-123.89c21.05,65.09,20.34,121.35-9.46,204C1070.57,245.84,931.19,141.18,897.18,136.57Zm64,194.06c-55,40.69-108.56,57.93-196.36,55.94C912.83,529.85,967.66,364.4,961.15,330.63Z"/></g></g></svg>