<svg xmlns="http://www.w3.org/2000/svg" viewBox="0 0 1080 1080"><defs><style>.cls-1{fill:#35a9e1;}.cls-2{fill:#e6232a;}</style></defs><g id="logo-Sira"><rect id="background" class="cls-1" width="1080" height="1080"/><g id="symbol"><path class="cls-2" d="M866.47,665.84c-51.58,143.6-189,246.3-350.31,246.3C310.63,912.14,144,745.52,144,540S310.63,167.86,516.16,167.86a370.43,370.43,0,0,1,207.6,63.24,298.81,298.81,0,0,0-112.23-21.74c-165.36,0-299.4,134-299.4,299.4s134,299.41,299.4,299.41C719.27,808.17,813.74,751.25,866.47,665.84Z"/><polygon class="cls-2" points="781.09 349.44 819.16 358.72 796.27 326.92 816.86 293.58 779.54 305.52 754.19 275.63 754.02 314.82 717.76 329.69 754.98 341.97 757.92 381.04 781.09 349.44"/><polygon class="cls-2" points="867.98 587.88 906.05 597.16 883.16 565.35 903.75 532.01 866.43 543.96 841.08 514.07 840.91 553.25 804.65 568.12 841.87 580.4 844.81 619.48 867.98 587.88"/><polygon class="cls-2" points="751.19 445.32 789.26 454.61 766.37 422.8 786.96 389.46 749.64 401.4 724.29 371.52 724.12 410.7 687.86 425.57 725.08 437.85 728.02 476.93 751.19 445.32"/><polygon class="cls-2" points="865.67 403.61 903.74 412.89 880.85 381.08 901.44 347.74 864.12 359.69 838.77 329.8 838.6 368.99 802.34 383.86 839.56 396.13 842.5 435.21 865.67 403.61"/><polygon class="cls-2" points="783.43 533.81 821.51 543.09 798.61 511.28 819.21 477.94 781.88 489.89 756.54 460 756.36 499.19 720.11 514.05 757.32 526.33 760.26 565.41 783.43 533.81"/><polygon class="cls-2" points="897.91 492.09 935.99 501.37 913.09 469.56 933.69 436.22 896.36 448.17 871.02 418.28 870.84 457.47 834.59 472.34 871.8 484.61 874.74 523.69 897.91 492.09"/></g></g></svg>