<svg xmlns="http://www.w3.org/2000/svg" viewBox="0 0 1080 1080"><defs><style>.cls-1{fill:#d8a331;}.cls-2{fill:#ffdf68;}</style></defs><g id="logo-Ummat"><rect id="background" width="1080" height="1080"/><g id="symbol"><path class="cls-1" d="M540,144H219.17V599.24c0,63.16,35.62,148,122.05,228C393.42,875.56,460.58,911,540,936c79.42-25,146.58-60.43,198.78-108.73,86.43-80,122.05-164.86,122.05-228V144ZM830.52,599.24c0,77.26-58.32,155.81-112.33,205.78C667.77,851.68,604.88,882.81,540,904.15,475.12,882.81,412.23,851.68,361.81,805c-54-50-112.33-128.52-112.33-205.78V174.32h581Z"/><path d="M249.48,174.32V599.24c0,77.26,58.32,155.81,112.33,205.78,50.42,46.66,113.31,77.79,178.19,99.13,64.88-21.34,127.77-52.47,178.19-99.13,54-50,112.33-128.52,112.33-205.78V174.32h-581Zm545,241.62L636.75,530.06l60.51,185L540,600.35h0L382.74,715.07l60.51-185L285.55,415.94l194.65.38h0L540,231.07h0l59.8,185.25h0Z"/><polygon class="cls-1" points="636.75 530.06 697.26 715.07 636.75 530.06 794.45 415.94 540 498.62 636.75 530.06"/><polygon class="cls-1" points="480.2 416.32 480.2 416.32 285.55 415.94 540 498.62 480.2 416.32"/><polygon class="cls-1" points="540 600.35 697.26 715.07 540 498.62 540 600.35"/><polygon class="cls-1" points="540 498.62 540 498.62 443.25 530.06 285.55 415.94 443.25 530.06 382.74 715.07 540 498.62 540 498.62"/><polygon class="cls-1" points="599.8 416.32 540 231.07 540 498.62 599.8 416.32"/><polygon class="cls-2" points="540 498.62 540 498.62 382.74 715.07 540 600.35 540 600.35 540 498.62 697.26 715.07 636.75 530.06 540 498.62 794.45 415.94 599.8 416.32 599.8 416.32 540 498.62"/><polygon class="cls-2" points="540 498.62 285.55 415.94 443.25 530.06 540 498.62"/><polygon class="cls-2" points="540 498.62 540 231.07 540 231.07 480.2 416.32 480.2 416.32 540 498.62 540 498.62"/></g></g></svg>