<svg xmlns="http://www.w3.org/2000/svg" viewBox="0 0 1080 1080"><defs><style>.cls-1{fill:#004d99;}.cls-2{fill:#87bfe4;}.cls-3{fill:#fcfcfc;}.cls-4{fill:#da251c;}</style></defs><g id="logo-Demokrat"><rect id="background" class="cls-1" width="1080.01" height="1080.01"/><polygon id="surface" class="cls-2" points="0 324.11 0 540 0 755.89 1080 755.89 1080 540 1080 324.11 0 324.11"/><g id="symbol"><polygon id="Vector" class="cls-3" points="540 650.58 650.88 586.42 540 192.25 540 192.25 540 650.58 540 650.58"/><polygon id="Vector-2" data-name="Vector" class="cls-4" points="540 192.25 429.12 586.42 540 650.58 540 192.25"/><polygon id="Vector-3" data-name="Vector" class="cls-4" points="935.99 879.75 650.88 586.42 540 650.58 935.99 879.75"/><polygon id="Vector-4" data-name="Vector" class="cls-3" points="935.99 879.75 540 650.58 540 650.58 540 778.91 540 778.91 935.99 879.75"/><polygon id="Vector-5" data-name="Vector" class="cls-4" points="144.01 879.75 540 778.91 540 650.58 144.01 879.75"/><polygon id="Vector-6" data-name="Vector" class="cls-3" points="540 650.58 429.12 586.42 144.01 879.75 540 650.58 540 650.58"/></g></g></svg>