<svg xmlns="http://www.w3.org/2000/svg" viewBox="0 0 1080 1080"><defs><style>.cls-1{fill:#020100;}.cls-2{fill:#de2127;}.cls-3{fill:#fcfcfc;}.cls-4{fill:#eee80f;}</style></defs><g id="logo-Gabthat"><g id="background"><rect id="Vector" class="cls-1" width="1080" height="1080"/><rect id="Vector-2" data-name="Vector" class="cls-2" y="213.64" width="1080" height="26.29"/><rect id="Vector-3" data-name="Vector" class="cls-3" y="239.93" width="1080" height="23.73"/><rect id="Vector-4" data-name="Vector" class="cls-4" y="263.66" width="1080" height="26.53"/><rect id="Vector-5" data-name="Vector" class="cls-2" y="788.31" width="1080" height="26.29"/><rect id="Vector-6" data-name="Vector" class="cls-3" y="814.61" width="1080" height="23.73"/><rect id="Vector-7" data-name="Vector" class="cls-4" y="838.34" width="1080" height="26.53"/></g><g id="symbol"><path class="cls-3" d="M185.4,423.58a18.81,18.81,0,0,1,9.22,6.25c1.71,2.27,2.33,5.05,2.82,7.8.31,1.74.51,6.7,2.5,7.46a1.59,1.59,0,0,0,1.51-.33c2.32-1.86,2.76-5.11,3.21-7.85.93-5.77.18-12,2.27-17.49a5.16,5.16,0,0,1,1.65-2.47c1.85-1.31,3.61.76,5.4,1.19a7.43,7.43,0,0,0,5.13-.65c3.39-1.8,3.87-5.59,1-8.19-5.82-5.36-16.35-3.14-18.57,7.86s-1.75,7.2-1.75,7.2-7.4-17.46-19.78-15.61v13.67C180.06,422.29,185.1,423.48,185.4,423.58Z"/><path class="cls-3" d="M452.22,435a18.81,18.81,0,0,1,9.22,6.25c1.71,2.28,2.33,5.06,2.82,7.8.31,1.74.52,6.71,2.5,7.47a1.61,1.61,0,0,0,1.52-.33c2.31-1.86,2.76-5.12,3.2-7.86.94-5.77.18-11.95,2.27-17.48a5.23,5.23,0,0,1,1.65-2.47c1.85-1.31,3.61.76,5.4,1.19a7.42,7.42,0,0,0,5.13-.65c3.39-1.8,3.87-5.59,1.05-8.19-5.82-5.36-16.35-3.14-18.57,7.85s-1.75,7.21-1.75,7.21-7.39-17.46-19.77-15.62v13.68C446.89,433.75,451.93,434.94,452.22,435Z"/><path class="cls-3" d="M181.84,579.94c17.85-.8,35.14-6.25,51.39-13.43,14.15-6.25,28.32-14.86,36.37-28.54.29-.5,3.41-8.25,3.44-8.25,22.91-2.47,32.77-27.84,32.77-27.84-1.51,3.9,4.66,10.38,7,12.41,11.89,10.29,30.83,14,46.07,11.77,20.24-2.91,27.77-28.4,19.23-45.49C375.9,476.13,364.94,452,364.94,452c9.11,5.29,8.62-2.59,8-4.44s-19.71-25.25-22.91-25-9.73,11.09-10.35,15.28,27.1,63.81,27.1,63.81c-17.24,5.67-31.41,2.59-40.4-3.82s-10.47-35.35-12.69-44.35-11-27.84-13.3-27.62-7.52,12.35-8.63,15.55,8.75,19.71,9.37,41-23.78,27.23-23.78,27.23L275.5,447.8l5.55,2c5.54,2-4.81-24.88-7.89-27s-15.27,9.36-15.27,9.36L260.11,509c-5.79.74-11.58-.37-17.87-8.37s-.74-30.8,3.08-46.08-3.82-17.74-15.89-7.26-21.06,37.94-25.37,52-11.09,26.49-24,13.06-9.76-51.49-9.76-51.49l-7.39.61c-.12,6.28-2.34,33.39.37,43.49,2.1,7.81,5.61,15.59,11.64,21.16,6.86,6.33,21.38,12.4,29.39,4.83,2.54-2.4,3.95-5.75,4.87-9.11,4.17-15.19,5.84-31.39,13.26-45.5,2.19-4.16,5.11-8.27,9.45-10.09-3.33,15.37-11.69,42.83.9,55.74,4.3,4.41,10.26,7,16.11,8.64.68.19,8.19,2.4,8.62,1.67-2.88,4.88-8.65,8.75-13.09,12-21.54,15.93-48,24.36-73.84,14.42-8.6-3.3-15.71-7-14.18-17.34.45-3,2.4-12,5.39-13.79-15.64,9.12-16.5,20.82-17.61,30.06a19.91,19.91,0,0,0-.15,3.62C145,579.12,168.52,580.53,181.84,579.94Z"/><path class="cls-3" d="M404.85,513.7l1.85-10.9c1.85-10.9-3.51-62.82-3.51-62.82l7.76,3.14S399.49,421.5,398,420s-13.3,10.16-14.41,14.41,9.61,98.12,9.61,98.12C402.45,528.67,404.85,513.7,404.85,513.7Z"/><path class="cls-3" d="M540.64,438.17c2.68-.14,5.13-1.94,6.78-3.95a38.19,38.19,0,0,0,2.42-3.3c2.39,1.33,5.34,2.29,8,1.29,3.19-1.18,4.8-4.59,6-7.56a19.25,19.25,0,0,0,1.37-10.35c-.28-1.51-2.26-4.83-4.08-3a2.44,2.44,0,0,0-.57,1.09c-.46,1.58-.46,3.2-1,4.77a17.11,17.11,0,0,1-2.28,4.28c-.65.89-1.52,2.06-2.77,2-2.23-.17-3.44-3.64-4.08-5.36a.84.84,0,0,0-1.35-.34,2.11,2.11,0,0,0-.48.94,23.51,23.51,0,0,1-4.59,7.65c-1.24,1.44-4.16,4.38-5.47,1.4s-.29-5.85-.63-8.8a6,6,0,0,0-.11-.72c-.13-.67-.51-1.61-1.36-1.44s-1.59,1.68-1.93,2.42a18.47,18.47,0,0,0-1.51,6,34.74,34.74,0,0,0-.34,6.11A7.6,7.6,0,0,0,540.64,438.17Z"/><path class="cls-3" d="M712.14,583.73l-104,.19,41.76-21.25c.36,4.62,5.91,10,5.73,3.88s7-9.61,7-9.61c26-6.65,21.43-20.88,21.43-20.88s-11.45-6.47-18.66-10.16-23.1-8.5-31.79,0,3.89,24,3.89,24q-8.31,5.55-16.76,10.89c-5.52,3.51-11.11,7.16-16.86,10.39-5.5,3.09-11.65,5.39-16.31,9.76a36.07,36.07,0,0,0-8.7,13c-6.37-24.36-15.67-46.11-29.54-67.15-1.38-2.09-1.83-3.41-2.92-3.84a1.56,1.56,0,0,1,.2-.16,48.08,48.08,0,0,0,11-14.61,61.51,61.51,0,0,0,2.55-5.68c.12-.31,1-1.9.8-2.22,3,6,5.9,13.08,10.92,17.74,3.35,3.12,8.34,4,12.67,4.84,11.58,2.4,27.13,2.39,32.9-10.1,5.85-12.66,2.47-29.36-3.37-41.31-3.79-7.76-8.68-20.88-8.68-20.88,8.31,4.71,6.1-2.59,5-4.34S599.51,431,596.47,427s-5.27-6.56-6.75-5.54-3.88,5.91-5.73,11c-1.16,3.2,0,7,1,10.11,1.86,4.65,3.91,9.25,5.71,13.93a253.39,253.39,0,0,0,12,27,101.89,101.89,0,0,1,4.75,10.09c.68,1.71,2.61,5.52,1.47,7.36-1.66,2.68-13.67,4.35-20.33,2.77a22.73,22.73,0,0,1-12.28-8.09c-2.36-3-3.41-6.86-5.1-10.27a51.21,51.21,0,0,1-2.75-7.19,259.76,259.76,0,0,1-7-28.59l-2.22-5.82c-2.21-5.82-6.56-8.13-7.94-7.2s-6,10.35-6,15c0,5.56,4.27,10.66,6.29,15.63,3,7.46,5,15.76,2.31,23.64a28.17,28.17,0,0,1-16.44,17.08c-10.67,4.11-23.54,1.68-28.74-9.39-4.47-9.54-4.1-21.21-2.83-31.42.49-4,1.79-7.91,2.18-11.84,0,0,0,0,.55-5.64s-1.2-8.4-4.89-9.14-8.23,3.69-14.89,13.95c-3.54,5.45-5.09,12.43-6.63,18.66-1.58,6.43-2.85,12.93-4,19.45-1.09,6.09-1.37,13.07-4.22,18.6-1.22,2.37-4.36,6.71-7.42,6.15-2.07-.37-3.83-2.51-5.06-4-4.37-5.44-7.35-12.3-9.27-19-3.44-12-3-23.22-3.29-27.29s.23-9-4-9-3.65,5.86-3.65,5.86,2.17,32.8,3.37,39.08c.22,1.18.46,2.35.73,3.52,2.77,12.09,9.8,25,23.46,26.6a10.56,10.56,0,0,0,6.15-1c4.17-2.08,6.1-7.12,7.26-11.32a148.58,148.58,0,0,0,3.62-17.08c.94-6.19,1.65-12.28,3.29-18.35a53.66,53.66,0,0,1,6.12-15,18.45,18.45,0,0,1,2.21-2.93c.13-.14.8-.61.84-.8-1.76,9.24-2.77,31.32-.74,42.6A24.68,24.68,0,0,0,504,522c7.89,8.15,21.12,10,32.06,6.54,10.27,19.5,20.51,39,29.37,59.2,1.21,2.75,2.42,5.74,1.8,8.68a14.44,14.44,0,0,1-3,5.48,178,178,0,0,1-25.34,26.93c-10.56,9-28.41,23.88-42.94,15.35a123.69,123.69,0,0,0,21.2-13.07c43.85-34,31.78-40.65,29.81-48.78s-19-22.67-19-22.67l7.39-2s-25.38-20.2-26.86-20.2-3.69,7.14-1,15.77,31.65,38.92,31.65,38.92-74,49-137,72.56c0,0,43.05.22,82.81-15.71,7.54,12.28,20.33,19.09,34.76,14,15-5.28,26.38-18,36.66-29.53,6.31-7.07,12.69-14.42,16-23.29-1.49,4,3.67,14.3,5.35,17.9a48.45,48.45,0,0,0,11,15.56c7.25,6.49,16.41,10.67,25.72,13.23,2.93.8,29.25,4.36,29.29,4.61q-1.59-9.46-3.2-18.94c-.11-.68-5.09-1.74-9.86-2.63h0l-.9-.39a101.74,101.74,0,0,1-19.53-11.46c54.14-23.1,84.45-24.57,95-30.12S715.83,583.73,712.14,583.73Zm-71-46.93c3.32.25,15.64,5.05,15.64,5.05l-12.25,4.62C637.92,540.87,637.79,536.55,641.12,536.8Zm-34.49,80c-6.32,3.11-6.23,9-4.35,14.44-11.25-6.35-17.17-17.2-21-29,14.15.29,59.18-.24,59.18-.24S620.12,610.16,606.63,616.81Z"/><path class="cls-3" d="M406.94,633.07c10.84-.37,14.91-16.81,5.3-10.35S390.07,620,390.07,620a30.3,30.3,0,0,1-9.61,8.5c-6.1,3.33-12.2-.37-17.93,2.22s-21.43,16.81-35.84,23.47S295.27,663,295.27,663c.35.22.7.44,1.06.65a27.69,27.69,0,0,0,11.78,3.47c8.33.69,16.94-1.1,24.95-3.29,7.31-2,14.7-5.06,19.9-10.78,3.06-3.37,4.43-7.44,6.06-11.58,2.71-6.87,11.83-8.53,18.11-6.93s11.46,0,15.4-1.6S396.1,633.44,406.94,633.07Z"/><path class="cls-3" d="M298,602.15a194.56,194.56,0,0,0,91.24-13.72c-1.78,6.42,2.48,12.83,8,15.83,12.07,6.58,31.19-4.45,36.64-14.89,4.93,8.09,17.89,12.21,26.43,8.52,8.75-3.78,14.36-13,15.67-22.42s-1.16-19.06-5-27.79a59.15,59.15,0,0,0-7,21c3-1.1,5,2.95,4.46,5.41-.73,3.31-4.72,4.49-7.68,4.74-5.67.49-12.44-.84-15.1-6.42-2.23-4.66-1.32-10.43-.38-15.29-.2,1.05-3.76,3.26-4.62,4l-4.63,4c-4.69,4.06-9,8.53-13.44,12.84q-3.09,3-6.34,5.78c-3.69,3.19-7.77,7.2-12.71,3.85-3.34-2.26-4.46-6.53-4.84-10.31a39,39,0,0,1-.07-6c0-.47.05-4.51.45-4.66a238.62,238.62,0,0,1-103.95,15.07C290.66,571.6,284,560,273,559.37c-10.06-.51-17.93,8.85-21.52,18.27-2.25,5.91-3.47,12.77-.6,18.4s9.57,8.85,16,9.3,12.79-1.31,19-3.05c-4.23,12.94-16.91,21-29.11,27.05-32.62,16.12-68.11,25.43-103.53,33.75h0c1.94-.45,6.71,1.76,8.88,2.06,21.14,3,44.32-2.9,64.93-7.19,15.86-3.3,31.59-7.9,45.93-15.56,7.57-4,14.83-9,19.88-16S300.4,610.37,298,602.15ZM261.28,580c2.12-7,15.88,5,15.88,5S259.15,587.06,261.28,580Z"/><path class="cls-3" d="M169.44,634.92c13.18,1.35,10.72-12.57-2.09-13.18s-9.49-11.09-9.49-11.09C146.53,625.93,156.26,633.56,169.44,634.92Z"/><path class="cls-3" d="M211.69,622.83a17.22,17.22,0,0,0,14-6.46c2.93-3.92,3.25-9.22,2.49-13.85-.89-5.44-3.19-12.38-8-15.64-6.9-4.69-9.48,5.91-3.45,16.5S211.69,622.83,211.69,622.83Z"/><path class="cls-3" d="M697,654.32c-6.84,3.88-18.67,11.73-21.81,9.89s-3.42-6.93,2.22-15.25,8.31-12.47,5.73-16.63-13-8.31-17.19-5.82-4.71,6.56,1,9.06.37,10.71.37,10.71-5.17,8.23-5.73,10.72-6.93,15.71,6.75,15.8,27.07-5.55,34.46-9.43,10.62-6.09,9.42-9.23S703.82,650.44,697,654.32Z"/><path class="cls-3" d="M719.65,448.29c8.6,2.76,11.67-.71,12.2-4.68.63-4.73-10-5.73-10-5.73-5.42-.68-4.74-5.6-5.54-7.82s-3.76,2.77-4.81,6.84S712.16,445.89,719.65,448.29Z"/><path class="cls-3" d="M800.54,545.76c.23,3.52,4.25-.39,5.26-1.38,5.19-5.09,9.2-12,9.2-19.45,0-4.14-2-7.33-4.73-10.24-1.43-1.51-6.08-6.24-8.24-3.39-2.58,3.42-.85,6.53.28,9.33,0,0,3.88,7.12,1,14.32C802.05,538.17,800.32,542.21,800.54,545.76Z"/><path class="cls-3" d="M740.16,519.74a35.6,35.6,0,0,0-4.95-6.6c4.06-5,8.93-10.58,14.16-16.4l5.08,79.91s10.1-7.92,10.84-33.65c.38-13-1.25-38.36-3-60.41,13-14,26.17-27.7,34-36.52,17.73-19.95,14-39.17,14-39.17s-23.55,28.91-49.68,55.73c-1-12-1.81-20.25-1.81-20.25l6.46,5.91-8.68-30.65a2.87,2.87,0,0,0-5.06-.95l-6.77,8.93L748,475.27q-2.82,2.7-5.62,5.3a144.59,144.59,0,0,0-18.52,20.66c-10.92-10.88-25.51-24.41-38.41-36.15-1.14-14.35-2.51-27.69-2.51-27.69l7,2-11.82-30.47s-3.7,7.21-4.81,12.35c-.43,2,.08,16.67.86,33.62-10.93-9.82-18.78-16.71-18.78-16.71l7.64-1.23L636,417.49c-.5,11.83,10.59,35,27.34,50.76l12.13,11.37c.93,17.73,1.79,32.6,1.79,32.6s7.77-4.8,9.43-13.67a48,48,0,0,0,.29-8.16L714.39,516c-9,16.46-11.68,29.93-11.68,34.5,0,7.63,6.16,18.47,27.84,12.81S746.08,532.06,740.16,519.74ZM717.25,549.3s-1-5.17,7.64-21.68c.19-.37.42-.77.65-1.17l13.14,12.26Z"/><path class="cls-3" d="M823,613.11c10,1.11,9-10.34,0-10s-9.43-9.24-9.43-9.24C806.19,605.91,813,612,823,613.11Z"/><path class="cls-3" d="M934.43,564.93C930,532.55,921.12,459,921.12,459l8.13,7s-5.91-37.79-8.5-43.29-8.13-2.41-8.13-2.41l-10.09,10.52a6.91,6.91,0,0,0-2.19,5.65l.46,5.51s15,86.24,17.13,132.7c-7-9.24-17.36-20.24-28.81-31.42-2-32.8-8-84.65-8-84.65l7.88,3-1.23-9.12a76.84,76.84,0,0,0-8.69-27.16,4.93,4.93,0,0,0-8-1c-3.8,4.16-8.71,10.32-9.45,15-1,6.39,6,56.08,9,86.5-7.75-7.08-15.47-13.89-22.55-20Q846,489.92,844,474c-.44-3.31-.87-6.61-1.31-9.91l10.11,7.39c-.44-.32-.06-4.85-.09-5.42a87.18,87.18,0,0,0-6.51-30.1c-2.36-5.53-7.54-20.16-15.52-18.83-3.76.62-10.49,11.1-10.33,12.41q1,8.16,1.9,16.32,1.59,13.8,3.15,27.61c-.33-.42-24.87-12.11-29.76-14.55s-2.71,8.62-1.48,16.26,5.42,8.37,22.42,22.66c2.7,2.28,7.18,6.08,12.78,10.87q1.57,14.19,3.1,28.4c1.75,16.26,3.45,32.52,5,48.79,1.08,11.36,2.27,23,2.6,34.53.18,5.92.13,11.85-.27,17.76-.31,4.72-.75,9.51-5,12.44-3.55,2.47-8.28,3.13-12.51,3-6.34-.14-12.9-2.51-17.15-7.36-6.36-7.26-8-17.8-8.54-27.1q-.16-3-.16-6c0-12.29.67-25.58-2-37.64-1.91-8.61-9.65-6.09-14.78-1.68a41,41,0,0,0-11.86,18.92c-5.55,17.74-11.46,71.14-28.46,54.51s-14.23-51.37-14.23-51.37-14,60.05,12.2,71.69,25.13-27.9,30.3-42.68,7.59-29.56,13.22-27.72c1.84.61,2.19,4.36,2.45,5.87a111.28,111.28,0,0,1,1.24,12.77c.38,6.3.56,12.62.95,18.92.41,6.64.49,12.92,3.25,19.1a33.19,33.19,0,0,0,22.24,18.75,38.17,38.17,0,0,0,28.49-4.8C858.79,655.67,858.66,626,858.46,606c-.24-25.16-4-50.18-7.16-75.11-.16-1.26-.33-2.51-.48-3.76l21.24,18.23c1.1,24.49,7.8,87.76,7.8,87.76,8.37-13.3,9.36-46.07,9.85-71.2,0-.44,0-.91,0-1.38L918.19,585c0,.77,0,1.54,0,2.28-.74,41-18.48,82.78-44.72,92,0,0,34.37,1.47,47.3-26.61S938.86,597.3,934.43,564.93ZM816.79,479.58s8.35-5.66,8.57-6.11c.48,4.19,1,8.38,1.44,12.57.07.65.14,1.3.22,1.95C820.69,482.73,816.79,479.58,816.79,479.58Z"/><g id="stars"><polygon class="cls-3" points="538.52 380.06 518.1 393.69 524.75 370.05 505.48 354.85 530.01 353.87 538.52 330.84 547.02 353.87 571.55 354.85 552.28 370.05 558.93 393.69 538.52 380.06"/><polygon class="cls-3" points="394.63 376.71 378.06 387.77 383.46 368.59 367.81 356.24 387.73 355.45 394.63 336.76 401.54 355.45 421.46 356.24 405.81 368.59 411.21 387.77 394.63 376.71"/><polygon class="cls-3" points="684.49 376.71 667.92 387.77 673.32 368.59 657.67 356.24 677.59 355.45 684.49 336.76 691.4 355.45 711.31 356.24 695.67 368.59 701.07 387.77 684.49 376.71"/><polygon class="cls-3" points="290.73 373.57 277.75 382.23 281.98 367.21 269.73 357.55 285.32 356.93 290.73 342.3 296.13 356.93 311.72 357.55 299.47 367.21 303.7 382.23 290.73 373.57"/><polygon class="cls-3" points="789.27 373.57 776.3 382.23 780.53 367.21 768.28 357.55 783.87 356.93 789.27 342.3 794.68 356.93 810.27 357.55 798.02 367.21 802.25 382.23 789.27 373.57"/><polygon class="cls-3" points="540 735.53 519.58 749.16 526.23 725.53 506.96 710.32 531.49 709.34 540 686.31 548.51 709.34 573.04 710.32 553.77 725.53 560.42 749.16 540 735.53"/></g><g id="Label"><path class="cls-3" d="M271.6,146.26c-2.11-.89-5.42-1.32-10.12-1.32h-14v41.45h9V171.85h2.73c5.79,0,10.45-1.26,13.83-3.74a12.63,12.63,0,0,0,5.32-10.73C278.36,151.94,276.09,148.2,271.6,146.26Zm-15.12,6.25h4.27c3.95,0,5.78.68,6.63,1.25,1.05.71,1.56,1.93,1.56,3.74,0,2.91-1.08,6.78-10.37,6.78h-2.09Z"/><polygon class="cls-3" points="294.05 168.54 311.01 168.54 311.01 160.97 294.05 160.97 294.05 152.51 314.05 152.51 314.05 144.94 285.02 144.94 285.02 186.39 315.43 186.39 315.43 178.82 294.05 178.82 294.05 168.54"/><path class="cls-3" d="M342.12,169.62c0,3.79-.57,6.5-1.69,8s-2.75,2.08-5.27,2.08c-2.34,0-4-.67-4.93-2.06-1.09-1.54-1.64-4.2-1.64-7.91V144.94h-9v24.74c0,5.82,1.29,10.24,3.83,13.15s6.58,4.48,11.83,4.48c6.13,0,10.6-2.51,13.3-7.48,1.27-2.34,1.89-6,1.89-11.08V144.94h-8.29Z"/><path class="cls-3" d="M388.29,163.33a12.65,12.65,0,0,0,2.23-7.59,9.78,9.78,0,0,0-6.51-9.57c-1.95-.83-5.19-1.23-9.9-1.23H361.82v41.45h9V170.45h2.95l12.09,15.94H397l-14-18.5A17.09,17.09,0,0,0,388.29,163.33Zm-7.19-6.62A5.16,5.16,0,0,1,379,161.1a10.73,10.73,0,0,1-6.57,1.78h-1.53V152.51h2c4.28,0,6.11.55,6.9,1C380.11,153.71,381.1,154.29,381.1,156.71Z"/><polygon class="cls-3" points="410.96 168.54 427.92 168.54 427.92 160.97 410.96 160.97 410.96 152.51 430.96 152.51 430.96 144.94 401.93 144.94 401.93 186.39 432.33 186.39 432.33 178.82 410.96 178.82 410.96 168.54"/><path class="cls-3" d="M460.6,169.62c0,3.79-.57,6.5-1.69,8s-2.75,2.08-5.27,2.08c-2.34,0-3.95-.67-4.93-2.06-1.09-1.54-1.64-4.2-1.64-7.91V144.94h-9v24.74c0,5.82,1.29,10.24,3.84,13.15s6.58,4.48,11.82,4.48c6.13,0,10.61-2.51,13.3-7.48,1.27-2.34,1.89-6,1.89-11.08V144.94H460.6Z"/><polygon class="cls-3" points="473.02 152.51 487.74 152.51 487.74 186.39 496.77 186.39 496.77 152.51 511.52 152.51 511.52 144.94 473.02 144.94 473.02 152.51"/><polygon class="cls-3" points="521.65 168.54 538.6 168.54 538.6 160.97 521.65 160.97 521.65 152.51 541.65 152.51 541.65 144.94 512.62 144.94 512.62 186.39 543.02 186.39 543.02 178.82 521.65 178.82 521.65 168.54"/><path class="cls-3" d="M580.7,172h7.19v7.16a19.06,19.06,0,0,1-2.3.16,13.3,13.3,0,0,1-9.93-3.88,13.45,13.45,0,0,1-3.87-10,14.52,14.52,0,0,1,3.45-10.06,10.81,10.81,0,0,1,8.59-3.83,25.08,25.08,0,0,1,10.38,2.58l2.24,1v-9l-1.13-.34A39.83,39.83,0,0,0,584,144c-6.38,0-11.64,2.05-15.63,6.08s-6,9.34-6,15.77,2,11.5,6,15.47,9.23,6,15.57,6a39.51,39.51,0,0,0,11.85-2l1.1-.35V164.46H580.7Z"/><path class="cls-3" d="M616.66,144.94l-16.34,41.45h8.47l3.67-9.58h15.33l3.61,9.58H641l-16.34-41.45Zm8.16,24.29h-9.4l4.68-12.3Z"/><path class="cls-3" d="M668.62,164.58a12.29,12.29,0,0,0,2.83-2.23,9.81,9.81,0,0,0,2.74-6.94c0-4.78-2.61-10.47-15-10.47H645.25v41.45h13.12a45.9,45.9,0,0,0,8.69-.59,12.06,12.06,0,0,0,5.3-2.58,10.21,10.21,0,0,0,3.71-8.32C676.07,171.42,674.66,167.11,668.62,164.58Zm-2,10.23c0,2-.79,2.68-1.37,3-.84.46-2.79,1-7.26,1h-3.74V168.33h.57c3.81,0,6.82.65,9,1.95A5,5,0,0,1,666.65,174.81ZM654.28,161.5v-9h1.17c5.15,0,7.3.53,8.2,1,.6.3,1.41.94,1.41,3,0,1.25,0,5.05-10.3,5.05Z"/><polygon class="cls-3" points="678.64 152.51 693.36 152.51 693.36 186.39 702.39 186.39 702.39 152.51 717.14 152.51 717.14 144.94 678.64 144.94 678.64 152.51"/><polygon class="cls-3" points="742.25 161.68 729.19 161.68 729.19 144.94 720.16 144.94 720.16 186.39 729.19 186.39 729.19 169.25 742.25 169.25 742.25 186.39 751.28 186.39 751.28 144.94 742.25 144.94 742.25 161.68"/><path class="cls-3" d="M773.58,144.94l-16.34,41.45h8.47l3.67-9.58h15.33l3.61,9.58H798l-16.34-41.45Zm8.16,24.29h-9.4l4.68-12.3Z"/><polygon class="cls-3" points="794.06 144.94 794.06 152.51 808.78 152.51 808.78 186.39 817.81 186.39 817.81 152.51 832.55 152.51 832.55 144.94 794.06 144.94"/></g></g></g></svg>