<svg xmlns="http://www.w3.org/2000/svg" viewBox="0 0 1080 1080"><defs><style>.cls-1{fill:#00bceb;}.cls-2{fill:#fcfcfc;fill-rule:evenodd;}.cls-3{fill:red;}.cls-4{fill:#005698;}</style></defs><g id="logo-Gelora"><rect id="background" class="cls-1" width="1080" height="1080"/><g id="symbol"><g id="Vector"><path class="cls-2" d="M540,144c-218.7,0-396,177.28-396,396S321.29,936,540,936,936,758.7,936,540,758.69,144,540,144Zm106.9,719.32,0,0h0l0,0h0c-4.78,1.57-9.58,3.06-14.42,4.42h-.05a342.3,342.3,0,0,1-201.45-5.21h-.06a216.47,216.47,0,0,1-98.61-118.51c-1.16-3.34-2.22-6.74-3.17-10.16h0a216.52,216.52,0,0,1-8.3-59.54c0-119.2,96.61-215.82,215.82-215.82a214.58,214.58,0,0,1,99.12,24.07,208.93,208.93,0,0,1,20.69,12.23,216.49,216.49,0,0,1,62.46,63.92s0,.07,0,.07c1.13,1.79,2.25,3.57,3.31,5.4a2,2,0,0,1,.4.68,13.5,13.5,0,0,1,.78,1.36v-.08a263,263,0,0,0,6.62-55.46c0-1.24,0-2.47,0-3.72A263.2,263.2,0,0,0,727,467.8C708,340.27,598.09,242.41,465.26,242.41a263.52,263.52,0,0,0-175.17,66.27A339.64,339.64,0,0,1,540,199.47c188.06,0,340.5,152.46,340.5,340.51a340,340,0,0,1-53.63,183.56.42.42,0,0,0-.11.14s0,0,0,.07A340.73,340.73,0,0,1,646.89,863.34Zm-394.45-199a250.49,250.49,0,0,0,3.42,26.88s0,.07,0,.07A254.35,254.35,0,0,0,276.73,756a340,340,0,0,1-77.25-216q0-14.31,1.17-28.37A338.16,338.16,0,0,1,230.4,398s0,0,0,0A234.25,234.25,0,0,1,630.35,417a256.72,256.72,0,0,0-120.73-30c-142.43,0-257.91,115.48-257.91,257.91Q251.71,654.76,252.44,664.36Z"/></g><path id="Vector-2" data-name="Vector" class="cls-3" d="M509.62,387.07a256.72,256.72,0,0,1,120.73,30A234.25,234.25,0,0,0,230.44,398s0,0,0,0a338.16,338.16,0,0,0-29.75,113.59q-1.16,14-1.17,28.37a340,340,0,0,0,77.25,216,254.35,254.35,0,0,1-20.83-64.64s0-.07,0-.07a250.49,250.49,0,0,1-3.42-26.88q-.72-9.61-.73-19.38C251.71,502.55,367.19,387.07,509.62,387.07Z"/><path id="Vector-3" data-name="Vector" class="cls-4" d="M730,778.93v0c-1.67.25-3.39.51-5.09.69a154.13,154.13,0,0,1-19.45,1.21A157.19,157.19,0,0,1,548.24,623.6c0-5.57.28-11.07.82-16.47v-.24a92.63,92.63,0,0,1,5.73-28.38.58.58,0,0,1,.07-.21A92.82,92.82,0,0,1,641.79,518a91.11,91.11,0,0,1,16.79,1.53,92.93,92.93,0,0,1,60.17,39.29,216.49,216.49,0,0,0-62.46-63.92,208.93,208.93,0,0,0-20.69-12.23,214.58,214.58,0,0,0-99.12-24.07c-119.21,0-215.82,96.62-215.82,215.82A216.52,216.52,0,0,0,329,734h0c.95,3.42,2,6.82,3.17,10.16a216.47,216.47,0,0,0,98.61,118.51h.06a342.3,342.3,0,0,0,201.45,5.21h.05c4.84-1.36,9.64-2.85,14.42-4.42h0l0,0h0l0,0A340.73,340.73,0,0,0,826.72,723.75,157,157,0,0,1,730,778.93Z"/></g></g></svg>