<svg xmlns="http://www.w3.org/2000/svg" viewBox="0 0 1080 1080"><defs><style>.cls-1{fill:#fcfcfc;}.cls-2{fill:#900;}.cls-3{fill:#121415;}.cls-4{fill:#f3cd00;}</style></defs><g id="logo-Gerindra"><rect id="background" class="cls-1" width="1080" height="1080"/><g id="symbol"><path id="Vector" class="cls-2" d="M540,177.72,157.63,455.52,303.69,905H776.31l146.06-449.5ZM746.49,834.51c-1.68.7-29,11.79-57.63,11.79-13.9,0-28.12-2.61-39.91-10.25a51.39,51.39,0,0,1-10.82-9.48c-1.92,1.28-3.9,2.42-5.86,3.53-1.24.69-2.48,1.39-3.7,2.13-.84.51-1.67,1-2.47,1.61a25.82,25.82,0,0,0-3.93,4.84l-2.41,3.65-2.42-3.65a25.82,25.82,0,0,0-3.93-4.84c-.8-.57-1.62-1.1-2.47-1.61-1.22-.74-2.46-1.44-3.7-2.13a52.62,52.62,0,0,1-9.72-6.52,52.55,52.55,0,0,1-9.71,6.52c-1.24.69-2.48,1.39-3.7,2.13-.84.51-1.67,1-2.47,1.61a25.82,25.82,0,0,0-3.93,4.84l-2.42,3.65-2.41-3.65a26.23,26.23,0,0,0-3.93-4.84c-.8-.57-1.63-1.1-2.47-1.61-1.22-.74-2.46-1.44-3.7-2.13-4.32-2.43-8.78-4.94-12.25-9.13a32.88,32.88,0,0,1-5.74-10.35A33,33,0,0,1,539.06,821c-3.48,4.19-7.94,6.7-12.25,9.13-1.24.69-2.49,1.39-3.7,2.13-.85.51-1.68,1-2.48,1.61a27,27,0,0,0-3.92,4.84l-2.42,3.65-2.41-3.65a25.76,25.76,0,0,0-3.93-4.83c-.81-.58-1.63-1.11-2.47-1.62-1.22-.74-2.47-1.44-3.7-2.13a52.25,52.25,0,0,1-9.73-6.53,51.86,51.86,0,0,1-9.72,6.53c-1.24.69-2.48,1.39-3.7,2.13-.84.51-1.67,1-2.47,1.61a25.82,25.82,0,0,0-3.93,4.84l-2.42,3.65-2.41-3.65a25.82,25.82,0,0,0-3.93-4.84c-.8-.57-1.62-1.1-2.47-1.61-1.22-.74-2.46-1.44-3.7-2.13-2-1.1-3.93-2.24-5.84-3.53a51.32,51.32,0,0,1-10.82,9.48c-11.79,7.64-26,10.25-39.91,10.25-28.67,0-56-11.09-57.63-11.79l-12.72-5.27,13.76-.32c13.64-.29,24.3-4.57,31.71-12.74a38.69,38.69,0,0,0,5.68-8.25,177.7,177.7,0,0,1-26.85-8.17L342,794.49l13.76-.32c13.64-.29,24.29-4.58,31.71-12.74l.34-.38a42.08,42.08,0,0,0,4.38-6.11,44.5,44.5,0,0,0,2.6-5.22,178.56,178.56,0,0,1-40.07-10.51L342,753.94l13.76-.3c13.63-.3,24.3-4.6,31.69-12.77a42.45,42.45,0,0,0,8.28-14.15,268.38,268.38,0,0,1-40.57-8.21l-18.05-5.41,18.85-.26c2.27,0,56-1.5,82.2-66.21,8.68-21.45,9.68-36.67,3-45.25-9.39-12-32.17-8.68-41.89-7.28l-2,.29c-1.31.18-3.3.59-5.81,1.12-21.24,4.42-85.85,17.92-108.23-48.17L280,537.93l7.75,6.23c.33.27,22.28,17.26,64.2,16.72a49.13,49.13,0,0,1-16.71-5.52A30.41,30.41,0,0,1,320,534l-2.16-10.79,7.19,8.33c.55.64,13.83,15.5,31.43,5.25a54,54,0,0,1,11.82-5.2,200.21,200.21,0,0,1-28.81-14.15c-43.22-25.73-80.79,6.78-82.37,8.18l-5.85,5.18,1.06-7.74c.08-.59,8.19-53.32,75.52-65.82a97.79,97.79,0,0,1,19.71-2.43,49.06,49.06,0,0,0-9.67-30.58l-2.94-4,5-.56a53,53,0,0,1,27,5.61,59.7,59.7,0,0,0-9.33-23.84L353.27,395l7.52,2c.81.22,17.88,4.92,30,13.8.2-7.8-.76-19.46-6.31-24.59l-3.29-3,4.12-1.75c.56-.24,13.29-5.31,32.15,16.17,1.47-5.56,2.64-13.4-.35-17l-3-3.64,4.61-1c.65-.16,15-3.08,26.8,16.1,1.81-4.23,3.33-10,1.34-14.27l-1.5-3.18,3.42-.86c.59-.14,14.26-3.29,24.33,16.91,9.11,0,48.69,1.2,85,17.84,37.82,17.35,141.25,22.32,184.58-3l8.6-5-4.56,8.86c-.24.45-22.43,42.43-73.25,53.34,14.5,3.69,38.31,7.91,51.68.3l21.48-12.22-18.07,16.86c-1.14,1.06-25.66,23.68-55,30.8,9.65,3.76,24.79,8.85,33.81,7.82l9.52-1.05-7.34,6.15c-.69.58-16.19,13.38-40.39,16.93,7.68,12.81,29.6,55.24,25.52,116.36-1.72,25.86,3,44.91,14.07,56.62a36.52,36.52,0,0,0,24.8,11.64l20.41-.19-19.54,5.86a268,268,0,0,1-40.57,8.21,42.58,42.58,0,0,0,8.29,14.18c7.4,8.15,18.06,12.44,31.67,12.74l13.77.3-12.73,5.27a178.65,178.65,0,0,1-40,10.51,44.5,44.5,0,0,0,2.6,5.22,37.16,37.16,0,0,0,4.34,6c.15.18.26.32.41.47,7.38,8.13,18,12.42,31.65,12.71l13.76.32-12.72,5.27a174.33,174.33,0,0,1-26.84,8.17,39.13,39.13,0,0,0,5.73,8.28c7.39,8.14,18,12.42,31.65,12.71l13.76.32Z"/><path id="Vector-2" data-name="Vector" class="cls-3" d="M540,163.4,144,451.1,295.27,916.6H784.73L936,451.1ZM303.69,905,157.63,455.52,540,177.72l382.37,277.8L776.31,905Z"/><path id="Vector-3" data-name="Vector" class="cls-4" d="M387.47,809.11a46.82,46.82,0,0,1-7.33,10.95,43.52,43.52,0,0,1-23.05,13.15c18.79,5.7,56,13.78,80.42-2a45.05,45.05,0,0,0,9.43-8.26,25,25,0,0,1-1.89-1.95,34.43,34.43,0,0,1-6.63-13.2,84.69,84.69,0,0,1-26.11,3.78A138.27,138.27,0,0,1,387.47,809.11Z"/><path id="Vector-4" data-name="Vector" class="cls-3" d="M446.94,822.92a45.05,45.05,0,0,1-9.43,8.26c-24.39,15.81-61.63,7.73-80.42,2a43.52,43.52,0,0,0,23.05-13.15,46.82,46.82,0,0,0,7.33-10.95c-2.06-.37-4-.78-5.94-1.18a38.69,38.69,0,0,1-5.68,8.25c-7.41,8.17-18.07,12.45-31.71,12.74l-13.76.32,12.72,5.27c1.68.7,29,11.79,57.63,11.79,13.9,0,28.12-2.61,39.91-10.25a51.32,51.32,0,0,0,10.82-9.48A32.39,32.39,0,0,1,446.94,822.92Z"/><path id="Vector-5" data-name="Vector" class="cls-4" d="M477.45,801.33c-.81-.57-1.63-1.11-2.47-1.62-1.23-.74-2.47-1.44-3.71-2.14a60,60,0,0,1-8.46-5.47c-1,1.14-2,2.26-3.15,3.29a46.61,46.61,0,0,1-7.44,5.9,55.55,55.55,0,0,1-8.35,4.41,29.16,29.16,0,0,0,5.64,11.57c2.79,3.37,6.6,5.51,10.63,7.78,1.3.73,2.6,1.46,3.87,2.23,1,.58,1.9,1.19,2.82,1.84a17.34,17.34,0,0,1,3,3,17.72,17.72,0,0,1,3-3c.91-.64,1.86-1.25,2.82-1.84,1.27-.77,2.57-1.5,3.87-2.23a46.88,46.88,0,0,0,8.71-5.82,34.87,34.87,0,0,1-4.93-10.2l-1.9-2.87A25.78,25.78,0,0,0,477.45,801.33Z"/><path id="Vector-6" data-name="Vector" class="cls-3" d="M489.52,821c-.47-.56-.9-1.15-1.32-1.74a46.88,46.88,0,0,1-8.71,5.82c-1.3.73-2.6,1.46-3.87,2.23-1,.59-1.91,1.2-2.82,1.84a17.72,17.72,0,0,0-3,3,17.34,17.34,0,0,0-3-3c-.92-.65-1.86-1.26-2.82-1.84-1.27-.77-2.57-1.5-3.87-2.23-4-2.27-7.84-4.41-10.63-7.78a29.16,29.16,0,0,1-5.64-11.57c-1.78.77-3.6,1.47-5.45,2.07a34.43,34.43,0,0,0,6.63,13.2,25,25,0,0,0,1.89,1.95,32.39,32.39,0,0,0,4.52,3.65c1.91,1.29,3.88,2.43,5.84,3.53,1.24.69,2.48,1.39,3.7,2.13.85.51,1.67,1,2.47,1.61a25.82,25.82,0,0,1,3.93,4.84l2.41,3.65,2.42-3.65a25.82,25.82,0,0,1,3.93-4.84c.8-.57,1.63-1.1,2.47-1.61,1.22-.74,2.46-1.44,3.7-2.13a51.86,51.86,0,0,0,9.72-6.53A26,26,0,0,1,489.52,821Z"/><path id="Vector-7" data-name="Vector" class="cls-4" d="M651.15,807.77a34.43,34.43,0,0,1-6.63,13.2,21.71,21.71,0,0,1-1.89,1.94,44.67,44.67,0,0,0,9.45,8.27c24.38,15.81,61.62,7.73,80.45,2a43.57,43.57,0,0,1-23.08-13.15,46.51,46.51,0,0,1-7.33-10.95,138.38,138.38,0,0,1-24.85,2.44A85.1,85.1,0,0,1,651.15,807.77Z"/><path id="Vector-8" data-name="Vector" class="cls-3" d="M713.79,816.21a39.13,39.13,0,0,1-5.73-8.28c-1.91.4-3.91.81-5.94,1.18a46.51,46.51,0,0,0,7.33,10.95,43.57,43.57,0,0,0,23.08,13.15c-18.83,5.7-56.07,13.78-80.45-2a44.67,44.67,0,0,1-9.45-8.27,32.91,32.91,0,0,1-4.5,3.66A51.39,51.39,0,0,0,649,836.05c11.79,7.64,26,10.25,39.91,10.25,28.67,0,55.95-11.09,57.63-11.79l12.71-5.27-13.76-.32C731.83,828.63,721.18,824.35,713.79,816.21Z"/><path id="Vector-9" data-name="Vector" class="cls-4" d="M538.45,801.33c-.8-.57-1.63-1.11-2.47-1.62-1.22-.74-2.46-1.44-3.7-2.14-4.32-2.42-8.78-4.93-12.25-9.12a32.92,32.92,0,0,1-5.74-10.36,33.12,33.12,0,0,1-5.74,10.36c-3.47,4.19-7.93,6.7-12.25,9.12-1.24.7-2.48,1.4-3.7,2.14-.84.51-1.66,1-2.46,1.61a14.54,14.54,0,0,0-2.19,2.42,30.38,30.38,0,0,0,6,13.53c2.8,3.37,6.61,5.51,10.64,7.78,1.29.73,2.59,1.46,3.86,2.23,1,.59,1.91,1.2,2.82,1.85a16.62,16.62,0,0,1,3,3,18.07,18.07,0,0,1,3-3c.92-.65,1.87-1.26,2.83-1.84,1.27-.77,2.57-1.5,3.86-2.23,4-2.27,7.85-4.41,10.64-7.78a30.33,30.33,0,0,0,6-13.53A14.45,14.45,0,0,0,538.45,801.33Z"/><path id="Vector-10" data-name="Vector" class="cls-3" d="M542.37,806.16c-.51-.77-1.13-1.63-1.74-2.42a30.33,30.33,0,0,1-6,13.53c-2.79,3.37-6.6,5.51-10.64,7.78-1.29.73-2.59,1.46-3.86,2.23-1,.58-1.91,1.19-2.83,1.84a18.07,18.07,0,0,0-3,3,16.62,16.62,0,0,0-3-3c-.91-.65-1.86-1.26-2.82-1.85-1.27-.77-2.57-1.5-3.86-2.23-4-2.27-7.84-4.41-10.64-7.78a30.38,30.38,0,0,1-6-13.53c-.61.79-1.23,1.65-1.75,2.42l-2.41,3.65-.52-.78a34.87,34.87,0,0,0,4.93,10.2c.42.59.85,1.18,1.32,1.74a26,26,0,0,0,2.53,2.6,52.25,52.25,0,0,0,9.73,6.53c1.23.69,2.48,1.39,3.7,2.13.84.51,1.66,1,2.47,1.62a25.76,25.76,0,0,1,3.93,4.83l2.41,3.65,2.42-3.65a27,27,0,0,1,3.92-4.84c.8-.57,1.63-1.1,2.48-1.61,1.21-.74,2.46-1.44,3.7-2.13,4.31-2.43,8.77-4.94,12.25-9.13a33,33,0,0,0,5.73-10.35c-.18-.53-.35-1.06-.52-1.59Z"/><path id="Vector-11" data-name="Vector" class="cls-4" d="M630,795.41a45.26,45.26,0,0,1-3.18-3.31,59.41,59.41,0,0,1-8.46,5.47c-1.24.7-2.48,1.4-3.7,2.14-.85.51-1.67,1-2.48,1.62a26.56,26.56,0,0,0-3.92,4.83l-1.9,2.88a34.87,34.87,0,0,1-4.93,10.2,46.76,46.76,0,0,0,8.7,5.81c1.3.73,2.6,1.46,3.87,2.23,1,.58,1.9,1.19,2.82,1.84a17.72,17.72,0,0,1,3,3,17.34,17.34,0,0,1,3-3c.92-.64,1.86-1.25,2.82-1.84,1.27-.77,2.57-1.5,3.87-2.23,4-2.27,7.84-4.41,10.63-7.78a29.13,29.13,0,0,0,5.64-11.58,55.88,55.88,0,0,1-8.34-4.4A47.87,47.87,0,0,1,630,795.41Z"/><path id="Vector-12" data-name="Vector" class="cls-3" d="M642.63,822.91a21.71,21.71,0,0,0,1.89-1.94,34.43,34.43,0,0,0,6.63-13.2c-1.85-.6-3.66-1.31-5.45-2.08a29.13,29.13,0,0,1-5.64,11.58c-2.79,3.37-6.6,5.51-10.63,7.78-1.3.73-2.6,1.46-3.87,2.23-1,.59-1.9,1.2-2.82,1.84a17.34,17.34,0,0,0-3,3,17.72,17.72,0,0,0-3-3c-.92-.65-1.86-1.26-2.82-1.84-1.27-.77-2.57-1.5-3.87-2.23a46.76,46.76,0,0,1-8.7-5.81c-.42.59-.85,1.17-1.32,1.73a25.14,25.14,0,0,1-2.54,2.61,52.62,52.62,0,0,0,9.72,6.52c1.24.69,2.48,1.39,3.7,2.13.85.51,1.67,1,2.47,1.61a25.82,25.82,0,0,1,3.93,4.84l2.42,3.65,2.41-3.65a25.82,25.82,0,0,1,3.93-4.84c.8-.57,1.63-1.1,2.47-1.61,1.22-.74,2.46-1.44,3.7-2.13,2-1.11,3.94-2.25,5.86-3.53A32.91,32.91,0,0,0,642.63,822.91Z"/><path id="Vector-13" data-name="Vector" class="cls-4" d="M599.45,801.33c-.8-.58-1.63-1.11-2.47-1.62-1.22-.74-2.46-1.44-3.7-2.14-4.31-2.42-8.77-4.93-12.25-9.12a32.92,32.92,0,0,1-5.74-10.36,32.92,32.92,0,0,1-5.74,10.36c-3.47,4.19-7.93,6.7-12.25,9.12-1.23.7-2.48,1.4-3.7,2.14-.84.51-1.66,1-2.47,1.62a14.45,14.45,0,0,0-2.18,2.41,30.38,30.38,0,0,0,6,13.53c2.8,3.37,6.61,5.51,10.64,7.78,1.29.73,2.59,1.46,3.87,2.23,1,.58,1.9,1.19,2.81,1.84a17,17,0,0,1,3,3,17.72,17.72,0,0,1,3-3c.91-.64,1.86-1.25,2.82-1.84,1.27-.77,2.57-1.5,3.86-2.23,4-2.27,7.85-4.41,10.64-7.78a30.38,30.38,0,0,0,6-13.53A14.45,14.45,0,0,0,599.45,801.33Z"/><path id="Vector-14" data-name="Vector" class="cls-3" d="M600.06,821c.47-.56.9-1.14,1.32-1.73a34.87,34.87,0,0,0,4.93-10.2l-.51.77-2.42-3.65c-.51-.77-1.13-1.63-1.75-2.42a30.38,30.38,0,0,1-6,13.53c-2.79,3.37-6.6,5.51-10.64,7.78-1.29.73-2.59,1.46-3.86,2.23-1,.59-1.91,1.2-2.82,1.84a17.72,17.72,0,0,0-3,3,17,17,0,0,0-3-3c-.91-.65-1.86-1.26-2.81-1.84-1.28-.77-2.58-1.5-3.87-2.23-4-2.27-7.84-4.41-10.64-7.78a30.38,30.38,0,0,1-6-13.53c-.61.79-1.23,1.65-1.75,2.42l-2.41,3.65-.52-.78c.17.53.34,1.06.52,1.59A32.88,32.88,0,0,0,550.53,821c3.47,4.19,7.93,6.7,12.25,9.13,1.24.69,2.48,1.39,3.7,2.13.84.51,1.67,1,2.47,1.61a26.23,26.23,0,0,1,3.93,4.84l2.41,3.65,2.42-3.65a25.82,25.82,0,0,1,3.93-4.84c.8-.57,1.63-1.1,2.47-1.61,1.22-.74,2.46-1.44,3.7-2.13a52.55,52.55,0,0,0,9.71-6.52A25.14,25.14,0,0,0,600.06,821Z"/><path id="Vector-15" data-name="Vector" class="cls-4" d="M524.48,784.75c2.8,3.36,6.6,5.51,10.64,7.78,1.29.72,2.59,1.46,3.87,2.23,1,.58,1.9,1.19,2.81,1.84a17.72,17.72,0,0,1,3,3,17.72,17.72,0,0,1,3-3c.92-.65,1.86-1.26,2.82-1.84,1.27-.77,2.57-1.51,3.86-2.23,4-2.27,7.84-4.42,10.64-7.78,4.53-5.45,6.37-12.58,7-20a19.76,19.76,0,0,0-2.86-3.31c-.8-.56-1.63-1.1-2.47-1.61-1.22-.74-2.46-1.44-3.7-2.13-4.31-2.43-8.77-4.94-12.25-9.13-2.78-3.35-4.7-8.3-6-13.54-1.32,5.24-3.23,10.19-6,13.54-3.48,4.19-7.94,6.7-12.25,9.13-1.24.69-2.48,1.39-3.7,2.13-.84.51-1.67,1-2.47,1.61a19.14,19.14,0,0,0-2.88,3.33C518.12,772.19,520,779.3,524.48,784.75Z"/><path id="Vector-16" data-name="Vector" class="cls-3" d="M551.13,801.33c.81-.57,1.63-1.11,2.47-1.62,1.22-.74,2.47-1.44,3.7-2.14,4.32-2.42,8.78-4.93,12.25-9.12a32.92,32.92,0,0,0,5.74-10.36,51.77,51.77,0,0,1-2.54-12.44c-.21-.31-.43-.61-.65-.92-.63,7.44-2.47,14.57-7,20-2.8,3.36-6.6,5.51-10.64,7.78-1.29.72-2.59,1.46-3.86,2.23-1,.58-1.9,1.19-2.82,1.84a17.72,17.72,0,0,0-3,3,17.72,17.72,0,0,0-3-3c-.91-.65-1.86-1.26-2.81-1.84-1.28-.77-2.58-1.51-3.87-2.23-4-2.27-7.84-4.42-10.64-7.78-4.53-5.45-6.36-12.56-7-20l-.65.92a52,52,0,0,1-2.54,12.42A32.92,32.92,0,0,0,520,788.45c3.47,4.19,7.93,6.7,12.25,9.12,1.24.7,2.48,1.4,3.7,2.14.84.51,1.67,1,2.47,1.62a14.45,14.45,0,0,1,2.18,2.41c.61.79,1.23,1.65,1.74,2.42l1.9,2.87.52.78,2.41-3.65c.52-.77,1.14-1.63,1.75-2.42A14.45,14.45,0,0,1,551.13,801.33Z"/><path id="Vector-17" data-name="Vector" class="cls-4" d="M450.49,761.76c-11.44,6.82-24.95,9.24-38.17,9.24-3.91,0-7.78-.22-11.57-.58-.59,1.51-1.24,3-2,4.52a45.75,45.75,0,0,1-3.42,5.79c-.58.81-1.16,1.62-1.79,2.41s-1.19,1.47-1.83,2.17a43.54,43.54,0,0,1-4.57,4.34,44.61,44.61,0,0,1-18.48,8.81c4.29,1.3,9.53,2.72,15.35,3.93,1.85.41,3.79.79,5.76,1.13,18.91,3.33,42.26,4,59.31-7.09a44.87,44.87,0,0,0,9.61-8.4C452.76,780.62,450.89,771.2,450.49,761.76Z"/><path id="Vector-18" data-name="Vector" class="cls-3" d="M387.47,809.11a138.27,138.27,0,0,0,24.84,2.44,84.69,84.69,0,0,0,26.11-3.78c1.85-.6,3.67-1.3,5.45-2.07a55.55,55.55,0,0,0,8.35-4.41,46.61,46.61,0,0,0,7.44-5.9c1.11-1,2.14-2.15,3.15-3.29a27.11,27.11,0,0,1-3.79-3.65c-.11-.13-.21-.28-.32-.42a44.87,44.87,0,0,1-9.61,8.4c-17,11.06-40.4,10.42-59.31,7.09-2-.34-3.91-.72-5.76-1.13-5.82-1.21-11.06-2.63-15.35-3.93a44.61,44.61,0,0,0,18.48-8.81,43.54,43.54,0,0,0,4.57-4.34c.64-.7,1.25-1.42,1.83-2.17s1.21-1.6,1.79-2.41a45.75,45.75,0,0,0,3.42-5.79c.75-1.5,1.4-3,2-4.52-2-.19-4-.43-6-.7a44.5,44.5,0,0,1-2.6,5.22,42.08,42.08,0,0,1-4.38,6.11l-.34.38c-7.42,8.16-18.07,12.45-31.71,12.74l-13.76.32,12.71,5.27a177.7,177.7,0,0,0,26.85,8.17C383.44,808.33,385.41,808.74,387.47,809.11Z"/><path id="Vector-19" data-name="Vector" class="cls-4" d="M630.88,788a44.52,44.52,0,0,0,9.61,8.39c17.06,11.06,40.4,10.42,59.31,7.09,2-.34,3.94-.72,5.8-1.13,5.82-1.21,11.06-2.63,15.34-3.93a45,45,0,0,1-18.47-8.78,44.06,44.06,0,0,1-4.61-4.37c-.63-.7-1.24-1.42-1.79-2.15s-1.25-1.62-1.83-2.43a46.88,46.88,0,0,1-3.41-5.79c-.75-1.5-1.41-3-2-4.52-3.78.36-7.65.58-11.56.58-13.23,0-26.73-2.42-38.19-9.26C638.67,771.44,636.74,780.73,630.88,788Z"/><path id="Vector-20" data-name="Vector" class="cls-3" d="M688.83,770.42c.59,1.51,1.25,3,2,4.52a46.88,46.88,0,0,0,3.41,5.79c.58.81,1.16,1.65,1.83,2.43s1.16,1.45,1.79,2.15a44.06,44.06,0,0,0,4.61,4.37,45,45,0,0,0,18.47,8.78c-4.28,1.3-9.52,2.72-15.34,3.93-1.86.41-3.8.79-5.8,1.13-18.91,3.33-42.25,4-59.31-7.09a44.52,44.52,0,0,1-9.61-8.39c-.11.14-.21.28-.32.41a26.57,26.57,0,0,1-3.79,3.65,45.26,45.26,0,0,0,3.18,3.31,47.87,47.87,0,0,0,7.41,5.88,55.88,55.88,0,0,0,8.34,4.4c1.79.77,3.6,1.48,5.45,2.08a85.1,85.1,0,0,0,26.12,3.78,138.38,138.38,0,0,0,24.85-2.44c2-.37,4-.78,5.94-1.18a174.33,174.33,0,0,0,26.84-8.17l12.72-5.27-13.76-.32c-13.61-.29-24.27-4.58-31.65-12.71-.15-.15-.26-.29-.41-.47a37.16,37.16,0,0,1-4.34-6,44.5,44.5,0,0,1-2.6-5.22C692.88,770,690.87,770.23,688.83,770.42Z"/><path id="Vector-21" data-name="Vector" class="cls-4" d="M463.48,784.75c2.79,3.36,6.6,5.51,10.63,7.78,1.3.72,2.6,1.46,3.87,2.23,1,.58,1.91,1.19,2.82,1.84a17.72,17.72,0,0,1,3,3,17.72,17.72,0,0,1,3-3c.91-.64,1.86-1.26,2.82-1.84,1.27-.77,2.57-1.51,3.86-2.23,4-2.27,7.84-4.42,10.64-7.78,4.39-5.28,6.24-12.13,6.93-19.32a22.66,22.66,0,0,0-3.36-4c-.8-.56-1.63-1.1-2.47-1.61-1.22-.74-2.46-1.44-3.7-2.13-4.31-2.43-8.77-4.94-12.25-9.13-5.45-6.55-9.56-20-11.93-29.44-3,17-10.07,30-21.12,38.76C456.25,767.67,457.56,777.63,463.48,784.75Z"/><path id="Vector-22" data-name="Vector" class="cls-3" d="M490.14,801.32c.8-.57,1.62-1.1,2.46-1.61,1.22-.74,2.46-1.44,3.7-2.14,4.32-2.42,8.78-4.93,12.25-9.12a33.12,33.12,0,0,0,5.74-10.36,52,52,0,0,0,2.54-12.42c-.14.2-.28.4-.4.59L514,769.91l-2.41-3.65c-.18-.27-.37-.55-.57-.83-.69,7.19-2.54,14-6.93,19.32-2.8,3.36-6.6,5.51-10.64,7.78-1.29.72-2.59,1.46-3.86,2.23-1,.58-1.91,1.2-2.82,1.84a17.72,17.72,0,0,0-3,3,17.72,17.72,0,0,0-3-3c-.91-.65-1.86-1.26-2.82-1.84-1.27-.77-2.57-1.51-3.87-2.23-4-2.27-7.84-4.42-10.63-7.78-5.92-7.12-7.23-17.08-7.28-26.88-1.28,1-2.59,2-4,2.87-.57.37-1.17.67-1.75,1,.4,9.44,2.27,18.86,8.21,26.27.11.14.21.29.32.42a27.11,27.11,0,0,0,3.79,3.65,60,60,0,0,0,8.46,5.47c1.24.7,2.48,1.4,3.71,2.14.84.51,1.66,1,2.47,1.62a25.78,25.78,0,0,1,3.92,4.83l1.9,2.87.52.78,2.41-3.65c.52-.77,1.14-1.63,1.75-2.42A14.54,14.54,0,0,1,490.14,801.32Z"/><path id="Vector-23" data-name="Vector" class="cls-4" d="M401.65,727.38a49.18,49.18,0,0,1-9.93,17.38,43.41,43.41,0,0,1-23.06,13.14c18.82,5.72,56,13.79,80.44-2,12.24-7.94,19.85-21.11,22.75-39.2C452.77,728.77,425.22,729.7,401.65,727.38Z"/><path id="Vector-24" data-name="Vector" class="cls-3" d="M400.75,770.42c3.79.36,7.66.58,11.57.58,13.22,0,26.73-2.42,38.17-9.24.58-.35,1.18-.65,1.75-1,1.37-.89,2.68-1.86,4-2.87,11.05-8.74,18.11-21.73,21.12-38.76-.51-2-.93-3.82-1.27-5.35a50.73,50.73,0,0,1-4.2,2.92c-2.9,18.09-10.51,31.26-22.75,39.2-24.39,15.81-61.62,7.74-80.44,2a43.41,43.41,0,0,0,23.06-13.14,49.18,49.18,0,0,0,9.93-17.38q-3-.3-5.95-.66a42.45,42.45,0,0,1-8.28,14.15c-7.39,8.17-18.06,12.47-31.69,12.77l-13.76.3,12.72,5.27a178.56,178.56,0,0,0,40.07,10.51C396.73,770,398.72,770.23,400.75,770.42Z"/><path id="Vector-25" data-name="Vector" class="cls-4" d="M585.48,784.75c2.8,3.36,6.6,5.51,10.64,7.78,1.29.72,2.59,1.46,3.87,2.23,1,.58,1.9,1.2,2.82,1.85a16.91,16.91,0,0,1,3,3,17.72,17.72,0,0,1,3-3c.92-.65,1.86-1.26,2.82-1.84,1.27-.77,2.57-1.51,3.87-2.23,4-2.27,7.84-4.42,10.63-7.78,6-7.25,7.28-17.21,7.3-26.88-11-8.73-18.12-21.72-21.12-38.75-2.37,9.43-6.48,22.88-11.93,29.43-3.48,4.19-7.94,6.7-12.25,9.13-1.24.69-2.48,1.39-3.7,2.13-.84.51-1.67,1.05-2.47,1.62a21.94,21.94,0,0,0-3.38,4C579.24,772.63,581.09,779.47,585.48,784.75Z"/><path id="Vector-26" data-name="Vector" class="cls-3" d="M612.13,801.33c.81-.57,1.63-1.11,2.48-1.62,1.22-.74,2.46-1.44,3.7-2.14a59.41,59.41,0,0,0,8.46-5.47,26.57,26.57,0,0,0,3.79-3.65c.11-.13.21-.27.32-.41,5.86-7.31,7.79-16.6,8.2-26.3-.57-.34-1.16-.63-1.72-1-1.38-.89-2.69-1.86-4-2.87,0,9.67-1.27,19.63-7.3,26.88-2.79,3.36-6.6,5.51-10.63,7.78-1.3.72-2.6,1.46-3.87,2.23-1,.58-1.9,1.19-2.82,1.84a17.72,17.72,0,0,0-3,3,16.91,16.91,0,0,0-3-3c-.92-.65-1.86-1.27-2.82-1.85-1.28-.77-2.58-1.51-3.87-2.23-4-2.27-7.84-4.42-10.64-7.78-4.39-5.28-6.24-12.12-6.93-19.3l-.55.81-2.41,3.65-2.42-3.65c-.13-.2-.27-.41-.42-.61a51.77,51.77,0,0,0,2.54,12.44A32.92,32.92,0,0,0,581,788.45c3.48,4.19,7.94,6.7,12.25,9.12,1.24.7,2.48,1.4,3.7,2.14.84.51,1.67,1,2.47,1.62a14.45,14.45,0,0,1,2.18,2.41c.62.79,1.24,1.65,1.75,2.42l2.42,3.65.51-.77,1.9-2.88A26.56,26.56,0,0,1,612.13,801.33Z"/><path id="Vector-27" data-name="Vector" class="cls-4" d="M640.5,755.88c24.38,15.81,61.61,7.74,80.43,2a43.34,43.34,0,0,1-23-13.14A49.08,49.08,0,0,1,688,727.39c-23.58,2.32-51.13,1.38-70.21-10.71C620.64,734.77,628.26,747.94,640.5,755.88Z"/><path id="Vector-28" data-name="Vector" class="cls-3" d="M688,727.39a49.08,49.08,0,0,0,9.93,17.37,43.34,43.34,0,0,0,23,13.14c-18.82,5.72-56,13.79-80.43-2-12.24-7.94-19.86-21.11-22.76-39.2-1.44-.92-2.85-1.88-4.19-2.92-.34,1.53-.77,3.36-1.27,5.36,3,17,10.07,30,21.12,38.75,1.27,1,2.58,2,4,2.87.56.37,1.15.66,1.72,1,11.46,6.84,25,9.26,38.19,9.26,3.91,0,7.78-.22,11.56-.58,2-.19,4-.43,6-.7a178.65,178.65,0,0,0,40-10.51l12.73-5.27-13.77-.3c-13.61-.3-24.27-4.59-31.67-12.74a42.58,42.58,0,0,1-8.29-14.18C692,727,690,727.19,688,727.39Z"/><path id="Vector-29" data-name="Vector" class="cls-4" d="M329.26,542.07a24.83,24.83,0,0,0,8.84,8.27c24.52,14.09,75-1.55,81.95-3.81l1.35-.53,3.31-1.53a180.68,180.68,0,0,1-45.11-8.76c-5.16,0-12,1.34-20.18,6.13C347,549.05,336.27,546.05,329.26,542.07Z"/><path id="Vector-30" data-name="Vector" class="cls-3" d="M425.19,544.51l-.48,0L421.4,546C422.67,545.5,423.91,545,425.19,544.51Z"/><path id="Vector-31" data-name="Vector" class="cls-3" d="M420.05,546.53c-6.94,2.26-57.43,17.9-81.95,3.81a24.83,24.83,0,0,1-8.84-8.27c7,4,17.77,7,30.16-.23,8.22-4.79,15-6.16,20.18-6.13-3.66-1.19-7.43-2.55-11.28-4.08a54,54,0,0,0-11.82,5.2c-17.6,10.25-30.88-4.61-31.43-5.25l-7.19-8.33L320,534a30.41,30.41,0,0,0,15.17,21.32,49.13,49.13,0,0,0,16.71,5.52C370.67,560.64,393.43,556.87,420.05,546.53Z"/><path id="Vector-32" data-name="Vector" class="cls-4" d="M398,475.63a2.9,2.9,0,1,1-4.59,3.54c-12.2-15.81-31.77-18.75-46.26-18.4a153.89,153.89,0,0,0-16.88,1.93c-1.15.24-1.83.41-1.88.43a3.1,3.1,0,0,1-.91.06c-47.68,9.23-62.9,39.1-67.5,53.23,13.65-9,46.6-25.31,82.52-3.92,50.26,29.92,95.74,26.26,96.19,26.22l16.28-1.45-14.79,7C359.86,582,310,563.67,291.82,553.65c23,51.92,77.32,40.59,98.38,36.19,2.64-.55,4.71-1,6.23-1.19l1.95-.28c10.71-1.54,35.81-5.18,47.27,9.44,8.09,10.32,7.37,27.48-2.15,51-19.24,47.5-53.67,62.71-73.12,67.56,25.54,5.65,80.38,14.09,105.48-10.1l3.87-3.73,1,5.28c0,.28,5.26,27.74,13,37,2.8,3.37,6.61,5.51,10.64,7.78,1.3.73,2.59,1.46,3.87,2.23,1,.58,1.9,1.19,2.81,1.84a17,17,0,0,1,3,3,17.72,17.72,0,0,1,3-3c.91-.65,1.86-1.25,2.82-1.84,1.27-.77,2.57-1.5,3.87-2.23,4-2.27,7.84-4.41,10.63-7.78,6.22-7.48,7.58-27.47,7.58-34.75v-.16h5.8v.14c0,7.27,1.36,27.29,7.58,34.77,2.79,3.37,6.6,5.51,10.64,7.78,1.29.73,2.59,1.46,3.86,2.23,1,.58,1.9,1.19,2.82,1.84a17.72,17.72,0,0,1,3,3,17.34,17.34,0,0,1,3-3c.92-.65,1.86-1.26,2.82-1.84,1.27-.77,2.57-1.5,3.87-2.23,4-2.27,7.84-4.41,10.63-7.78,7.73-9.3,12.93-36.76,13-37l1-5.28,3.87,3.73C639.36,731,696,721.64,720.79,716a43.13,43.13,0,0,1-16.1-10.73c-12.28-12.92-17.58-33.47-15.74-61.09,4.68-70.14-26.71-116.18-27-116.64l-2.84-4.08,5-.46a84.4,84.4,0,0,0,34.79-11.38c-15.71-2.21-35.65-11.29-36.66-11.76l-9.57-4.39,10.47-1.12c19.64-2.09,38.59-13.52,50.15-21.9-23,2.82-52.43-7.44-54-8L647,460.13l13-1.26c41.49-4,65.79-29.78,76-43.57-49.78,21.33-143.84,15.12-180.23-1.57-39.18-18-83.89-17.31-84.32-17.29l-1.9,0-.79-1.72c-5.34-11.64-11.59-14.65-15.3-15.33,1.55,9.52-5,19.82-5.33,20.32L445.28,404,443,399.45c-6.63-13.38-14.36-16.92-19-17.75,2.56,8.94-2.08,21.26-2.72,22.88l-1.84,4.69-3.12-3.95c-11-13.87-19.4-17.67-24.23-18.54,6.33,11.32,4.16,29.35,4.05,30.23l-.72,5.69-4.15-3.95c-6.83-6.51-17.76-11.21-24.91-13.81a61.49,61.49,0,0,1,6.88,25.57v5.23L368.84,433a50.3,50.3,0,0,0-23.21-7.51,53.61,53.61,0,0,1,7.75,29.46C368.17,455.54,385.94,460.05,398,475.63ZM476.75,556c-11.3,2.33-20.23,11.33-25.34,21.58,3.07-11.75,12.11-22.56,24.21-25.94,5.46-1.6,10.91-2.42,14.62-6.74,5.76-6.48,3.75-13.69-5-15.44-8.7-2.31-16.89.41-25.81.89-9.64-.06-8.34-9.25-8.14-16,0-7-4.76-9.61-11.14-7.23,6.73-4.22,12.92-1,14,6.91.94,4-1,12.44,5.21,11.83,8.68-1.35,18.21-4.26,27.24-1.87,7.19,1.3,14,7.23,12.4,15.39-1.12,7.09-6.85,12.48-13.33,14.58A75.88,75.88,0,0,1,476.75,556Zm92.87,29.93c11,2.95,11.47-7.9,8.42-15.84a2.63,2.63,0,0,1,1.6-3.38,2.71,2.71,0,0,1,2.06.13,27.53,27.53,0,0,0,10.47,3c7.59.85,10.77-7.29,8.26-13.34a21.16,21.16,0,0,0-6.37-8.41c-2.17-1.65-.35-5.27,2.24-4.6,4.51,1,9.9.75,13.7-1.55s6.18-6.71,6.86-11.43c1.08-9.52-17.31-7.31-23.37-6.52a2.62,2.62,0,0,1-1.26-5c36.61-12.05,36.91-47.77-6.74-30.61,9.3-5.35,21.07-11.62,32.19-6.66,8.07,4.63,7.7,15.72,3.51,22.73-3.6,6-8.88,10.29-14.76,13.68,8.51.52,16.48,3.49,15.6,13.1-1.33,11.17-9.7,17.71-19.72,18.11a23.78,23.78,0,0,1,3,5.35c2.72,6.57.72,15.93-6.23,19.14-4.84,2.11-10,1.39-14.7-.25a19.83,19.83,0,0,1-.57,11.15c-2.39,6.27-10.75,8.69-15.85,5.81-9.41-4.7-15.4-13.81-20.48-22.58C553.58,574.93,560.83,583.14,569.62,585.94ZM520.56,472.48c-4.18-1.5-8.5-3.73-12.78-4-7.77-.71-11.11,7-14.86,12.61a41.87,41.87,0,0,1-7.54,8.34c-8.44,7.39-22.58,12.05-32,3.81a20.75,20.75,0,0,1-6.35-9.17l.52-.25c12.52,17.49,30.56,6.9,42.62-4.95,3.59-3.76,6.91-9,12.06-11.23,4.2-1.82,8.83-.78,13.12.32a17.68,17.68,0,0,0-5.43-5c-5.26-2.83-10.39-1.57-15.54.57-1.58,3.1-6.41,11.8-13.12,16.79-8.27,6.15-14.1,3-15,2.63s-.64-7.16-.64-7.16c-.65,1.62-4.44,5.59-4.44,5.59s-.69-.6-3.19-2.45c-2-1.5-4.39-5.93-5.22-7.57A61.19,61.19,0,0,1,432,466.46l.21-.54c14.95,2.61,30.5.83,45.09-2.59,8-1.52,13.89-5.46,22.27-7,9-1.61,17.37,5.09,19.95,13.34Zm-46.55-23c7-2.9,14.51-5.67,22.2-6,7.74-.5,16.12,1.06,22,6-14.55-5.3-28.76-.32-42.28,5.38-14.61,5.27-31.91,3.59-44.77-5C445.29,454.08,460.32,454.59,474,449.52Zm-90.87,1.39c6.57,8.85,14.94,11.28,24.77,15.65a10.34,10.34,0,0,1,3.27,16.31c-4.19,4.28-10.21,4.54-15.51,3.4,4.42-.91,9.81-2.28,12.36-5.94,2-3.39,1.48-7.38-2.64-9.21C396.3,467.2,385.4,461.55,383.14,450.91Z"/><path id="Vector-33" data-name="Vector" class="cls-3" d="M401.65,727.38c23.57,2.32,51.12,1.39,70.2-10.7a50.73,50.73,0,0,0,4.2-2.92c.34,1.53.76,3.35,1.27,5.35,2.37,9.42,6.48,22.89,11.93,29.44,3.48,4.19,7.94,6.7,12.25,9.13,1.24.69,2.48,1.39,3.7,2.13.84.51,1.67,1.05,2.47,1.61a22.66,22.66,0,0,1,3.36,4c.2.28.39.56.57.83l2.41,3.65,2.42-3.65c.12-.19.26-.39.4-.59l.65-.92a19.14,19.14,0,0,1,2.88-3.33c.8-.57,1.63-1.1,2.47-1.61,1.22-.74,2.46-1.44,3.7-2.13,4.31-2.43,8.77-4.94,12.25-9.13,2.79-3.35,4.7-8.3,6-13.54,1.32,5.24,3.24,10.19,6,13.54,3.48,4.19,7.94,6.7,12.25,9.13,1.24.69,2.48,1.39,3.7,2.13.84.51,1.67,1.05,2.47,1.61a19.76,19.76,0,0,1,2.86,3.31c.22.31.44.61.65.92s.29.41.42.61l2.42,3.65,2.41-3.65.55-.81a21.94,21.94,0,0,1,3.38-4c.8-.57,1.63-1.11,2.47-1.62,1.22-.74,2.46-1.44,3.7-2.13,4.31-2.43,8.77-4.94,12.25-9.13,5.45-6.55,9.56-20,11.93-29.43.5-2,.93-3.83,1.27-5.36,1.34,1,2.75,2,4.19,2.92,19.08,12.09,46.63,13,70.21,10.71,2-.2,4-.43,5.95-.67a268,268,0,0,0,40.57-8.21L754,712.65l-20.41.19a36.52,36.52,0,0,1-24.8-11.64c-11.06-11.71-15.79-30.76-14.07-56.62,4.08-61.12-17.84-103.55-25.52-116.36,24.2-3.55,39.7-16.35,40.39-16.93l7.34-6.15-9.52,1.05c-9,1-24.16-4.06-33.81-7.82,29.3-7.12,53.82-29.74,55-30.8l18.07-16.86-21.48,12.22c-13.37,7.61-37.18,3.39-51.68-.3,50.82-10.91,73-52.89,73.25-53.34l4.56-8.86-8.6,5c-43.33,25.33-146.76,20.36-184.58,3-36.29-16.64-75.87-17.8-85-17.84-10.07-20.2-23.74-17.05-24.33-16.91l-3.42.86,1.5,3.18c2,4.25.47,10-1.34,14.27-11.77-19.18-26.15-16.26-26.8-16.1l-4.61,1,3,3.64c3,3.63,1.82,11.47.35,17-18.86-21.48-31.59-16.41-32.15-16.17l-4.12,1.75,3.29,3c5.55,5.13,6.51,16.79,6.31,24.59-12.14-8.88-29.21-13.58-30-13.8l-7.52-2,4.36,6.46A59.7,59.7,0,0,1,367,425.29a53,53,0,0,0-27-5.61l-5,.56,2.94,4a49.06,49.06,0,0,1,9.67,30.58c1.86,0,3.8,0,5.8.06a53.61,53.61,0,0,0-7.75-29.46A50.3,50.3,0,0,1,368.84,433l4.44,2.78v-5.23a61.49,61.49,0,0,0-6.88-25.57c7.15,2.6,18.08,7.3,24.91,13.81l4.15,3.95.72-5.69c.11-.88,2.28-18.91-4.05-30.23,4.83.87,13.26,4.67,24.23,18.54l3.12,3.95,1.84-4.69C422,403,426.6,390.64,424,381.7c4.62.83,12.35,4.37,19,17.75l2.26,4.56,2.77-4.27c.32-.5,6.88-10.8,5.33-20.32,3.71.68,10,3.69,15.3,15.33l.79,1.72,1.9,0c.43,0,45.14-.68,84.32,17.29,36.39,16.69,130.45,22.9,180.23,1.57-10.18,13.79-34.48,39.55-76,43.57l-13,1.26,12.31,4.35c1.52.54,31,10.8,54,8-11.56,8.38-30.51,19.81-50.15,21.9l-10.47,1.12,9.57,4.39c1,.47,21,9.55,36.66,11.76A84.4,84.4,0,0,1,664,523l-5,.46,2.84,4.08c.32.46,31.71,46.5,27,116.64-1.84,27.62,3.46,48.17,15.74,61.09A43.13,43.13,0,0,0,720.79,716c-24.81,5.63-81.43,15-107.06-9.75l-3.87-3.73-1,5.28c-.06.28-5.26,27.74-13,37-2.79,3.37-6.6,5.51-10.63,7.78-1.3.73-2.6,1.46-3.87,2.23-1,.58-1.9,1.19-2.82,1.84a17.34,17.34,0,0,0-3,3,17.72,17.72,0,0,0-3-3c-.92-.65-1.86-1.26-2.82-1.84-1.27-.77-2.57-1.5-3.86-2.23-4-2.27-7.85-4.41-10.64-7.78-6.22-7.48-7.58-27.5-7.58-34.77v-.14h-5.8v.16c0,7.28-1.36,27.27-7.58,34.75-2.79,3.37-6.6,5.51-10.63,7.78-1.3.73-2.6,1.46-3.87,2.23-1,.59-1.91,1.19-2.82,1.84a17.72,17.72,0,0,0-3,3,17,17,0,0,0-3-3c-.91-.65-1.85-1.26-2.81-1.84-1.28-.77-2.57-1.5-3.87-2.23-4-2.27-7.84-4.41-10.64-7.78-7.72-9.3-12.93-36.76-13-37l-1-5.28-3.87,3.73c-25.1,24.19-79.94,15.75-105.48,10.1,19.45-4.85,53.88-20.06,73.12-67.56,9.52-23.51,10.24-40.67,2.15-51-11.46-14.62-36.56-11-47.27-9.44l-1.95.28c-1.52.2-3.59.64-6.23,1.19-21.06,4.4-75.37,15.73-98.38-36.19,18.19,10,68,28.36,148.33-9.42l14.79-7-16.28,1.45c-.45,0-45.93,3.7-96.19-26.22-35.92-21.39-68.87-5.07-82.52,3.92,4.6-14.13,19.82-44,67.5-53.23a2.87,2.87,0,0,1-.6-5.65l1-.26c-67.33,12.5-75.44,65.23-75.52,65.82l-1.06,7.74,5.85-5.18c1.58-1.4,39.15-33.91,82.37-8.18a200.21,200.21,0,0,0,28.81,14.15c3.85,1.53,7.62,2.89,11.28,4.08a180.68,180.68,0,0,0,45.11,8.76l.48,0c-1.28.53-2.52,1-3.79,1.49l-1.35.53c-26.62,10.34-49.38,14.11-68.13,14.35-41.92.54-63.87-16.45-64.2-16.72L280,537.93l3.19,9.41c22.38,66.09,87,52.59,108.23,48.17,2.51-.53,4.5-.94,5.81-1.12l2-.29c9.72-1.4,32.5-4.69,41.89,7.28,6.72,8.58,5.72,23.8-3,45.25-26.21,64.71-79.93,66.18-82.2,66.21l-18.85.26,18.05,5.41a268.38,268.38,0,0,0,40.57,8.21Q398.63,727.08,401.65,727.38Z"/><path id="Vector-34" data-name="Vector" class="cls-3" d="M330.24,462.7a153.89,153.89,0,0,1,16.88-1.93A94.91,94.91,0,0,0,330.24,462.7Z"/><path id="Vector-35" data-name="Vector" class="cls-3" d="M499,539.36c1.63-8.16-5.21-14.09-12.4-15.39-9-2.39-18.56.52-27.24,1.87-6.2.61-4.27-7.84-5.21-11.83-1-7.9-7.23-11.13-14-6.91,6.38-2.38,11.17.26,11.14,7.23-.2,6.78-1.5,16,8.14,16,8.92-.48,17.11-3.2,25.81-.89,8.71,1.75,10.72,9,5,15.44-3.71,4.32-9.16,5.14-14.62,6.74-12.1,3.38-21.14,14.19-24.21,25.94,5.11-10.25,14-19.25,25.34-21.58a75.88,75.88,0,0,0,8.92-2.07C492.15,551.84,497.88,546.45,499,539.36Z"/><path class="cls-3" d="M324.81,461.08a2.89,2.89,0,0,0,2.64,2.11,3.1,3.1,0,0,0,.91-.06c.05,0,.73-.19,1.88-.43a94.91,94.91,0,0,1,16.88-1.93c14.49-.35,34.06,2.59,46.26,18.4a2.9,2.9,0,0,0,4.59-3.54c-12-15.58-29.8-20.09-44.59-20.72-2-.08-3.94-.1-5.8-.06a97.79,97.79,0,0,0-19.71,2.43l-1,.26A2.89,2.89,0,0,0,324.81,461.08Z"/><path id="Vector-36" data-name="Vector" class="cls-3" d="M408,480.33c-2.55,3.66-7.94,5-12.36,5.94,5.3,1.14,11.32.88,15.51-3.4a10.34,10.34,0,0,0-3.27-16.31c-9.83-4.37-18.2-6.8-24.77-15.65,2.26,10.64,13.16,16.29,22.25,20.21C409.51,473,410,476.94,408,480.33Z"/><path id="Vector-37" data-name="Vector" class="cls-3" d="M499.59,456.29c-8.38,1.58-14.25,5.52-22.27,7-14.59,3.42-30.14,5.2-45.09,2.59l-.21.54a61.19,61.19,0,0,0,20.76,4.91c.83,1.64,3.2,6.07,5.22,7.57,2.5,1.85,3.19,2.45,3.19,2.45s3.79-4,4.44-5.59c0,0-.23,6.79.64,7.16s6.71,3.52,15-2.63c6.71-5,11.54-13.69,13.12-16.79,5.15-2.14,10.28-3.4,15.54-.57a17.68,17.68,0,0,1,5.43,5c-4.29-1.1-8.92-2.14-13.12-.32-5.15,2.22-8.47,7.47-12.06,11.23-12.06,11.85-30.1,22.44-42.62,4.95l-.52.25a20.75,20.75,0,0,0,6.35,9.17c9.43,8.24,23.57,3.58,32-3.81a41.87,41.87,0,0,0,7.54-8.34c3.75-5.58,7.09-13.32,14.86-12.61,4.28.28,8.6,2.51,12.78,4l-1-2.85C517,461.38,508.56,454.68,499.59,456.29Z"/><path id="Vector-38" data-name="Vector" class="cls-3" d="M476,454.93c13.52-5.7,27.73-10.68,42.28-5.38-5.92-5-14.3-6.53-22-6-7.69.33-15.16,3.1-22.2,6-13.69,5.07-28.72,4.56-42.81.4C444.06,458.52,461.36,460.2,476,454.93Z"/><path id="Vector-39" data-name="Vector" class="cls-3" d="M568,590.53c5.1,2.88,13.46.46,15.85-5.81a19.83,19.83,0,0,0,.57-11.15c4.75,1.64,9.86,2.36,14.7.25,6.95-3.21,8.95-12.57,6.23-19.14a23.78,23.78,0,0,0-3-5.35c10-.4,18.39-6.94,19.72-18.11.88-9.61-7.09-12.58-15.6-13.1,5.88-3.39,11.16-7.72,14.76-13.68,4.19-7,4.56-18.1-3.51-22.73-11.12-5-22.89,1.31-32.19,6.66,43.65-17.16,43.35,18.56,6.74,30.61a2.62,2.62,0,0,0,1.26,5c6.06-.79,24.45-3,23.37,6.52-.68,4.72-3,9.24-6.86,11.43s-9.19,2.53-13.7,1.55c-2.59-.67-4.41,3-2.24,4.6a21.16,21.16,0,0,1,6.37,8.41c2.51,6.05-.67,14.19-8.26,13.34a27.53,27.53,0,0,1-10.47-3,2.71,2.71,0,0,0-2.06-.13,2.63,2.63,0,0,0-1.6,3.38c3.05,7.94,2.61,18.79-8.42,15.84-8.79-2.8-16-11-22.15-18C552.55,576.72,558.54,585.83,568,590.53Z"/></g></g></svg>