<svg xmlns="http://www.w3.org/2000/svg" viewBox="0 0 1080 1080"><defs><style>.cls-1{fill:#1b458d;}.cls-2{fill:#fcfcfc;}.cls-3{fill:#f8a21b;}</style></defs><g id="logo-Nasdem"><rect id="background" class="cls-1" width="1089.09" height="1089.09"/><g id="symbol"><path id="Vector" class="cls-2" d="M820,260A396,396,0,0,0,144,540c0,105.78,41.19,205.21,116,280a396,396,0,0,0,560,0C894.8,745.2,936,645.77,936,540A393.34,393.34,0,0,0,820,260ZM540,917.61c-208.21,0-377.6-169.39-377.6-377.62S331.78,162.39,540,162.39,917.61,331.78,917.61,540,748.2,917.61,540,917.61Z"/><path id="Vector-2" data-name="Vector" class="cls-3" d="M868.46,539.26C850.08,693.43,695.89,821.68,526.92,821.68c-123,0-232-60.38-298.84-153.1q-3.11-4.3-6.08-8.7l3,1a449.73,449.73,0,0,0,137.67,21.45c215.63,0,395.85-151.56,439.94-354-1,4.37,21.34,29.46,24.5,34.59C863.5,421.81,875.24,482.3,868.46,539.26Z"/><path id="Vector-3" data-name="Vector" class="cls-3" d="M580.9,565.06a433.84,433.84,0,0,1-369.85,49.77,338.94,338.94,0,0,1,13.82-195.34c79.32,89.95,195.43,146.67,324.77,146.67Q565.41,566.16,580.9,565.06Z"/></g></g></svg>