<svg xmlns="http://www.w3.org/2000/svg" viewBox="0 0 1080 1080"><defs><style>.cls-1{fill:#fff;}.cls-2{fill:#d92625;}.cls-2,.cls-3,.cls-4,.cls-5,.cls-6{fill-rule:evenodd;}.cls-3{fill:#1f1a17;}.cls-4{fill:#f88d8d;}.cls-5{fill:#72716f;}.cls-6{fill:#fefefe;}</style></defs><g id="logo-Aceh"><g id="symbol"><rect class="cls-1" y="3.6" width="1078.17" height="1076.4"/><polygon class="cls-2" points="181.93 1077.52 1079.65 1076.95 1079.4 997.27 181.89 997.29 181.93 1077.52"/><polygon class="cls-2" points="182.25 77.44 1077.14 77.64 1077.15 3.42 182.28 3.56 182.25 77.44"/><polygon class="cls-3" points="181.64 162.98 1078.02 163.64 1078.02 100.52 181.64 100.53 181.64 162.98"/><polygon class="cls-3" points="181.69 972.59 1078.84 972.53 1078.88 912.59 181.66 912.59 181.69 972.59"/><path class="cls-3" d="M77.39,444.63v-46c18.24.48,31.65,2.83,31.78,22.73.14,19.67-13.37,23.17-31.77,23.24ZM8.94,394.44c16.69,10,19.6-5.71,19.55,39.33,0,13.79,2.4,45.35-1.85,56.07-6.41,11.49-16.4.57-16.54,11.21,16.19,0,80.71,3.28,89-2-7.42-5.43-17.3-.6-20.8-12.16-2.19-7.27-1.28-27.65-.31-36.08,9.67.67,7.29,2.86,12.15,9.79,3.78,5.39,7.82,8.06,11.4,13.29,5.26,7.7,14.71,21.15,21.63,26.88l56.71.26c-5.27-7.27-8.17-4.11-16-10.77L129.8,448.42c43.08-12.79,41.69-45.38-5-53.67-18.54-3.3-38.29-2.37-57.56-2.37C38.84,392.38,15.37,390.7,8.94,394.44Z"/><path class="cls-4" d="M182.25,77.44c3.6,5.16,50.52,2.45,55,2.45h783.68c17.25,0,40.17,2.57,56.74-.46,1.45-11,1.46-66.89,0-77.88C1061.51-1.37,876,1,854.43,1l-668.91.08c-5.53,1.82,1.85-4.95-3.24,2.47l894.87-.14V77.64Z"/><path class="cls-3" d="M88.5,12c16.8.8,25.88,4.94,26.25,22.28.42,19.05-8.31,23.61-26.81,23.77l.56-46ZM20.31,9.45c7,2.68,9.89,2,16.72,5.22,3.41,12,4,75.78.44,89.44-4.83,8.19-13.77.83-17.81,10.92,8.66,0,83.9,2.14,91.85-2.09-20.79-11.86-23.28,11-23.54-48.11,22.06,0,43.42.07,61.92-7.95,19.5-8.44,21.07-30.79,1.29-42.39C132.08,3.29,80.36,6.36,52.8,6.36,45.15,6.36,25.55,3.24,20.31,9.45Z"/><path class="cls-5" d="M181.66,912.59h897.22l0,59.94-897.15.06,0-60ZM181.05,974c17.65,2.43,38.91.38,57,.38H406c63.21,0,668.13,3,674.31-1.67l-.18-62.47-899.24.19Z"/><path class="cls-3" d="M19.69,613.05c6.64-1.68,3.21-.54,7.4-8.21,7.35-13.48,21.19-12.45,38.91-12.17,0,18.07,2.19,77.41-1.66,90.72L48,691.74c-.18-.36-.8.47-1.14.77,7.31,3.68,80.36,4,88,0-14.21-13.09-19.53,10.33-19.47-39.34q0-30,0-59.9c43-5.3,33.72,13.18,45,20.07,4.46-5.39,3-19.46,1.92-28l-144,.59Z"/><path class="cls-3" d="M74.16,816.61l14.7,29.57-32.72-.42,18-29.15ZM42.81,880.43c-1.54-7.74.13-10.14,3.27-16.6,7.24-14.89,5.71-10.93,48.78-10.83,3.42,11.42,10.34,15,9.56,28.11l-18,3.89c3.25,2.86-1.57.49,4.17,2l78.15.54c-5.17-11.62-5.75,4.11-21.21-24.81-5.66-10.6-9.93-17.61-15.68-27.77-7.86-13.88-26.21-43.38-30.49-56.17l-19.47.56L25.21,878.14c-4.93,4.86-7,2.55-13.33,6.86a5.11,5.11,0,0,0,1.3.77l23.07,1.84c10.33,0,17.63,1.7,22.42-3.3Z"/><path class="cls-3" d="M74.06,237.51,88.9,266.65l-32.51-.57,17.67-28.57Zm-62.4,69.75c6.56.29,41.36,2,46.89-1.82l-16.07-4C41,290.34,47.05,281,52.8,273.84l41.88-.47c3.84,11.65,9.93,14.37,10,28.4l-18.4,3c.5,1,1.18.8,1.39,1.34l81,1.4c-5-9.9-5.8,3.76-20.33-23.06-10.38-19.17-43.06-72.38-47.12-85-24.09,0-16.18-2.56-34,27.32-6.81,11.38-36.1,65.13-42.62,71.23C17.81,304.25,14.64,301.34,11.66,307.26Z"/><path class="cls-3" d="M46.61,971.94c10,11.42,19.39-.4,19.39,22.76,0,83.13,5.81,72.81-18.9,82.8,3.5,3.3-2.16.36,4.14,2.08l83.84-.15c-9.16-9.75-19.68-1.45-19.67-22.63,0-102.71-1.79-66.56,19.7-82.79C127.29,968.82,64.21,971.93,46.61,971.94Z"/><path class="cls-6" d="M77.39,444.63c18.4-.07,31.91-3.57,31.77-23.24-.13-19.9-13.54-22.25-31.78-22.73Z"/><path class="cls-6" d="M87.94,58.07c18.5-.16,27.23-4.72,26.81-23.77C114.38,17,105.3,12.82,88.5,12Z"/><path class="cls-2" d="M693,540.92l18.07.64,22.4-.24-19.15-49.06C707.38,503.42,697.46,527.79,693,540.92Z"/><polygon class="cls-6" points="56.14 845.76 88.86 846.18 74.16 816.61 56.14 845.76"/><polygon class="cls-6" points="56.39 266.08 88.9 266.65 74.06 237.51 56.39 266.08"/><polygon class="cls-2" points="1080.24 187.01 182.86 187.09 182.94 889.2 1080.26 888.61 1080.24 187.01"/><g id="Label"><path class="cls-6" d="M866.39,476.78c-4.16-2.3-82.78-2.3-86.75,0,.88,10.88,18.68-2.79,19.79,24.59L799.35,593C798,618,782,606.46,779.62,616.11c4.26,2.38,82.37,2.38,86.8,0-2.76-11.27-18.85,3.76-19.43-24.51-.29-13.72-.26-28.91.17-42.65l46.36,0c.49,13.26.82,31.1,0,44.21-.42,6.72-2,12.31-6,15.27-8.73,6.48-11.12-1.75-13.31,7.63,4.89,2.49,81.49,2.42,86.2,0-1.66-5.91,2.87-2-6.42-4.9-8.24-2.56-12.12-3.13-12.92-21.25l.11-88.65c2-28.62,17.63-12.67,19.25-24.53-4.64-2.35-81.56-2.45-86.21,0,1.93,13.56,26.52-12.78,19,61.93l-45.58-.06c-1.24-8.95-1.17-31.29-.49-40.66C848.81,474.41,865.22,488.21,866.39,476.78Z"/><path class="cls-6" d="M758.31,475.91c-14.54-1.38-127.62-2-133.56.87,1,9.07,6.71,1.68,14.31,8.56,4.21,3.81,5.08,10.35,5.15,17.58l0,88.69c-.59,28.22-17.06,13.48-19.54,24.5,8.34,4,115.29,1.47,134.07,1.23,1.81-6.19,10.85-39.63,6.85-45.06-8,1.79-2.53,2.52-10.6,16.83-3.72,6.61-7.29,10.12-14.26,13.65-12.1,6.12-35.48,7.91-47.27,2.16-2.15-10.12-2.33-43.66-1-55.37,34.74,0,19.68,27.81,34.18,29.11l.06-52.73c0-4.73.65-11.12-2.05-15-8.54,3.25-1.45,9.05-10.32,21.12-4.55,6.18-11.77,8.3-22.31,7.4l.15-54.18c43.63-2.62,51.64.21,60,23.13,2.41,6.63-.16,4.71,5.25,5.55C760.1,508.75,759.12,483.37,758.31,475.91Z"/><path class="cls-6" d="M608.26,583.44c-4.8,3.51-11,13.06-24.29,19.87-35.72,18.31-62.29-9.22-60.44-62.55,2.73-79.15,63.92-62.74,76.16-35.73,6.83,15.05-.47,11.65,8.57,13.43l1.63-44.85c-13.84.58-2.1,12.13-23.24,5.07-8.44-2.81-14.63-4.6-24.21-5.6-18.85-2-36.59.87-51.49,8C487.28,492.46,467.26,521,473.53,559c12.63,76.73,114.28,76.85,141.09,28.92Z"/><path class="cls-6" d="M359.56,563.27c3.57-10.39,11.43-29.69,16.88-38.53l15.17,38.85-17.74.19-14.31-.51Zm-44,52.84c5.07,2.77,41.69,2.48,46.4,0-2-7.28-3.57-2.05-11.84-5.7-11.83-5.24.45-28.15,5.78-38.16l39.19,0c3.64,7,13.27,27.4,10.78,36.67-2.38,1.61-4.45,2.28-8.62,3-9.26,1.58-6.58-1.78-8.59,4.26,5.59,2.82,76.11,1.94,80.1,0-1.6-8.44-5.88-1.14-12.17-12.3-9.24-16.38-45.05-111.13-55-128.21l-15.86-.06c-12.7,25.55-34.32,78.66-47.61,109.73-2.46,5.77-5,13-7.86,18.42C324.3,614.82,317.47,607.7,315.6,616.11Z"/></g></g></g></svg>