<svg xmlns="http://www.w3.org/2000/svg" viewBox="0 0 1080 1080"><defs><style>.cls-1{fill:#fcfcfc;}.cls-2{fill:#00763e;}.cls-3{fill:#ffce4d;}</style></defs><g id="logo-PAS"><rect id="background" class="cls-1" width="1080" height="1080"/><g id="symbol"><path class="cls-2" d="M917.59,511l-90.1-90.1V293.5a41,41,0,0,0-41-41H659.08L569,162.41a41,41,0,0,0-58,0l-90.1,90.1H293.5a41,41,0,0,0-41,41V420.92L162.41,511a41,41,0,0,0,0,58l90.1,90.1V786.5a41,41,0,0,0,41,41H420.92l90.1,90.1a41,41,0,0,0,58,0l90.1-90.1H786.5a41,41,0,0,0,41-41V659.08l90.1-90.1A41,41,0,0,0,917.59,511Z"/><path class="cls-3" d="M801.6,530a6.51,6.51,0,0,0-6.51,6.51v.1l-2.62.68L623.85,390.78a6.4,6.4,0,0,0,1-3.46A6.51,6.51,0,0,0,614.67,382L554,317.36a6.51,6.51,0,1,0-8.78-.1l-75.11,48.55a6.51,6.51,0,1,0-10.12,8l-72,73.64a6.51,6.51,0,1,0-6.9,10.5V620.46c-24.28.17-41.45-1.22-47.24-2.2-15.06-2.56-13.53,4.85-10.21,7.91s8.42,5.87,10,10.21-12.51,17.36-2.3,27.07,66.38,14,121,7.66,110.81-2.3,128.94-5.62,101.87-91.4,101.87-91.4l.62-.18a6.49,6.49,0,0,0,2.33,1.71,6.6,6.6,0,0,0,1.23-2.73L716,564.65a7,7,0,0,0,2.81,2.29,7,7,0,0,0,1.38-3.49l25.41-7.28a7,7,0,0,0,2.91,2.43,7.05,7.05,0,0,0,1.4-3.67l47.29-13.55A6.51,6.51,0,1,0,801.6,530Zm-52.74,18.6a8.15,8.15,0,0,0-4-4.2,6.2,6.2,0,0,0-1,1.91L622.15,392.6c.13-.1.27-.2.39-.31L790.12,537.94C782.57,539.9,767.58,543.8,748.86,548.64ZM613.22,383.32a6.42,6.42,0,0,0-1.38,4,6.51,6.51,0,0,0,4.46,6.18V564.93l-2,.41h0c-3.11-10.45-.63-29.88-.63-29.88L601.77,529l11.91,1.7V454.94L599,442.68l14.64,6.13V400.47s-7.15,9.7-11.06,18.21-9.36,16.68-10.73,20.6S579,524.72,579,524.72l11.23,1-21.72,50.18c-6.29,1.65-11.86,3.21-16.75,4.65V318.69a6,6,0,0,0,.59-.23Zm-228,237.09V458a6.52,6.52,0,0,0,4.47-6.18,6.39,6.39,0,0,0-.54-2.59L461.66,375a6.63,6.63,0,0,0,.87.36v239.1A625.31,625.31,0,0,1,385.17,620.41Zm81.45-6.52V375.37a6.52,6.52,0,0,0,4.47-6.18,6.84,6.84,0,0,0-.18-1.5l76.15-49.22.58.22v263.1c-1.59.48-3.1,1-4.52,1.4L540,347.87c-35.38,50-37.3,179.28-37.3,179.28l11.92,7.79-12.26-.68-4.08,60.42,31.45.57,5.31,4.11A536.27,536.27,0,0,1,466.62,613.89ZM577.68,592c-22.47,4.59-12.77-4.85-.77-7.92l39.39-10v8.55C597.25,587.38,582.86,590.9,577.68,592Zm42.71-10.4V573l97.46-24.71c-39.06,5.14-71.26,10.6-97.46,15.81V393.6L743.45,549c0,.34,0,.69,0,1l-24.61,6.36a7.78,7.78,0,0,0-3.65-3.61,7.88,7.88,0,0,0-1.45,4.93L686,564.85a7.77,7.77,0,0,0-3.53-3.39,7.65,7.65,0,0,0-1.46,4.67C659.44,571.66,638.15,577.09,620.39,581.56Z"/><path class="cls-3" d="M458.06,396.38s-5.06,8.85-12.21,27.07-15,43.23-15.83,51.06-9,75.75-9,75.75l15.66,11.4-19.74-1.19v52.76c21.61,3.41,42.72-18,42.72-18V554.85Z"/><path class="cls-3" d="M378.92,605.33V531.45l-13.28-10.6,13.28,4.09V476.68s-16.22,37-17.24,47.23-5,34.47-12.76,52.35a71.79,71.79,0,0,0-5.62,34.46C357.72,617.49,378.92,605.33,378.92,605.33Z"/><path class="cls-3" d="M647.55,693.57c9.19-1,13.28-5.44,13.28-5.44-25.53,1-21.45-4.77-21.45-4.77l8.68-2c-8.17-3.23-19.74-.51-19.74-.51a23.21,23.21,0,0,1,5.45,19.57A203.64,203.64,0,0,0,616.3,688c-1.49,0-4.78-3.08-6.08-3.91-2.05-1.32-4.1-2.63-6.21-3.86a57.68,57.68,0,0,0-13-5.93c-2.42,0-5-1-7.52-1a62.74,62.74,0,0,0-7.84.71q-8.6,1-17.25,1.54a162.86,162.86,0,0,1-22.63-.5c-13.59-1-27.23-2.13-40.87-2.22a258.15,258.15,0,0,0-33.91,2.1c-9.2,1.16-18.3,3-27.5,4.18-26.52,3.48-54.38.86-80.39-4.94a210.19,210.19,0,0,0,40.81,9.3c26.49,3,53.16-2.92,79.7.11,29.78,3.41,66.4,17.87,66.4,17.87-4.06-6.8-35.94-21.44-35.94-21.44,4.67-.14,9.59-.72,14.22.08a69.53,69.53,0,0,1,13.22,4.18A227.7,227.7,0,0,1,556,696.13c38.94,21,88.17,25.87,88.17,25.87-58.55-15.83-59.92-33.2-59.92-33.2,62.64,40.68,120.51,14.82,120.51,14.82C647.55,709.91,647.55,693.57,647.55,693.57Z"/><path class="cls-3" d="M489.58,691.59c-11.8-3.68-24.45-5.77-36.93-4.93-13,.87-25.78,3.36-38.71,4.56-13.11,1.22-26.18-.66-39.26-1.37q-10.57-.57-21.14-1.22L343,688c-2.88-.19-7.48.41-10.14-.65a248,248,0,0,0,60,12.25s-18.77,7-55.28-2.93c0,0,18.51,20.55,69.83,6.25,24.46-6.81,50.31-8.93,75.61-7.27a215.14,215.14,0,0,1,23.46,2.83c-2.59-.46-5.64-2.7-8.12-3.71C495.46,693.56,492.54,692.52,489.58,691.59Z"/><path class="cls-3" d="M624.49,661.57c-12.68-2.72-31.06,6.3-31.06,6.3,3.74,2.56,31.83,20.09,31.83,20.09l-6-13.84,48.51,2S637.17,664.3,624.49,661.57Z"/></g></g></svg>