<svg id="logo-PDI" xmlns="http://www.w3.org/2000/svg" viewBox="0 0 1080 1080"><defs><style>.cls-1{fill:#d71a21;}.cls-2{fill:#fcfcfc;}.cls-3{fill:#231f20;}</style></defs><rect id="background" class="cls-1" width="1080" height="1080"/><g id="symbol"><path id="Vector" class="cls-2" d="M540,144C321.31,144,144,321.3,144,540S321.31,936,540,936,936,758.7,936,540,758.72,144,540,144Zm0,767.93C334.61,911.94,168.08,745.4,168.08,540S334.61,168.06,540,168.06,911.92,334.6,911.92,540,745.42,911.94,540,911.94Z"/><path id="Vector-2" data-name="Vector" class="cls-3" d="M551.76,707.33a4.74,4.74,0,0,0-6.72,0l-8.7,8.7a4.75,4.75,0,0,0,0,6.71l.17.17a4.71,4.71,0,0,0,6.68,0l8.74-8.7a4.76,4.76,0,0,0,0-6.72Z"/><path id="Vector-3" data-name="Vector" class="cls-3" d="M496.88,707.33a4.7,4.7,0,0,0-6.68,0l-.17.16a4.76,4.76,0,0,0,0,6.72l8.7,8.7a4.76,4.76,0,0,0,6.72,0l.16-.17a4.75,4.75,0,0,0,0-6.71Z"/><path id="Vector-4" data-name="Vector" class="cls-3" d="M540,168.06C334.61,168.06,168.08,334.6,168.08,540S334.61,911.94,540,911.94,911.92,745.4,911.92,540,745.42,168.06,540,168.06ZM432.86,559.58a110.92,110.92,0,0,1,24.65,13.2,13.62,13.62,0,1,0,17.57,19.49,30,30,0,0,1,2.84,18S439.35,615.59,432.86,559.58ZM521,752.43c-9.37,0-17-5.14-17-11.48s7.6-11.47,17-11.47,17,5.14,17,11.47S530.34,752.43,521,752.43Zm50-16.09c-2.78,3.08-7.35,3.77-11.35,3.7a30,30,0,0,1-14.46-3.8c-3.73-2.15-7.11-4.73-11-6.62a29,29,0,0,0-12.84-2.87h-.66a29,29,0,0,0-12.83,2.87c-3.91,1.89-7.28,4.47-11,6.62a29.85,29.85,0,0,1-14.43,3.8c-4,.07-8.6-.62-11.34-3.7-4.87-5.39-2.09-13.93,1-19.52,9.16-16.87,28.75-27.19,48.66-27.19h.66c19.92,0,39.5,10.32,48.7,27.19C573,722.41,575.81,731,571,736.34Zm9.16-120.45,13.5-10.39A13.62,13.62,0,1,0,615,589l20.28-15.61S627.42,637.26,580.11,615.89ZM627,866.81c-1.66-144,29.6-243.61,29.6-243.61,42.25,20.28,86.15,5.06,86.15,5.06,4.23-22.79-14.62-50.68-14.62-50.68s81.34-13.5,103.87-97.69-73.21-116.28-73.21-116.28c13.53,13.53,47.87,47,25.34,98s-107.55,36.32-107.55,36.32c-48.13-51.54-119.35-35.76-119.35-35.76-41.39-38-111.49-21.67-149.24-20.54-9.42.26-18.92.82-28.31-.1-10.85-1.1-20.94-4.73-28.55-12.81C332.86,409.39,323.5,372,339.21,349c12.44-18.32,33-30.56,52.54-40,7.93-3.84,16.11-7.28,24.38-10.32,2.35-.86,7.54-3.84,10.12-3.44-40-5.93-165.54,24.48-151.75,123.32s81.09,108.12,81.09,108.12c-36.89,1.68-47,16.3-47,16.3,16.87,25.91,43.33,31.83,43.33,31.83-58.25,45.32-117.07,54.88-137.45,56.9A338.14,338.14,0,0,1,201.86,540c0-186.75,151.41-338.13,338.16-338.13S878.14,353.25,878.14,540C878.14,696.67,771.55,828.47,627,866.81Z"/><path id="Vector-5" data-name="Vector" class="cls-2" d="M521.29,689.63h-.66c-19.91,0-39.5,10.32-48.66,27.19-3.05,5.59-5.83,14.13-1,19.52,2.74,3.08,7.34,3.77,11.34,3.7a29.85,29.85,0,0,0,14.43-3.8c3.74-2.15,7.11-4.73,11-6.62a29,29,0,0,1,12.83-2.87h.66a29,29,0,0,1,12.84,2.87c3.9,1.89,7.28,4.47,11,6.62A30,30,0,0,0,559.6,740c4,.07,8.57-.62,11.35-3.7,4.86-5.39,2.08-13.93-1-19.52C560.79,700,541.21,689.63,521.29,689.63Zm-15.68,33.11-.16.17a4.76,4.76,0,0,1-6.72,0l-8.7-8.7a4.76,4.76,0,0,1,0-6.72l.17-.16a4.7,4.7,0,0,1,6.68,0l8.73,8.7A4.75,4.75,0,0,1,505.61,722.74Zm46.32-8.53-8.74,8.7a4.71,4.71,0,0,1-6.68,0l-.17-.17a4.75,4.75,0,0,1,0-6.71l8.7-8.7a4.74,4.74,0,0,1,6.72,0l.17.16A4.76,4.76,0,0,1,551.93,714.21Z"/><path id="Vector-6" data-name="Vector" class="cls-2" d="M521,729.48c-9.37,0-17,5.14-17,11.47s7.6,11.48,17,11.48,17-5.14,17-11.48S530.34,729.48,521,729.48Z"/></g></svg>