<svg xmlns="http://www.w3.org/2000/svg" viewBox="0 0 1080 1080"><defs><style>.cls-1{fill:#00a551;}.cls-2{fill:#fff100;fill-rule:evenodd;}.cls-3{fill:#fff;}</style></defs><g id="logo-PKB"><rect id="backrgound" class="cls-1" width="1079.99" height="1079.99"/><g id="symbol"><path id="Vector" class="cls-2" d="M237.38,683.55l12.07,35.25h39L256.9,740.59,269,775.84l-31.57-21.79-31.55,21.79,12-35.25L186.31,718.8h39l12-35.25Zm605.23,0,12,35.25h39l-31.57,21.79,12,35.25-31.56-21.79L811,775.84l12.05-35.25L791.52,718.8h39l12.05-35.25ZM213.28,458.64,226,495.9h41.22l-33.35,23,12.74,37.25-33.37-23-33.34,23,12.73-37.25-33.35-23h41.22l12.74-37.26Zm653.43,0,12.73,37.26h41.24l-33.36,23,12.74,37.25-33.35-23-33.36,23,12.74-37.25-33.35-23h41.18l12.79-37.26ZM314.49,277.15l12.06,35.22h39L334,334.18l12.05,35.24-31.57-21.77-31.58,21.77L295,334.18l-31.56-21.81h39l12.08-35.22Zm451,0,12,35.22h39L785,334.18l12.05,35.24L765.5,347.65l-31.57,21.77L746,334.18l-31.57-21.81h39l12-35.22ZM540,144l21.58,63H631.3L574.85,246l21.59,63L540,270.06,483.55,309l21.56-63L448.68,207h69.75L540,144ZM423.85,840.88l12.44,36.31H476.5L444,899.69,456.42,936l-32.57-22.46L391.34,936l12.42-36.3-32.54-22.5h40.23l12.4-36.31Zm232.28,0,12.42,36.31h40.23l-32.53,22.5L688.66,936l-32.53-22.46L623.6,936,636,899.69l-32.53-22.5h40.23l12.41-36.31Z"/><path id="Vector-2" data-name="Vector" class="cls-3" d="M540,344.76c-133.65,0-242.68,105.32-242.68,234.43S406.34,813.63,540,813.63s242.69-105.3,242.69-234.44S673.64,344.76,540,344.76ZM770.77,573.57H736.64l-8.8-4.72A125.85,125.85,0,0,1,716,573.57h-19.2A329.61,329.61,0,0,0,682.34,481a298,298,0,0,0,51.41-22.83A216.62,216.62,0,0,1,770.77,573.57ZM566.31,655.89c-2-9.36-8.36-9.92-16.88-7v3.89c1.91.73,4,1.64,6.21,2.63q-7.77-.24-15.65-.25c-15.18,0-30.06.69-44.56,2-.34-4.31-.65-8.7-.94-13.13,2.32-.33,4.17-1.09,4.17-1.36,6.54,0,17.19,1.55,17.19-6.21a21.34,21.34,0,0,0-6.55-.78c0-4.47-8.22-6.79-11.8-7.67a1.87,1.87,0,0,1-.48-.11l.48.11c1.5.16-1-3.27-4.2-6q-.51-12.24-.72-25c1.59.15,2.94-1.06,3.63-5h9c.83,1.54,2.47,3.1,4.1,5.44,8.83-2.29,14.51-5.33,18.58-12.78h3.21l.71.1v-.1h18.11l3.59,26.78a33.38,33.38,0,0,1,8.21.76,204.64,204.64,0,0,1,3.25-24.1,150.29,150.29,0,0,0,8.2,16.34l14.19-4.5c-.21,10.42-.55,20.65-1.06,30.61-2.86,6.35-10.19,7.62-28.71,8.87-.82,1.56-.82,3.11-.82,5.44h24.55v-3.1h4.34c-.32,5.16-.68,10.26-1.08,15.26C578.56,656.65,572.46,656.21,566.31,655.89Zm-82.23,2.48a426.35,426.35,0,0,0-75.32,15.44,317.56,317.56,0,0,1-12.86-69.92l.44.72c10.65,3.1,17.2,9.32,27.84,10.88a26.59,26.59,0,0,0-1.64,8.56c13.09,8.54,35.2,3.88,45,13.2,4.84.66,9.68,1.32,15,2Q483.22,649,484.08,658.37Zm182.25-84.8H599.41c0-6.65-.15-13.22-.32-19.72h.83c1.14-4.27,3.34-7.86,7.6-9.88-.82-1.56-1.65-3.12-1.65-3.9h-7.28c-.59-13.79-1.48-27.19-2.66-40.06a424.74,424.74,0,0,0,75.32-15.45,320.77,320.77,0,0,1,13.16,75,155.11,155.11,0,0,0-20.4,3.89C664,568.56,664,569.45,666.33,573.57Zm-82,12.38v-1.12h3.25q0,5.25-.11,10.44h-2.82a42.28,42.28,0,0,1-3.3-9.32Zm3.25-12.38h-6.95a20,20,0,0,1-.1-2.4,43.24,43.24,0,0,1,5.73-2.32,15.18,15.18,0,0,0,.18,2h1.12C587.53,571.74,587.54,572.64,587.54,573.57Zm-.15-13h-1.86c0,.19,0,.36-.09.54A156.27,156.27,0,0,0,565,567.29c-1.65-2.33-3.25-4.66-4.9-7a61.75,61.75,0,0,1,2.43-6.22c8-.76,16-.78,24.75-.78C587.3,555.69,587.34,558.11,587.39,560.53Zm-21.61-17.34c-10.21,9.71-11.39,18-16.55,30.38H527.74c4.72-8,8.84-23.45,17.56-25.72v-6.22c-8.16-7.77-6.54-17.1-8.16-26.43-5.73-2.33-5.73-2.33-19.66-2.33-3.26,10.88-9,28-22.09,28l-2.28.51c.51-13.86,1.29-27.3,2.32-40.17,14.5,1.33,29.38,2,44.56,2s30.1-.7,44.58-2c1.14,14.13,2,28.94,2.45,44.25ZM428.42,584.83h45.65l6.57,4.62q.17,16.11.89,31.62c-10.65-1.79-15.18,1.49-27.88,2.2-3.28-7-19.65-9.34-27-10.9A259.79,259.79,0,0,1,429.9,586ZM481.25,544H465.91c-9-8.56-9.81-5.44-13.9,3.1,2.28,7.26,9.56,19.24,8.53,26.5H415.31l-18.93-25a315.68,315.68,0,0,1,12.37-64A424.48,424.48,0,0,0,484.08,500C482.79,514.09,481.83,528.8,481.25,544ZM601,645a8.89,8.89,0,0,0-3.89-.78c1.4-19,2.22-38.86,2.33-59.42H607v.62a52.88,52.88,0,0,1,5.4-.28,33,33,0,0,0,4.08,7c8,0,11.3-.76,11.44-7.34h.67a54.49,54.49,0,0,1,6.72,5.78c8.2,0,17.18,0,23.74,3.88a26.3,26.3,0,0,1,1.65-8.54l23.88,9.5a322.29,322.29,0,0,1-13.35,78.38,422.82,422.82,0,0,0-71.48-15c8.37-9,20.22-11.33,26.58-20.05C616.5,638.81,607.52,638.81,601,645ZM727.38,449.15a285.24,285.24,0,0,1-48.52,21.34c-16.54-47-43.43-84.62-76.1-106.08A232,232,0,0,1,727.38,449.15ZM667.82,474a415.64,415.64,0,0,1-73,14.82c-6.46-60.76-19.24-108.64-35.09-130.75C606.51,368,646.28,412.39,667.82,474ZM540,356c19.47,0,36.24,55.23,43.62,134-14.16,1.28-28.78,1.94-43.62,1.94s-29.42-.67-43.6-1.94C503.76,411.25,520.54,356,540,356ZM485.18,488.85a416.19,416.19,0,0,1-73-14.81C433.7,412.41,473.5,368,520.28,358.1,504.44,380.21,491.66,428.09,485.18,488.85Zm-7.94-124.44c-32.68,21.47-59.57,59.1-76.11,106.08a285.12,285.12,0,0,1-48.54-21.34A232.09,232.09,0,0,1,477.24,364.41ZM397.66,481a320.61,320.61,0,0,0-12.14,57.76c-.22.19-.42.38-.63.58-26.19-21-26.19-21-35.2-31.87-8.18-3.11-16.37-6.22-24.55-8.55l-1.07,1.52a220.14,220.14,0,0,1,22.17-42.27A298.79,298.79,0,0,0,397.66,481Zm-75.93,25.68c21.32,11.28,42.38,46.49,53.36,66.93H309.23A215.33,215.33,0,0,1,321.73,506.64Zm-12.5,78.19h74a329.81,329.81,0,0,0,14.45,92.58,300,300,0,0,0-51.42,22.83A216.49,216.49,0,0,1,309.23,584.83Zm43.37,124.4a285.37,285.37,0,0,1,48.53-21.35c16.54,47,43.43,84.62,76.1,106.08A232.08,232.08,0,0,1,352.6,709.23Zm59.59-24.9a417.13,417.13,0,0,1,73-14.79c6.48,60.77,19.26,108.66,35.1,130.75C473.5,790.42,433.72,746,412.19,684.33Zm127.8,118c-19.45,0-36.23-55.25-43.6-134q21.27-1.9,43.6-1.93c14.84,0,29.46.66,43.62,1.93C576.23,747.12,559.46,802.37,540,802.37Zm54.84-132.83a416.58,416.58,0,0,1,73,14.8C646.28,746,606.51,790.42,559.74,800.29,575.59,778.2,588.37,730.31,594.83,669.54ZM602.76,794c32.67-21.46,59.56-59.11,76.1-106.08a287.82,287.82,0,0,1,48.52,21.35A232,232,0,0,1,602.76,794Zm131-93.72a302.23,302.23,0,0,0-51.41-22.83A327.82,327.82,0,0,0,696.19,600c9.77,2.32,20.3,5.4,30.82,8.47,2.48,7,6.55,10.89,6.55,18.66-6.55,9.34-6.55,9.34-5.72,11.66a105.17,105.17,0,0,1,16.35-1.56c4.13,2.34,9,4.68,13.93,7.78,0-20.22.83-39.64,1.65-59.08l-2.1-1.12h13.1A216.49,216.49,0,0,1,733.75,700.24Z"/></g></g></svg>