<svg xmlns="http://www.w3.org/2000/svg" viewBox="0 0 1080 1080"><defs><style>.cls-1{fill:#fe0000;}.cls-2{fill:#fcfcfc;}.cls-3{fill:#fff;}.cls-4{fill:#e61f1e;}.cls-5{fill:#231916;}.cls-6{fill:#00993c;}</style></defs><g id="logo-PKN"><g id="background"><rect id="Vector" class="cls-1" width="1080" height="120"/><rect id="Vector-2" data-name="Vector" class="cls-2" y="120" width="1080" height="120"/><rect id="Vector-3" data-name="Vector" class="cls-1" y="240" width="1080" height="120"/><rect id="Vector-4" data-name="Vector" class="cls-2" y="360" width="1080" height="120"/><rect id="Vector-5" data-name="Vector" class="cls-1" y="480" width="1080" height="120"/><rect id="Vector-6" data-name="Vector" class="cls-2" y="600" width="1080" height="120"/><rect id="Vector-7" data-name="Vector" class="cls-1" y="720" width="1080" height="120"/><rect id="Vector-8" data-name="Vector" class="cls-2" y="840" width="1080" height="120"/><rect id="Vector-9" data-name="Vector" class="cls-1" y="960" width="1080" height="120"/></g><g id="symbol"><path class="cls-3" d="M169.52,557.68s0-.1,0-.16,0,.11,0,.16Z"/><path class="cls-3" d="M540,144c-218.12,0-396,177.9-396,396s177.9,396,396,396,396-177.9,396-396S758.12,144,540,144ZM568.73,909.8l-.55.05q-8.82.66-17.75.91l-1.78,0q-4.32.11-8.65.11-4.77,0-9.52-.12l-.64,0q-4.44-.12-8.85-.34l-.32,0a368.79,368.79,0,0,1-140.39-35.58l-.94-.45q-7.62-3.68-15-7.66L363,866a371.17,371.17,0,0,1-34.87-21.55h0l-.1-.07Q313,833.89,299.05,822l-.45-.38q-9.08-7.79-17.63-16.14l-.85-.83q-8.42-8.28-16.3-17.06l-.89-1c-2.44-2.75-4.84-5.52-7.2-8.34l-.36-.41v0h0q-9.2-11-17.54-22.69l.31.45c-.12-.16-.23-.33-.35-.5s-.33-.48-.5-.71h0q-4.47-6.29-8.66-12.76c-.2-.31-.39-.63-.6-.94-1.23-1.93-2.46-3.86-3.66-5.81-.52-.84-1-1.7-1.55-2.54-.86-1.42-1.71-2.83-2.55-4.26-.63-1.07-1.25-2.14-1.87-3.21s-1.37-2.41-2-3.62-1.37-2.44-2-3.66c-.57-1-1.13-2.11-1.69-3.17q-1.09-2-2.16-4.07c-.43-.83-.85-1.67-1.27-2.51-.91-1.79-1.82-3.59-2.71-5.41.15.31.29.62.45.93-.17-.33-.32-.66-.48-1a368.26,368.26,0,0,1-19.81-49.43c-.19-.58-.36-1.16-.54-1.74q-1.23-3.88-2.36-7.82c-.25-.86-.5-1.72-.74-2.58-.6-2.12-1.17-4.24-1.73-6.37-.07-.27-.15-.55-.22-.83-.24-.94-.49-1.88-.73-2.83-.1-.37-.2-.74-.29-1.12-.53-2.13-1-4.27-1.52-6.42-.18-.81-.38-1.61-.56-2.42-.62-2.79-1.21-5.6-1.76-8.41,0-.07,0-.14,0-.21-.05-.27-.1-.54-.16-.81-.28-1.45-.53-2.91-.8-4.37-.32-1.76-.64-3.52-.94-5.28s-.53-3.31-.79-5l-.1-.7c-.21-1.35-.41-2.7-.6-4.06-.22-1.58-.44-3.16-.64-4.75,0-.28-.07-.56-.1-.84-.17-1.39-.33-2.79-.49-4.19s-.34-2.74-.48-4.12v0l-.12-1.27c0-.45-.09-.91-.13-1.36a.76.76,0,0,0,0,.15c-.09-1-.16-1.94-.25-2.91-.15-1.76-.31-3.52-.44-5.29-.1-1.32-.17-2.64-.25-4-.11-1.7-.22-3.39-.31-5.08s-.13-3.35-.19-5c0-1.36-.11-2.72-.15-4.08q-.1-4.61-.11-9.22h0v-.36c.2-201.49,161-365.37,361.36-370.43,3.17-.08,6.36-.12,9.55-.12h.17q4.22,0,8.4.11l1.63,0q4.21.12,8.4.32l1.1.06A368.84,368.84,0,0,1,711.42,211l-.74-.16C829.48,272.81,910.91,397.19,910.91,540a368.28,368.28,0,0,1-51.13,187.53l.32-.07C800.25,829.43,693.08,900.27,568.73,909.8Z"/><path class="cls-3" d="M170,566.6c0-.61-.06-1.23-.1-1.84a.76.76,0,0,1,0-.15C170,565.27,170,565.94,170,566.6Z"/><path class="cls-4" d="M234.5,471.59c-.67.72-1.35,1.44-2,2.17C233.15,473,233.83,472.31,234.5,471.59Z"/><path class="cls-4" d="M226.27,480.6c-.34.37-.68.74-1,1.12C225.59,481.34,225.93,481,226.27,480.6Z"/><path class="cls-4" d="M218.14,489.93l-1.45,1.73Z"/><path class="cls-4" d="M275.87,432.24,274,433.83Z"/><path class="cls-4" d="M267.6,439.4l-2,1.82Z"/><path class="cls-4" d="M258.79,447.4c-.4.36-.8.72-1.19,1.09C258,448.12,258.39,447.76,258.79,447.4Z"/><path class="cls-4" d="M183.41,535.88c-.69,1-1.38,2-2.06,3.08C182,537.93,182.72,536.9,183.41,535.88Z"/><path class="cls-4" d="M189.59,526.87c-.58.83-1.15,1.67-1.73,2.51C188.44,528.54,189,527.7,189.59,526.87Z"/><path class="cls-4" d="M204.39,506.89c-.67.85-1.34,1.71-2,2.57C203.05,508.6,203.72,507.74,204.39,506.89Z"/><path class="cls-4" d="M196.62,517.12l-.71,1Z"/><path class="cls-4" d="M211.28,498.2l-2.1,2.61Z"/><path class="cls-4" d="M177.15,545.4c-.61.94-1.22,1.88-1.82,2.83C175.93,547.28,176.54,546.34,177.15,545.4Z"/><path class="cls-4" d="M530.48,910.79l-.64,0Z"/><path class="cls-4" d="M521,910.43l-.32,0Z"/><path class="cls-4" d="M170.54,572.64c-.15-1.76-.31-3.52-.44-5.29C170.23,569.12,170.39,570.88,170.54,572.64Z"/><path class="cls-4" d="M550.43,910.76l-1.78,0Z"/><path class="cls-4" d="M568.73,909.8l-.55.05Z"/><path class="cls-4" d="M548.57,169.2l1.63,0Z"/><path class="cls-4" d="M169.09,540h0v0Z"/><path class="cls-4" d="M169.85,563.4c-.11-1.7-.22-3.39-.31-5.08C169.63,560,169.74,561.7,169.85,563.4Z"/><path class="cls-4" d="M558.6,169.55l1.1.06Z"/><path class="cls-4" d="M169.35,553.3c0-1.36-.11-2.72-.15-4.08C169.24,550.58,169.3,551.94,169.35,553.3Z"/><path class="cls-4" d="M242.09,463.66c-.68.69-1.34,1.39-2,2.08C240.75,465.05,241.41,464.35,242.09,463.66Z"/><path class="cls-4" d="M540.17,169.09H540c-3.19,0-6.38,0-9.55.12,3.17-.08,6.36-.12,9.55-.12Z"/><path class="cls-4" d="M293.29,418.14l-.39.31a523.29,523.29,0,0,1,94.76-58.1c-5.62-2.92-14.22-1.49-22.35-2.31,7.46-6.59,14.16-11.65,23.49-15.78-5.74-1.73-12.21-1.32-19.67-1.57,9.58-2.73,19.3-5.55,30.71-6.61-10.89-3.08-23.15-3.78-35.79-3.81,18.12-3.68,35.25-9,58.83-3.62,74.84-34.36,249.65-35.32,280.46,25.73,10.2.29,15.24,4.72,16.59,12.09,101,5.26,104.7,76.88,70.87,134.7.47-14.13-2.61-25.78-11.42-33.41-6.88-6-8.24-5.12-16.21-5.56-11.33-.62-27.28-3.44-34.67-3.05q-16.44.86-26.8,10.71c-6.11,5.84-12.22,16.61-13.07,25.16-.79,8,2.82,14.38,11.75,18.77,18.31,6.63,33.24,19.7,45.71,37.43a64.84,64.84,0,0,0-18.24-5.86c-4.8-.76-20.78-1.66-23.86,2.51-1.09,1.47-.7,4.56,1.18,7.43,21,24.79,47.72,40.28,62.35,69.84l-46.09-12C701.88,606.11,679,598.44,659.68,595c-50.07-8.85-54.49,22.3-23,34.35-11.18,1.52-21.6-1.47-30.94-11,9.32,24.65,28.65,36.5,49.49,46.4-21.27.21-40.78-6.24-57.92-21.65,33.71,80.37,167.21,108.7,262.45,84.38A368.28,368.28,0,0,0,910.91,540c0-142.81-81.43-267.19-200.23-329.14a372.49,372.49,0,0,0-80.29-8.74C480.83,202.12,352,290.64,293.29,418.14Z"/><path class="cls-4" d="M173.33,596l.1.7,0-.26C173.37,596.32,173.35,596.17,173.33,596Z"/><path class="cls-4" d="M172,586.37c0,.28.06.56.1.84,0-.27-.06-.55-.1-.82Z"/><path class="cls-4" d="M170.91,576.76,171,578l0,0C171,577.59,171,577.18,170.91,576.76Z"/><path class="cls-4" d="M248.86,456.88l.77-.77Z"/><path class="cls-4" d="M169.93,564.61a.76.76,0,0,0,0,.15c-.16-2.36-.31-4.71-.42-7.08h0Q169.69,561.16,169.93,564.61Z"/><path class="cls-5" d="M228.61,741.59c-.2-.31-.39-.63-.6-.94C228.22,741,228.41,741.28,228.61,741.59Z"/><path class="cls-5" d="M176.17,612.36c.55,2.81,1.14,5.62,1.76,8.41-.39-1.75-.74-3.51-1.1-5.27C176.61,614.45,176.37,613.41,176.17,612.36Z"/><path class="cls-5" d="M294.57,541.46c-41.06,28.45-74.3,72-104.75,121q-1.66-4.77-3.2-9.59a368.26,368.26,0,0,0,19.81,49.43q-3.15-6.47-6.05-13.07-3.82-8.68-7.23-17.59,3.39,8.91,7.23,17.59,2.91,6.63,6.08,13.13c.89,1.82,1.8,3.62,2.71,5.41-.76-1.49-1.52-3-2.26-4.49C227.8,642.76,254.47,586.78,294.57,541.46Z"/><path class="cls-5" d="M178.49,623.19c.5,2.15,1,4.29,1.52,6.42-.48-1.91-.92-3.84-1.36-5.76C178.6,623.63,178.54,623.41,178.49,623.19Z"/><path class="cls-5" d="M262.93,786.56c-2.44-2.75-4.84-5.52-7.2-8.34C258.09,781,260.49,783.81,262.93,786.56Z"/><path class="cls-5" d="M280.12,804.61q-8.42-8.28-16.3-17.06Q271.7,796.34,280.12,804.61Z"/><path class="cls-5" d="M216.33,721.21c-.68-1.22-1.37-2.44-2-3.66Q215.3,719.38,216.33,721.21Z"/><path class="cls-5" d="M186.08,651.16q-1.23-3.88-2.36-7.82Q184.85,647.27,186.08,651.16Z"/><path class="cls-5" d="M212.6,714.38q-1.09-2-2.16-4.07Q211.51,712.35,212.6,714.38Z"/><path class="cls-5" d="M224.35,734.84c-.52-.84-1-1.7-1.55-2.54C223.32,733.14,223.83,734,224.35,734.84Z"/><path class="cls-5" d="M220.25,728c-.63-1.07-1.25-2.14-1.87-3.21C219,725.9,219.62,727,220.25,728Z"/><path class="cls-5" d="M237.28,754.34c.17.23.33.48.5.71-.17-.23-.33-.48-.5-.71Z"/><path class="cls-5" d="M406.27,690.7c-42.83,33.26-64.9,88.78-78.11,153.77A371.17,371.17,0,0,0,363,866q-5.05-2.74-10-5.65C351.29,805.81,375.57,743.73,406.27,690.7Z"/><path class="cls-5" d="M178.67,623.91c.52,2.27,1.05,4.53,1.62,6.79C179.72,628.44,179.19,626.18,178.67,623.91Z"/><path class="cls-5" d="M298.6,821.58q-9.08-7.79-17.63-16.14Q289.52,813.78,298.6,821.58Z"/><path class="cls-5" d="M174.41,602.86c.19,1.1.41,2.18.6,3.28-.26-1.48-.54-3-.79-4.45.3,1.76.62,3.52.94,5.28,0-.26-.09-.52-.14-.78C174.82,605.07,174.6,604,174.41,602.86Z"/><path class="cls-5" d="M182.13,637.78c-.31-1.12-.59-2.26-.88-3.39.56,2.13,1.13,4.25,1.73,6.37-.67-2.38-1.31-4.76-1.94-7.16C181.4,635,181.75,636.39,182.13,637.78Z"/><path class="cls-5" d="M328.05,844.4Q313,833.89,299.05,822,313,833.87,328.05,844.4Z"/><path class="cls-5" d="M176.06,611.82c.23,1.16.49,2.31.73,3.47C176.55,614.13,176.29,613,176.06,611.82Z"/><path class="cls-5" d="M379.34,874.38q-7.62-3.68-15-7.66Q371.73,870.71,379.34,874.38Z"/><path class="cls-5" d="M176,611.34c.06.27.11.54.16.81,0-.12,0-.24-.07-.37S176,611.49,176,611.34Z"/><path class="cls-5" d="M172.73,592c.19,1.36.39,2.71.6,4.06,0,.15,0,.3.07.44C173.17,595,173,593.47,172.73,592Z"/><path class="cls-5" d="M716,400.77c1.33-.26,3.07-.72,4-2,1.81-2.46.47-5.62-3.43-5a26.15,26.15,0,0,0-8.8,3.87c-5.12,3.73-7.73,9.61-8.92,16.71C702.78,407.2,708.07,402.35,716,400.77Z"/><path class="cls-5" d="M171.5,582.18c.16,1.4.32,2.8.49,4.19v0C171.82,585,171.66,583.59,171.5,582.18Z"/><path class="cls-5" d="M597.33,643.15C614.47,658.56,634,665,655.25,664.8c-20.84-9.9-40.17-21.75-49.49-46.4,9.34,9.5,19.76,12.49,30.94,11-31.51-12-27.09-43.2,23-34.35,19.36,3.42,42.2,11.09,61.75,16.16l46.09,12c-14.63-29.56-41.33-45-62.35-69.84-1.88-2.87-2.27-6-1.18-7.43,3.08-4.17,19.06-3.27,23.86-2.51a64.84,64.84,0,0,1,18.24,5.86c-12.47-17.73-27.4-30.8-45.71-37.43C691.45,507.4,687.84,501,688.63,493c.85-8.55,7-19.32,13.07-25.16Q712,458,728.5,457.15c7.39-.39,23.34,2.43,34.67,3.05,8,.44,9.33-.4,16.21,5.56,8.81,7.63,11.89,19.28,11.42,33.41,33.83-57.82,30.17-129.44-70.87-134.7-1.35-7.37-6.39-11.8-16.59-12.09-30.81-61.05-205.62-60.09-280.46-25.73-23.58-5.4-40.71-.06-58.83,3.62,12.64,0,24.9.73,35.79,3.81-11.41,1.06-21.13,3.88-30.71,6.61,7.46.25,13.93-.16,19.67,1.57-9.33,4.13-16,9.19-23.49,15.78,8.13.82,16.73-.61,22.35,2.31a523.29,523.29,0,0,0-94.76,58.1q-8.68,6.72-17,13.79L274,433.83q-3.22,2.76-6.41,5.57l-2,1.82q-3.42,3.06-6.77,6.18c-.4.36-.8.72-1.19,1.09q-4,3.76-8,7.62l-.77.77q-3.42,3.36-6.77,6.78c-.68.69-1.34,1.39-2,2.08-1.88,1.93-3.74,3.89-5.58,5.85-.67.72-1.35,1.44-2,2.17q-3.14,3.39-6.21,6.84c-.34.37-.68.74-1,1.12q-3.6,4-7.12,8.21l-1.45,1.73q-2.73,3.24-5.41,6.54l-2.1,2.61q-2.42,3-4.79,6.08c-.67.85-1.34,1.71-2,2.57q-2.91,3.8-5.77,7.66l-.71,1q-3.19,4.35-6.32,8.79c-.58.83-1.15,1.67-1.73,2.51q-2.25,3.23-4.45,6.5c-.69,1-1.38,2-2.06,3.08q-2.11,3.19-4.2,6.44c-.61.94-1.22,1.88-1.82,2.83-2,3.08-3.88,6.17-5.78,9.3h0c0,.06,0,.11,0,.16.11,2.37.26,4.72.42,7.08,0,.61.06,1.23.1,1.84.21,2.94.46,5.88.74,8.8,0,.45.09.91.13,1.36s.1.83.14,1.25C229.41,472.83,326.54,386.73,434,359.29l-35.69-4.61c81.82-51.51,304.05-46.43,288.63,14.46-.9-6.56-4.19-10.08-9.23-11.38,9.05,14.42,3.37,25.9-13.85,35.07C664,361.54,619.6,360,591.43,365c14,.87,29.56,3.1,41.6,7.65,7.09,2.68,17.1,11.62,6,15.76a18.13,18.13,0,0,1-4.65,1c-15.93,1.47-24.53-2.94-38-9.53C567.45,365.69,524,346.14,476,350A34,34,0,0,1,489,355.29c-24.27,2-37.23,13.52-40,33.54,13.1-17.53,31.71-26.2,56.31-25.23-24.06,4.08-41.52,14.53-51.08,32.62,28.46-16.52,46.26-7.94,53.24,26.15-2.32-6.43-5.45-9.82-10.07-13.38-.68,5.23.91,7,2.37,10.31-.18,1.13-5.12-3.86-8.92-5.23,5,5.93,9.13,12.09,11.26,18.74-3.44-2.6-6.89-4.54-10.34-3.67,23,23.06,48.94,29.11,76.32,27.08-27.26,8.23-51.29,2.78-70.78-13.54,15.57,27.27,71.68,27.16,116,14.77-40.82,31.5-114.52,33.68-130.78,86.16l46.47-24.92c-31.83,21.44-37.65,54.19-40.32,88.31,12.07-28.1,26.53-50.3,46.16-59.69-11.22,17.76-14.78,39.68-7.69,67.39,2.39-13,6.68-24.88,13.85-35.08-2,12.55-1.32,23.73,4.61,32.31,3.41-16.67,10.14-29.24,20.31-37.54-24.44,98.88-5.47,153.52,50.77,170.16-43.28,2.12-78.56-8.89-96-43.69,6.06,69.39,35.37,110.69,72.31,142.78C511.9,831,468.2,786.67,462.89,709.78c-31.18,52.59-26,120.22-19.58,188.38a369.63,369.63,0,0,1-63-23.33,368.79,368.79,0,0,0,140.39,35.58l.32,0q4.41.23,8.85.34l.64,0q4.75.12,9.52.12,4.34,0,8.65-.11l1.78,0q8.93-.25,17.75-.91l.55-.05c124.35-9.53,231.52-80.37,291.37-182.34l-.32.07C764.54,751.85,631,723.52,597.33,643.15Zm-21-235.73a4.26,4.26,0,1,1-4.26-4.26A4.26,4.26,0,0,1,576.35,407.42Zm-55.17-13.24c5.47-2.49,15.38-2.27,23.23-.72-10.68,25.94-1.25,30.3,9.91,42.25C528,429.28,514.3,413.28,521.18,394.18Zm54.34,40.41c-12.89,0-23.34-9.47-23.34-21.15a20.64,20.64,0,0,1,10.06-17.38q4.46,1.08,8.73,2.46c-5.59,2.19-9.5,7.22-9.5,13.07,0,7.87,7.06,14.25,15.77,14.25S594.12,420.05,594,411l4.71.4a19.61,19.61,0,0,1,.11,2C598.85,425.12,588.4,434.59,575.52,434.59Zm143.61,100.1c-15.86,5.26-52.32-15.61-96.06,3.32,10.56-7.14,23.23-12.84,40.22-15.62-15.91-6.4-30.79-3.56-45.43,1.42C648.28,504.1,688.4,507.14,719.13,534.69ZM562.46,551.42l-13.93,18.2c-3.51-47.22,21.34-87.79,108-121.09-8.84-13.22-6.41-24.31,2.79-34.11,7-7.4,13.86-9.52,21.23-15.62a67.06,67.06,0,0,0,12.93-14.51c10.43-16.42,20.45-19.17,19-4.84,87.66-2.53,96.5,44.82,82.43,96.93-4.34-16-11.72-29.74-27.4-29.26-14.72,1.16-37.38-6.91-55.31-4.28-14.51-1-21.22,7.58-31.84,11.37L619.88,477c-42.81,18.69-51.72,38.79-54.86,59.12,8.53-12.77,16.28-26.1,33.26-32.68,4.15,50.36,41.05,48.1,87.91,67.05,20.06,8.12,40.36,21.93,63.87,41.81-19.29-9.17-38.37-15.28-57-20.88-15.93-4.79-32-7.77-47.37-13.87-18.55-7.34-38.05-18-60-29.2C576.25,543,568.26,543.24,562.46,551.42Z"/><path class="cls-5" d="M348.42,615A493.65,493.65,0,0,0,237.28,754.34l.54.76q8.33,11.7,17.54,22.69C280.57,717.72,312.63,664.5,348.42,615Z"/><path class="cls-6" d="M176.79,615.29c-.24-1.16-.5-2.31-.73-3.47v0c0,.13,0,.25.07.37s0,.14,0,.21c.2,1,.44,2.09.66,3.14Z"/><path class="cls-6" d="M200.38,689.26q-3.82-8.68-7.23-17.59Q196.54,680.58,200.38,689.26Z"/><path class="cls-6" d="M237.28,754.34c.17.23.33.48.5.71s.23.34.35.5l-.31-.45-.54-.76Z"/><path class="cls-6" d="M180.29,630.7c-.57-2.26-1.1-4.52-1.62-6.79l0-.06c.44,1.92.88,3.85,1.36,5.76.09.38.19.75.29,1.12Z"/><path class="cls-6" d="M206.43,702.33c.16.33.31.66.48,1-.16-.31-.3-.62-.45-.93q-3.17-6.5-6.08-13.13Q203.29,695.86,206.43,702.33Z"/><path class="cls-6" d="M181,633.6v0c.07.28.15.56.22.83.29,1.13.57,2.27.88,3.39C181.75,636.39,181.4,635,181,633.6Z"/><path class="cls-6" d="M170,566.6c0-.66-.07-1.33-.11-2q-.24-3.45-.41-6.93s0-.1,0-.16h0c1.9-3.13,3.83-6.22,5.78-9.3.6-1,1.21-1.89,1.82-2.83q2.08-3.24,4.2-6.44c.68-1,1.37-2.06,2.06-3.08q2.21-3.27,4.45-6.5c.58-.84,1.15-1.68,1.73-2.51q3.12-4.44,6.32-8.79l.71-1q2.87-3.87,5.77-7.66c.66-.86,1.33-1.72,2-2.57q2.37-3.06,4.79-6.08l2.1-2.61q2.68-3.3,5.41-6.54l1.45-1.73q3.53-4.15,7.12-8.21c.33-.38.67-.75,1-1.12q3.07-3.45,6.21-6.84c.67-.73,1.35-1.45,2-2.17,1.84-2,3.7-3.92,5.58-5.85.67-.69,1.33-1.39,2-2.08q3.34-3.42,6.77-6.78l.77-.77q3.94-3.86,8-7.62c.39-.37.79-.73,1.19-1.09q3.34-3.12,6.77-6.18l2-1.82q3.18-2.81,6.41-5.57l1.86-1.59q8.34-7.07,17-13.79l.39-.31c58.68-127.5,187.54-216,337.1-216a372.49,372.49,0,0,1,80.29,8.74l.74.16A368.84,368.84,0,0,0,559.7,169.61l-1.1-.06q-4.19-.2-8.4-.32l-1.63,0q-4.19-.1-8.4-.11H540c-3.19,0-6.38,0-9.55.12-200.32,5.06-361.16,168.94-361.36,370.43V540h0q0,4.62.11,9.22c0,1.36.1,2.72.15,4.08.06,1.67.11,3.35.19,5s.2,3.38.31,5.08c.08,1.31.15,2.63.25,4,.13,1.77.29,3.53.44,5.29.09,1,.16,1.94.25,2.91a.76.76,0,0,1,0-.15C170.5,572.48,170.25,569.54,170,566.6ZM230.6,422.87l7.78-23.78-20.27-14.66,25,.05,7.68-23.81,7.69,23.81,25-.05-20.27,14.66L271,422.87l-20.22-14.74Zm83.2-79.34L298,332l-15.79,11.51L288.3,325,272.47,313.5l19.54,0,6-18.6,6,18.6,19.54,0L307.73,325Zm58.65-59.39-13.72-10-13.73,10L350.29,268l-13.77-10,17,0,5.22-16.16L364,258.06l17,0-13.76,10Zm68-43.68-11.25-8.2-11.25,8.2,4.33-13.23L411,219.07l13.92,0,4.28-13.25,4.27,13.25,13.93,0-11.28,8.16Zm67.38-31.84-8.09-5.89-8.08,5.89,3.11-9.51-8.1-5.86,10,0,3.07-9.52,3.08,9.52,10,0-8.1,5.86Z"/><path class="cls-6" d="M174.41,602.86c.19,1.11.41,2.21.61,3.33v-.05C174.82,605,174.6,604,174.41,602.86Z"/><path class="cls-4" d="M462.89,709.78c5.31,76.89,49,121.24,130.16,133.86-36.94-32.09-66.25-73.39-72.31-142.78,17.44,34.8,52.72,45.81,96,43.69C560.5,727.91,541.53,673.27,566,574.39c-10.17,8.3-16.9,20.87-20.31,37.54-5.93-8.58-6.64-19.76-4.61-32.31-7.17,10.2-11.46,22.08-13.85,35.08-7.09-27.71-3.53-49.63,7.69-67.39C515.26,556.7,500.8,578.9,488.73,607c2.67-34.12,8.49-66.87,40.32-88.31l-46.47,24.92c16.26-52.48,90-54.66,130.78-86.16-44.33,12.39-100.44,12.5-116-14.77,19.49,16.32,43.52,21.77,70.78,13.54-27.38,2-53.33-4-76.32-27.08,3.45-.87,6.9,1.07,10.34,3.67-2.13-6.65-6.23-12.81-11.26-18.74,3.8,1.37,8.74,6.36,8.92,5.23-1.46-3.3-3.05-5.08-2.37-10.31,4.62,3.56,7.75,6.95,10.07,13.38-7-34.09-24.78-42.67-53.24-26.15,9.56-18.09,27-28.54,51.08-32.62-24.6-1-43.21,7.7-56.31,25.23,2.77-20,15.73-31.51,40-33.54A34,34,0,0,0,476,350c48-3.89,91.48,15.66,120.43,29.83,13.47,6.59,22.07,11,38,9.53a18.13,18.13,0,0,0,4.65-1c11.08-4.14,1.07-13.08-6-15.76-12-4.55-27.59-6.78-41.6-7.65,28.17-5,72.57-3.48,72.39,27.81,17.22-9.17,22.9-20.65,13.85-35.07,5,1.3,8.33,4.82,9.23,11.38,15.42-60.89-206.81-66-288.63-14.46L434,359.29C326.54,386.73,229.41,472.83,171.05,578l0,0v0c.14,1.38.32,2.75.48,4.12s.32,2.81.49,4.21c0,.27.06.55.1.82.2,1.59.42,3.17.64,4.75s.44,3,.67,4.5l0,.26c.26,1.66.52,3.31.79,5,.25,1.49.53,3,.79,4.45v.05c0,.26.09.52.14.78.27,1.46.52,2.92.8,4.37,0,.15.07.3.09.44v0c.23,1.16.49,2.31.73,3.47l0,.21c.36,1.76.71,3.52,1.1,5.27.18.81.38,1.61.56,2.42,0,.22.11.44.16.66l0,.06c.52,2.27,1.05,4.53,1.62,6.79v0c.24.95.49,1.89.73,2.83v0c.63,2.4,1.27,4.78,1.94,7.16.24.86.49,1.72.74,2.58q1.13,3.93,2.36,7.82c.18.58.35,1.16.54,1.74q1.53,4.82,3.2,9.59c30.45-49,63.69-92.58,104.75-121-40.1,45.32-66.77,101.3-87.66,161.85.74,1.51,1.5,3,2.26,4.49.42.84.84,1.68,1.27,2.51q1.06,2,2.16,4.07c.56,1.06,1.12,2.12,1.69,3.17.67,1.22,1.36,2.44,2,3.66s1.36,2.42,2,3.62,1.24,2.14,1.87,3.21c.84,1.43,1.69,2.84,2.55,4.26.51.84,1,1.7,1.55,2.54,1.2,1.95,2.43,3.88,3.66,5.81.21.31.4.63.6.94q4.2,6.48,8.66,12.76h0A493.65,493.65,0,0,1,348.42,615c-35.79,49.5-67.85,102.72-93.06,162.79h0v0l.36.41c2.36,2.82,4.76,5.59,7.2,8.34l.89,1q7.88,8.79,16.3,17.06l.85.83q8.55,8.34,17.63,16.14l.45.38q13.92,11.91,29,22.44l.1.07h0c13.21-65,35.28-120.51,78.11-153.77-30.7,53-55,115.11-53.27,169.67q5,2.89,10,5.65l1.29.7q7.41,4,15,7.66l.94.45a369.63,369.63,0,0,0,63,23.33C436.87,830,431.71,762.37,462.89,709.78Z"/><path class="cls-4" d="M617.86,523.81c14.64-5,29.52-7.82,45.43-1.42-17,2.78-29.66,8.48-40.22,15.62,43.74-18.93,80.2,1.94,96.06-3.32C688.4,507.14,648.28,504.1,617.86,523.81Z"/><path id="Vector-10" data-name="Vector" class="cls-4" d="M594,411c.09,9.05-8.08,14.84-16.79,14.84s-15.77-6.38-15.77-14.25c0-5.85,3.91-10.88,9.5-13.07q-4.28-1.38-8.73-2.46a20.64,20.64,0,0,0-10.06,17.38c0,11.68,10.45,21.15,23.34,21.15s23.33-9.47,23.33-21.15a19.61,19.61,0,0,0-.11-2Z"/><path id="Vector-11" data-name="Vector" class="cls-3" d="M567.83,407.42a4.26,4.26,0,1,0,4.26-4.26A4.26,4.26,0,0,0,567.83,407.42Z"/><path id="Vector-12" data-name="Vector" class="cls-3" d="M544.41,393.46c-7.85-1.55-17.76-1.77-23.23.72-6.88,19.1,6.78,35.1,33.14,41.53C543.16,423.76,533.73,419.4,544.41,393.46Z"/><path id="Vector-13" data-name="Vector" class="cls-3" d="M693.09,591.37c18.6,5.6,37.68,11.71,57,20.88-23.51-19.88-43.81-33.69-63.87-41.81-46.86-19-83.76-16.69-87.91-67.05-17,6.58-24.73,19.91-33.26,32.68,3.14-20.33,12.05-40.43,54.86-59.12l60.54-22.74c10.62-3.79,17.33-12.33,31.84-11.37,17.93-2.63,40.59,5.44,55.31,4.28,15.68-.48,23.06,13.25,27.4,29.26,14.07-52.11,5.23-99.46-82.43-96.93,1.41-14.33-8.61-11.58-19,4.84a67.06,67.06,0,0,1-12.93,14.51c-7.37,6.1-14.27,8.22-21.23,15.62-9.2,9.8-11.63,20.89-2.79,34.11-86.68,33.3-111.53,73.87-108,121.09l13.93-18.2c5.8-8.18,13.79-8.43,23.31-3.12,21.9,11.25,41.4,21.86,60,29.2C661.13,583.6,677.16,586.58,693.09,591.37ZM707.75,397.7a26.15,26.15,0,0,1,8.8-3.87c3.9-.65,5.24,2.51,3.43,5-.93,1.25-2.67,1.71-4,2-7.91,1.58-13.2,6.43-17.15,13.64C700,407.31,702.63,401.43,707.75,397.7Z"/><polygon id="Vector-14" data-name="Vector" class="cls-3" points="363.95 258.06 358.73 241.9 353.51 258.06 336.52 258.03 350.29 267.99 345 284.14 358.73 274.13 372.45 284.14 367.17 267.99 380.93 258.03 363.95 258.06"/><polygon id="Vector-15" data-name="Vector" class="cls-3" points="304.02 313.54 298.01 294.94 292.01 313.54 272.47 313.5 288.3 324.96 282.22 343.53 298.01 332.02 313.8 343.53 307.73 324.96 323.56 313.5 304.02 313.54"/><polygon id="Vector-16" data-name="Vector" class="cls-3" points="271.02 422.87 263.25 399.09 283.52 384.43 258.5 384.48 250.81 360.67 243.13 384.48 218.11 384.43 238.38 399.09 230.6 422.87 250.81 408.13 271.02 422.87"/><polygon id="Vector-17" data-name="Vector" class="cls-3" points="502.79 193.27 499.71 183.75 496.64 193.27 486.64 193.25 494.74 199.11 491.63 208.62 499.71 202.72 507.8 208.62 504.69 199.11 512.79 193.25 502.79 193.27"/><polygon id="Vector-18" data-name="Vector" class="cls-3" points="433.44 219.09 429.17 205.84 424.89 219.09 410.97 219.06 422.25 227.23 417.92 240.46 429.17 232.26 440.42 240.46 436.09 227.23 447.37 219.06 433.44 219.09"/></g></g></svg>