<svg xmlns="http://www.w3.org/2000/svg" viewBox="0 0 1080 1080"><defs><style>.cls-1{fill:#096309;}.cls-2{fill:#fdb318;}.cls-2,.cls-3{fill-rule:evenodd;}.cls-3{fill:#010101;}</style></defs><g id="logo-PPP"><rect id="background" class="cls-1" width="1080" height="1080"/><g id="Label"><path id="Vector" class="cls-2" d="M293.09,845.57a19.45,19.45,0,0,1,5.18-.87c19.93,0,39.86,0,59.8,0,16.71.1,33.52-.7,50.11,2,10.78,1.8,21.75,4.36,31.34,10.38,5.31,3.43,10.58,8.88,10.77,16.17.76,7.27-3.34,13.93-8.52,17.92-8.9,7.22-20.16,9-30.75,11.09-16.14,3.12-32.56,2.43-48.85,2.62.22,6.65-.42,13.36.37,20,3.45,3.46,8.74,2,12.61,4.42,1.59,1.12,1.26,3.65.74,5.36-1.9,1.53-4.52.88-6.72,1.23-22,.1-44,0-66,0-3.1,0-6.4.33-9.21-1.41a18.25,18.25,0,0,1,.14-5.9c3.42-.88,6.92-1.26,10.38-1.86,1.71-2.77,1-6.24,1.08-9.36q0-28.63,0-57.26a48.15,48.15,0,0,0-.33-4.83c-3.88-1.73-8.06-2.23-12-3.75-.12-2-.14-4-.12-6Zm69.06,5.58q.11,23.54,0,47.09c6.2-.13,12.63.71,18.62-1.51,3-1.06,6-3.66,6-7.44.28-7.95,0-15.91.14-23.87,0-2.71.19-5.52-.67-8.1a9.5,9.5,0,0,0-6-4.83c-5.86-1.86-12-1.33-18-1.34Zm99.61-5.57a19.55,19.55,0,0,1,6-.88q39,0,78,0A178.3,178.3,0,0,1,584,848.06c9.63,2.16,19.52,5,27.56,11.54,4.26,3.31,7.57,8.65,7.52,14.58.43,6.76-3.44,12.79-8.09,16.72-7.76,6.57-17.61,8.56-27,10.66-17.46,3.66-35.32,3.55-53,3.2-.16,6.76-.24,13.53.07,20.29,4,3.43,9.7,1.6,13.61,5,.39,1.59.64,3.72-.44,5.06-4.93,1.34-10.08.68-15.11.87-21.69-.21-43.41.34-65.08-.27-1.9-1.66-2.12-4.58-1.15-6.9,3.27-1.41,6.89-1.2,10.29-2a7.15,7.15,0,0,0,1.05-4c-.05-16.48,0-32.95,0-49.43-.15-6,.35-12-.33-17.94-3.86-1.87-8.11-2.28-12.05-3.87-.07-2-.07-4-.05-6ZM531,898.4c6.29-.43,12.86.64,18.89-1.9a8,8,0,0,0,5.52-7.22c.26-9.15,0-18.3.14-27.46.14-3.25-1.2-6.72-4-8.16-6.42-3.47-13.73-2.27-20.61-2.65-.23,15.78-.27,31.59,0,47.38Zm98.58-52.81c4.06-1.3,8.32-.81,12.49-.87h70.78c15.67-.16,31.47,1,46.71,5.26,7.49,2.27,15.09,5.16,21.12,10.79a18.15,18.15,0,0,1,6.19,14.38c.09,6.4-3.63,12-8.06,15.7-7.58,6.4-17.15,8.66-26.34,10.55-17.67,3.85-35.76,3.7-53.68,3.37-.08,5.4-.06,10.8-.06,16.22.07,1.43-.06,3,.59,4.33,3.86,2.89,8.95,1.72,12.93,4.23a5.51,5.51,0,0,1-.23,5.58,32.87,32.87,0,0,1-8.73.82c-22.28,0-44.55-.06-66.82,0a11.48,11.48,0,0,1-6-1.45,19,19,0,0,1,.14-5.92c3.39-.77,6.85-1.18,10.25-1.86.29-.37.86-1.13,1.14-1.51q.13-33.94,0-67.89c.19-2.07-1.86-2.61-3.2-3.15-3-1.25-6.52-.93-9.16-3.13a33.44,33.44,0,0,1-.06-5.48Zm69.29,52.76c6.3-.34,12.85.64,18.9-1.82,2.84-1,5.54-3.73,5.53-7.28.24-9.1,0-18.23.09-27.33.17-3.15-.93-6.43-3.53-8-6.44-3.78-14-2.58-21-2.89Q698.56,874.68,698.9,898.35Z"/></g><g id="symbol"><polygon id="Vector-2" data-name="Vector" class="cls-3" points="807.51 783.08 807.56 178.47 362.4 144.01 363.74 780.71 807.51 783.08"/><polygon id="Vector-3" data-name="Vector" class="cls-3" points="363.74 780.71 362.4 146.46 272.44 245.37 272.48 719.46 363.74 780.71"/><path id="Vector-4" data-name="Vector" class="cls-2" d="M363.69,755l-.08-35.76,50.42,1.2-13.77,34.48-36.57.08Zm443.82-32.41L555.8,721.3l11.61,34,240.1,2.11V722.61ZM408.1,769.79l3.38-10.89h30v11.56H408l.12-.67Zm37.81-10.89h37v11.56h-37V758.9Zm42.12,0,31.35.21c1.53.18,1.58.67,1.52,2.57v8.78H488V758.9Zm37.57,0h32c1.54.13,4.6.4,6.26,1.88l2.74,9.68H526.84L525.6,758.9ZM425.33,743.18h33.15v11.44H425.33V743.18Zm38.67,0h44.33v11.44H464V743.18Zm49.58,0h33.28v11.44H513.58V743.18Zm-96-3.95L421,728.31h29.79c1.26.08,1.8.73,1.65,1.92v9Zm38.56-10.92h59.8v10.92h-59.8V728.31Zm62.42,0H551l2.65,10.92H518.55V728.31Zm-96.75-2.73,3.58-11.53,0-.06h9.47v11.59ZM438.49,714h45v11.59h-45V714Zm50.25,0h44.6v11.59h-44.6V714Zm47.93,0h10.75l.19.5,2.69,11.09H536.67V714Zm-110.13-3.7,2.95-9.52.1-3h22.22v12.55Zm28.75-12.55H517v12.55H455.29V697.74Zm64.43,0h23.63v6.79l2.64,5.76H519.72V697.74Zm-113.64-107,.19-203.14,1.58,0c4.22,13.77,24.21,12.54,28.39-1.57h1.69c3.66,10.12,8.28,11.38,15.6,11.23,11.91-.25,12.13-8.52,15.4-10.09,6.78,13.78,22.49,15.92,30.08,1.1h2.25c1.7,7.09,7.81,9.16,13.43,9.4,11.93.51,9.78-4.08,16.81-9.32,2.75,6.07,6,8.89,13.18,9.69,8.19.92,11.54-3.61,14.82-6.1V590.74h-16v85.38H527.37V587.19h-4.49v88.93H445.24v-90.6h-4.48v90.6H428.82V590.74Zm47.86-4.39v85h62.22V586h-4.48v81.09H488V641.8a16.68,16.68,0,0,0,8-7.7c1-2.06.84-2.48.75-4.72-.05-1.13-.09-2.15-.14-3.74,0-6.46-5-9.15-8.64-11.76V585.52h-4.48v28.8c-4.41,1.1-7.37,3.51-9,7.13-1.15,2.62-.76,8.3-.13,11.18,1.32,6,4.63,8.8,9.09,9.76v24.67H458.42V586.35Zm152.77-209,159.23,5.75c8.93.32,16.25,7.32,16.25,16.25h0c0,8.94-7.32,16.57-16.25,16.25L606.71,409.9c-8.93-.32-16.25-7.31-16.25-16.25h0c0-8.94,7.31-16.57,16.25-16.25Zm-244-89.65.1,44.1,444.75,23.48V314.78Z"/><path id="Vector-5" data-name="Vector" class="cls-2" d="M272.47,663.28l91.14,56,.08,35.76-91.22-58.14v-33.6Zm91-1.15,0-14.77a11.89,11.89,0,0,1-3.32-.14c-4.26-.8-6.67-3.14-8.45-6.91-2.65-5.62-.3-8.83,2.63-11.75a11.09,11.09,0,0,1,9.09-3.5l0-22.61a10.86,10.86,0,0,0-3,1.49,85.74,85.74,0,0,0-8.34,7.15c-9.83,9.56-10.42,17.93-5.4,30.59,2.08,5.23,9.55,18,15,20.07a6.23,6.23,0,0,0,1.81.38Zm-91-291.29v36.61l90.35-75.6-.1-44.1Z"/><path id="Vector-6" data-name="Vector" class="cls-2" d="M366.5,602.18a6.64,6.64,0,0,0-3.13.27l0,22.61.22,0c4.46.52,8.13,3.42,10.8,6.91,4.29,5.61,1.19,9.47-3.87,12.87a17.91,17.91,0,0,1-7.1,2.5l0,14.77a6.35,6.35,0,0,0,2.56-.42c3.82-1.44,6.91-6.89,9.11-10.22,6.12-9.22,10.83-19.57,5.8-31.36a61.35,61.35,0,0,0-5.38-9.09C373.72,608.26,370,602.73,366.5,602.18Z"/></g></g></svg>